# Blender 4.3.2
# www.blender.org
mtllib cube_power_module.mtl
o Cube_power_module_IC
v 0.104700 0.320500 -0.030200
v 0.104700 0.321200 -0.029500
v 0.104000 0.321200 -0.030200
v 0.104700 0.320594 -0.029850
v 0.104350 0.320594 -0.030200
v 0.104365 0.320684 -0.029865
v 0.104350 0.321200 -0.029594
v 0.104700 0.320850 -0.029594
v 0.104365 0.320865 -0.029684
v 0.104094 0.320850 -0.030200
v 0.104094 0.321200 -0.029850
v 0.104184 0.320865 -0.029865
v 0.104700 0.322800 -0.029500
v 0.104700 0.323500 -0.030200
v 0.104000 0.322800 -0.030200
v 0.104700 0.323150 -0.029594
v 0.104350 0.322800 -0.029594
v 0.104365 0.323135 -0.029684
v 0.104350 0.323406 -0.030200
v 0.104700 0.323406 -0.029850
v 0.104365 0.323316 -0.029865
v 0.104094 0.322800 -0.029850
v 0.104094 0.323150 -0.030200
v 0.104184 0.323135 -0.029865
v 0.104700 0.320500 -0.037800
v 0.104000 0.321200 -0.037800
v 0.104700 0.321200 -0.038500
v 0.104350 0.320594 -0.037800
v 0.104700 0.320594 -0.038150
v 0.104365 0.320684 -0.038135
v 0.104094 0.321200 -0.038150
v 0.104094 0.320850 -0.037800
v 0.104184 0.320865 -0.038135
v 0.104700 0.320850 -0.038406
v 0.104350 0.321200 -0.038406
v 0.104365 0.320865 -0.038316
v 0.104700 0.323500 -0.037800
v 0.104700 0.322800 -0.038500
v 0.104000 0.322800 -0.037800
v 0.104700 0.323406 -0.038150
v 0.104350 0.323406 -0.037800
v 0.104365 0.323316 -0.038135
v 0.104350 0.322800 -0.038406
v 0.104700 0.323150 -0.038406
v 0.104365 0.323135 -0.038316
v 0.104094 0.323150 -0.037800
v 0.104094 0.322800 -0.038150
v 0.104184 0.323135 -0.038135
v 0.113300 0.320500 -0.030200
v 0.114000 0.321200 -0.030200
v 0.113300 0.321200 -0.029500
v 0.113650 0.320594 -0.030200
v 0.113300 0.320594 -0.029850
v 0.113635 0.320684 -0.029865
v 0.113906 0.321200 -0.029850
v 0.113906 0.320850 -0.030200
v 0.113816 0.320865 -0.029865
v 0.113300 0.320850 -0.029594
v 0.113650 0.321200 -0.029594
v 0.113635 0.320865 -0.029684
v 0.113300 0.323500 -0.030200
v 0.113300 0.322800 -0.029500
v 0.114000 0.322800 -0.030200
v 0.113300 0.323406 -0.029850
v 0.113650 0.323406 -0.030200
v 0.113635 0.323316 -0.029865
v 0.113650 0.322800 -0.029594
v 0.113300 0.323150 -0.029594
v 0.113635 0.323135 -0.029684
v 0.113906 0.323150 -0.030200
v 0.113906 0.322800 -0.029850
v 0.113816 0.323135 -0.029865
v 0.113300 0.320500 -0.037800
v 0.113300 0.321200 -0.038500
v 0.114000 0.321200 -0.037800
v 0.113300 0.320594 -0.038150
v 0.113650 0.320594 -0.037800
v 0.113635 0.320684 -0.038135
v 0.113650 0.321200 -0.038406
v 0.113300 0.320850 -0.038406
v 0.113635 0.320865 -0.038316
v 0.113906 0.320850 -0.037800
v 0.113906 0.321200 -0.038150
v 0.113816 0.320865 -0.038135
v 0.113300 0.323500 -0.037800
v 0.114000 0.322800 -0.037800
v 0.113300 0.322800 -0.038500
v 0.113650 0.323406 -0.037800
v 0.113300 0.323406 -0.038150
v 0.113635 0.323316 -0.038135
v 0.113906 0.322800 -0.038150
v 0.113906 0.323150 -0.037800
v 0.113816 0.323135 -0.038135
v 0.113300 0.323150 -0.038406
v 0.113650 0.322800 -0.038406
v 0.113635 0.323135 -0.038316
vn -0.0000 -0.0000 1.0000
vn 1.0000 -0.0000 -0.0000
vn -0.0000 1.0000 -0.0000
vn -1.0000 -0.0000 -0.0000
vn -0.0000 -0.0000 -1.0000
vn -0.2566 -0.9318 0.2566
vn -0.2178 -0.6901 0.6901
vn -0.2566 -0.2566 0.9318
vn -0.6901 -0.2178 0.6901
vn -0.9318 -0.2566 0.2566
vn -0.6901 -0.6901 0.2178
vn -0.5774 -0.5773 0.5773
vn -0.2566 0.2566 0.9318
vn -0.2178 0.6901 0.6901
vn -0.2566 0.9318 0.2566
vn -0.6901 0.6901 0.2178
vn -0.9318 0.2566 0.2566
vn -0.6901 0.2178 0.6901
vn -0.5774 0.5773 0.5773
vn -0.2566 -0.9318 -0.2566
vn -0.6901 -0.6901 -0.2178
vn -0.9318 -0.2566 -0.2566
vn -0.6901 -0.2178 -0.6901
vn -0.2566 -0.2566 -0.9318
vn -0.2178 -0.6901 -0.6901
vn -0.5774 -0.5773 -0.5773
vn -0.2566 0.9318 -0.2566
vn -0.2178 0.6901 -0.6901
vn -0.2566 0.2566 -0.9318
vn -0.6901 0.2178 -0.6901
vn -0.9318 0.2566 -0.2566
vn -0.6901 0.6901 -0.2178
vn -0.5774 0.5773 -0.5773
vn 0.2566 -0.9318 0.2566
vn 0.6901 -0.6901 0.2178
vn 0.9318 -0.2566 0.2566
vn 0.6901 -0.2178 0.6901
vn 0.2566 -0.2566 0.9318
vn 0.2178 -0.6901 0.6901
vn 0.5774 -0.5773 0.5773
vn 0.2566 0.9318 0.2566
vn 0.2178 0.6901 0.6901
vn 0.2566 0.2566 0.9318
vn 0.6901 0.2178 0.6901
vn 0.9318 0.2566 0.2566
vn 0.6901 0.6901 0.2178
vn 0.5774 0.5773 0.5773
vn 0.2566 -0.9318 -0.2566
vn 0.2178 -0.6901 -0.6901
vn 0.2566 -0.2566 -0.9318
vn 0.6901 -0.2178 -0.6901
vn 0.9318 -0.2566 -0.2566
vn 0.6901 -0.6901 -0.2178
vn 0.5774 -0.5773 -0.5773
vn 0.2566 0.9318 -0.2566
vn 0.6901 0.6901 -0.2178
vn 0.9318 0.2566 -0.2566
vn 0.6901 0.2178 -0.6901
vn 0.2566 0.2566 -0.9318
vn 0.2178 0.6901 -0.6901
vn 0.5774 0.5773 -0.5773
vn -0.2585 -0.9660 -0.0000
vn -0.7071 -0.7071 -0.0000
vn -0.9660 -0.2585 -0.0000
vn -0.2585 -0.0000 0.9660
vn -0.7071 -0.0000 0.7071
vn -0.9660 -0.0000 0.2585
vn -0.2585 0.9660 -0.0000
vn -0.7071 0.7071 -0.0000
vn -0.9660 0.2585 -0.0000
vn -0.2585 -0.0000 -0.9660
vn -0.7071 -0.0000 -0.7071
vn -0.9660 -0.0000 -0.2585
vn -0.0000 -0.9660 -0.2585
vn -0.0000 -0.7071 -0.7071
vn -0.0000 -0.2585 -0.9660
vn -0.0000 0.9660 -0.2585
vn -0.0000 0.7071 -0.7071
vn -0.0000 0.2585 -0.9660
vn 0.9660 -0.0000 -0.2585
vn 0.7071 -0.0000 -0.7071
vn 0.2585 -0.0000 -0.9660
vn 0.2585 -0.9660 -0.0000
vn 0.7071 -0.7071 -0.0000
vn 0.9660 -0.2585 -0.0000
vn 0.2585 0.9660 -0.0000
vn 0.7071 0.7071 -0.0000
vn 0.9660 0.2585 -0.0000
vn 0.2585 -0.0000 0.9660
vn 0.7071 -0.0000 0.7071
vn 0.9660 -0.0000 0.2585
vn -0.0000 -0.9660 0.2585
vn -0.0000 -0.7071 0.7071
vn -0.0000 -0.2585 0.9660
vn -0.0000 0.9660 0.2585
vn -0.0000 0.7071 0.7071
vn -0.0000 0.2585 0.9660
vn -0.0000 -1.0000 -0.0000
vt 0.433333 0.767500
vt 0.566667 0.767500
vt 0.566667 0.982500
vt 0.433333 0.982500
vt 0.433333 0.519444
vt 0.566667 0.519444
vt 0.566667 0.730556
vt 0.433333 0.730556
vt 0.642500 0.519445
vt 0.857500 0.519444
vt 0.857500 0.730556
vt 0.642500 0.730556
vt 0.433333 0.019444
vt 0.566667 0.019444
vt 0.566667 0.230556
vt 0.433333 0.230556
vt 0.433333 0.267500
vt 0.566667 0.267500
vt 0.566667 0.482500
vt 0.433333 0.482500
vt 0.142500 0.730556
vt 0.142500 0.740265
vt 0.134131 0.739854
vt 0.133761 0.730556
vt 0.142500 0.750000
vt 0.134131 0.750000
vt 0.433333 1.000000
vt 0.375000 0.990869
vt 0.375000 0.982500
vt 0.433333 0.000000
vt 0.433333 0.009735
vt 0.375000 0.010146
vt 0.375000 0.000000
vt 0.375000 0.019444
vt 0.125000 0.730556
vt 0.125000 0.739854
vt 0.595795 0.982500
vt 0.594562 0.990869
vt 0.566667 1.000000
vt 0.625000 0.982500
vt 0.625000 0.990869
vt 0.875000 0.730556
vt 0.865869 0.750000
vt 0.857500 0.750000
vt 0.625000 0.019444
vt 0.595795 0.019444
vt 0.594562 0.010146
vt 0.625000 0.000000
vt 0.566667 0.009735
vt 0.566667 0.000000
vt 0.594562 0.005121
vt 0.594562 0.995391
vt 0.142500 0.519445
vt 0.133761 0.519444
vt 0.134131 0.510146
vt 0.142500 0.509735
vt 0.125000 0.519444
vt 0.125000 0.510146
vt 0.433333 0.240265
vt 0.375000 0.239854
vt 0.375000 0.230556
vt 0.433333 0.258761
vt 0.375000 0.259131
vt 0.375000 0.267500
vt 0.142500 0.500000
vt 0.134131 0.500000
vt 0.857500 0.500000
vt 0.865869 0.500000
vt 0.875000 0.519444
vt 0.625000 0.267500
vt 0.595795 0.267500
vt 0.594562 0.259131
vt 0.625000 0.259131
vt 0.566667 0.258761
vt 0.566667 0.240265
vt 0.594562 0.239854
vt 0.595795 0.230556
vt 0.625000 0.230556
vt 0.625000 0.250000
vt 0.594562 0.254609
vt 0.357500 0.730556
vt 0.366239 0.730556
vt 0.365869 0.739854
vt 0.357500 0.740265
vt 0.404205 0.730556
vt 0.405438 0.739854
vt 0.433333 0.740265
vt 0.433333 0.758761
vt 0.375000 0.759131
vt 0.375000 0.767500
vt 0.357500 0.750000
vt 0.365869 0.750000
vt 0.370391 0.739854
vt 0.642500 0.750000
vt 0.634131 0.750000
vt 0.633761 0.730556
vt 0.625000 0.767500
vt 0.595795 0.767500
vt 0.594562 0.759131
vt 0.625000 0.759131
vt 0.566667 0.758761
vt 0.566667 0.740265
vt 0.594562 0.739854
vt 0.595795 0.730556
vt 0.594562 0.754609
vt 0.357500 0.519444
vt 0.357500 0.509735
vt 0.365869 0.510146
vt 0.366239 0.519444
vt 0.357500 0.500000
vt 0.365869 0.500000
vt 0.433333 0.491239
vt 0.375000 0.490869
vt 0.375000 0.482500
vt 0.433333 0.509735
vt 0.405438 0.510146
vt 0.404205 0.519444
vt 0.370391 0.510146
vt 0.633761 0.519444
vt 0.634131 0.510146
vt 0.642500 0.500000
vt 0.595795 0.519444
vt 0.594562 0.510146
vt 0.566667 0.509735
vt 0.566667 0.491239
vt 0.594562 0.490869
vt 0.595795 0.482500
vt 0.625000 0.482500
vt 0.609637 0.490869
vt 0.609637 0.510146
vt 0.594562 0.505121
s 0
usemtl Braided_harness_charcoal
f 51/1/1 62/2/1 13/3/1 2/4/1
f 75/5/2 86/6/2 63/7/2 50/8/2
f 85/9/3 37/10/3 14/11/3 61/12/3
f 3/13/4 15/14/4 39/15/4 26/16/4
f 27/17/5 38/18/5 87/19/5 74/20/5
f 1/21/6 4/22/6 6/23/6 5/24/6
f 4/22/7 8/25/7 9/26/7 6/23/7
f 2/4/8 7/27/8 9/28/8 8/29/8
f 7/30/9 11/31/9 12/32/9 9/33/9
f 3/13/10 10/34/10 12/32/10 11/31/10
f 10/35/11 5/24/11 6/23/11 12/36/11
f 6/23/12 9/26/12 12/36/12
f 13/3/13 16/37/13 18/38/13 17/39/13
f 16/37/14 20/40/14 21/41/14 18/38/14
f 14/11/15 19/42/15 21/43/15 20/44/15
f 19/45/16 23/46/16 24/47/16 21/48/16
f 15/14/17 22/49/17 24/47/17 23/46/17
f 22/49/18 17/50/18 18/51/18 24/47/18
f 18/38/19 21/41/19 24/52/19
f 25/53/20 28/54/20 30/55/20 29/56/20
f 28/54/21 32/57/21 33/58/21 30/55/21
f 26/16/22 31/59/22 33/60/22 32/61/22
f 31/59/23 35/62/23 36/63/23 33/60/23
f 27/17/24 34/64/24 36/63/24 35/62/24
f 34/65/25 29/56/25 30/55/25 36/66/25
f 30/55/26 33/58/26 36/66/26
f 37/10/27 40/67/27 42/68/27 41/69/27
f 40/70/28 44/71/28 45/72/28 42/73/28
f 38/18/29 43/74/29 45/72/29 44/71/29
f 43/74/30 47/75/30 48/76/30 45/72/30
f 39/15/31 46/77/31 48/76/31 47/75/31
f 46/77/32 41/78/32 42/79/32 48/76/32
f 42/73/33 45/72/33 48/80/33
f 49/81/34 52/82/34 54/83/34 53/84/34
f 52/82/35 56/85/35 57/86/35 54/83/35
f 50/8/36 55/87/36 57/86/36 56/85/36
f 55/87/37 59/88/37 60/89/37 57/86/37
f 51/1/38 58/90/38 60/89/38 59/88/38
f 58/91/39 53/84/39 54/83/39 60/92/39
f 54/83/40 57/93/40 60/92/40
f 61/12/41 64/94/41 66/95/41 65/96/41
f 64/97/42 68/98/42 69/99/42 66/100/42
f 62/2/43 67/101/43 69/99/43 68/98/43
f 67/101/44 71/102/44 72/103/44 69/99/44
f 63/7/45 70/104/45 72/103/45 71/102/45
f 70/104/46 65/96/46 66/95/46 72/103/46
f 66/100/47 69/99/47 72/105/47
f 73/106/48 76/107/48 78/108/48 77/109/48
f 76/107/49 80/110/49 81/111/49 78/108/49
f 74/20/50 79/112/50 81/113/50 80/114/50
f 79/112/51 83/115/51 84/116/51 81/113/51
f 75/5/52 82/117/52 84/116/52 83/115/52
f 82/117/53 77/109/53 78/108/53 84/116/53
f 78/108/54 81/111/54 84/118/54
f 85/9/55 88/119/55 90/120/55 89/121/55
f 88/119/56 92/122/56 93/123/56 90/120/56
f 86/6/57 91/124/57 93/123/57 92/122/57
f 91/124/58 95/125/58 96/126/58 93/123/58
f 87/19/59 94/127/59 96/126/59 95/125/59
f 94/127/60 89/128/60 90/129/60 96/126/60
f 90/130/61 93/123/61 96/131/61
f 25/53/62 1/21/62 5/24/62 28/54/62
f 28/54/63 5/24/63 10/35/63 32/57/63
f 32/61/64 10/34/64 3/13/64 26/16/64
f 2/4/65 13/3/65 17/39/65 7/27/65
f 7/30/66 17/50/66 22/49/66 11/31/66
f 11/31/67 22/49/67 15/14/67 3/13/67
f 14/11/68 37/10/68 41/69/68 19/42/68
f 19/45/69 41/78/69 46/77/69 23/46/69
f 23/46/70 46/77/70 39/15/70 15/14/70
f 38/18/71 27/17/71 35/62/71 43/74/71
f 43/74/72 35/62/72 31/59/72 47/75/72
f 47/75/73 31/59/73 26/16/73 39/15/73
f 73/106/74 25/53/74 29/56/74 76/107/74
f 76/107/75 29/56/75 34/65/75 80/110/75
f 80/114/76 34/64/76 27/17/76 74/20/76
f 37/10/77 85/9/77 89/121/77 40/67/77
f 40/70/78 89/128/78 94/127/78 44/71/78
f 44/71/79 94/127/79 87/19/79 38/18/79
f 86/6/80 75/5/80 83/115/80 91/124/80
f 91/124/81 83/115/81 79/112/81 95/125/81
f 95/125/82 79/112/82 74/20/82 87/19/82
f 49/81/83 73/106/83 77/109/83 52/82/83
f 52/82/84 77/109/84 82/117/84 56/85/84
f 56/85/85 82/117/85 75/5/85 50/8/85
f 85/9/86 61/12/86 65/96/86 88/119/86
f 88/119/87 65/96/87 70/104/87 92/122/87
f 92/122/88 70/104/88 63/7/88 86/6/88
f 62/2/89 51/1/89 59/88/89 67/101/89
f 67/101/90 59/88/90 55/87/90 71/102/90
f 71/102/91 55/87/91 50/8/91 63/7/91
f 1/21/92 49/81/92 53/84/92 4/22/92
f 4/22/93 53/84/93 58/91/93 8/25/93
f 8/29/94 58/90/94 51/1/94 2/4/94
f 61/12/95 14/11/95 20/44/95 64/94/95
f 64/97/96 20/40/96 16/37/96 68/98/96
f 68/98/97 16/37/97 13/3/97 62/2/97
f 25/53/98 73/106/98 49/81/98 1/21/98
o Cube_power_module
v 0.100200 0.307500 -0.022200
v 0.100200 0.308200 -0.021500
v 0.099500 0.308200 -0.022200
v 0.100200 0.307594 -0.021850
v 0.099850 0.307594 -0.022200
v 0.099865 0.307684 -0.021865
v 0.099850 0.308200 -0.021594
v 0.100200 0.307850 -0.021594
v 0.099865 0.307865 -0.021684
v 0.099594 0.307850 -0.022200
v 0.099594 0.308200 -0.021850
v 0.099684 0.307865 -0.021865
v 0.100200 0.319800 -0.021500
v 0.100200 0.320500 -0.022200
v 0.099500 0.319800 -0.022200
v 0.100200 0.320150 -0.021594
v 0.099850 0.319800 -0.021594
v 0.099865 0.320135 -0.021684
v 0.099850 0.320406 -0.022200
v 0.100200 0.320406 -0.021850
v 0.099865 0.320316 -0.021865
v 0.099594 0.319800 -0.021850
v 0.099594 0.320150 -0.022200
v 0.099684 0.320135 -0.021865
v 0.100200 0.307500 -0.045800
v 0.099500 0.308200 -0.045800
v 0.100200 0.308200 -0.046500
v 0.099850 0.307594 -0.045800
v 0.100200 0.307594 -0.046150
v 0.099865 0.307684 -0.046135
v 0.099594 0.308200 -0.046150
v 0.099594 0.307850 -0.045800
v 0.099684 0.307865 -0.046135
v 0.100200 0.307850 -0.046406
v 0.099850 0.308200 -0.046406
v 0.099865 0.307865 -0.046316
v 0.100200 0.320500 -0.045800
v 0.100200 0.319800 -0.046500
v 0.099500 0.319800 -0.045800
v 0.100200 0.320406 -0.046150
v 0.099850 0.320406 -0.045800
v 0.099865 0.320316 -0.046135
v 0.099850 0.319800 -0.046406
v 0.100200 0.320150 -0.046406
v 0.099865 0.320135 -0.046316
v 0.099594 0.320150 -0.045800
v 0.099594 0.319800 -0.046150
v 0.099684 0.320135 -0.046135
v 0.117800 0.307500 -0.022200
v 0.118500 0.308200 -0.022200
v 0.117800 0.308200 -0.021500
v 0.118150 0.307594 -0.022200
v 0.117800 0.307594 -0.021850
v 0.118135 0.307684 -0.021865
v 0.118406 0.308200 -0.021850
v 0.118406 0.307850 -0.022200
v 0.118316 0.307865 -0.021865
v 0.117800 0.307850 -0.021594
v 0.118150 0.308200 -0.021594
v 0.118135 0.307865 -0.021684
v 0.117800 0.320500 -0.022200
v 0.117800 0.319800 -0.021500
v 0.118500 0.319800 -0.022200
v 0.117800 0.320406 -0.021850
v 0.118150 0.320406 -0.022200
v 0.118135 0.320316 -0.021865
v 0.118150 0.319800 -0.021594
v 0.117800 0.320150 -0.021594
v 0.118135 0.320135 -0.021684
v 0.118406 0.320150 -0.022200
v 0.118406 0.319800 -0.021850
v 0.118316 0.320135 -0.021865
v 0.117800 0.307500 -0.045800
v 0.117800 0.308200 -0.046500
v 0.118500 0.308200 -0.045800
v 0.117800 0.307594 -0.046150
v 0.118150 0.307594 -0.045800
v 0.118135 0.307684 -0.046135
v 0.118150 0.308200 -0.046406
v 0.117800 0.307850 -0.046406
v 0.118135 0.307865 -0.046316
v 0.118406 0.307850 -0.045800
v 0.118406 0.308200 -0.046150
v 0.118316 0.307865 -0.046135
v 0.117800 0.320500 -0.045800
v 0.118500 0.319800 -0.045800
v 0.117800 0.319800 -0.046500
v 0.118150 0.320406 -0.045800
v 0.117800 0.320406 -0.046150
v 0.118135 0.320316 -0.046135
v 0.118406 0.319800 -0.046150
v 0.118406 0.320150 -0.045800
v 0.118316 0.320135 -0.046135
v 0.117800 0.320150 -0.046406
v 0.118150 0.319800 -0.046406
v 0.118135 0.320135 -0.046316
vn -0.0000 -0.0000 1.0000
vn 1.0000 -0.0000 -0.0000
vn -0.0000 1.0000 -0.0000
vn -1.0000 -0.0000 -0.0000
vn -0.0000 -0.0000 -1.0000
vn -0.2566 -0.9318 0.2566
vn -0.2178 -0.6901 0.6901
vn -0.2566 -0.2566 0.9318
vn -0.6901 -0.2178 0.6901
vn -0.9318 -0.2566 0.2566
vn -0.6901 -0.6901 0.2178
vn -0.5774 -0.5774 0.5774
vn -0.2566 0.2566 0.9318
vn -0.2178 0.6901 0.6901
vn -0.2566 0.9318 0.2566
vn -0.6901 0.6901 0.2178
vn -0.9318 0.2566 0.2566
vn -0.6901 0.2178 0.6901
vn -0.5774 0.5774 0.5774
vn -0.2566 -0.9318 -0.2566
vn -0.6901 -0.6901 -0.2178
vn -0.9318 -0.2566 -0.2566
vn -0.6901 -0.2178 -0.6901
vn -0.2566 -0.2566 -0.9318
vn -0.2178 -0.6901 -0.6901
vn -0.5774 -0.5774 -0.5774
vn -0.2566 0.9318 -0.2566
vn -0.2178 0.6901 -0.6901
vn -0.2566 0.2566 -0.9318
vn -0.6901 0.2178 -0.6901
vn -0.9318 0.2566 -0.2566
vn -0.6901 0.6901 -0.2178
vn -0.5774 0.5774 -0.5774
vn 0.2566 -0.9318 0.2566
vn 0.6901 -0.6901 0.2178
vn 0.9318 -0.2566 0.2566
vn 0.6901 -0.2178 0.6901
vn 0.2566 -0.2566 0.9318
vn 0.2178 -0.6901 0.6901
vn 0.5774 -0.5774 0.5774
vn 0.2566 0.9318 0.2566
vn 0.2178 0.6901 0.6901
vn 0.2566 0.2566 0.9318
vn 0.6901 0.2178 0.6901
vn 0.9318 0.2566 0.2566
vn 0.6901 0.6901 0.2178
vn 0.5774 0.5774 0.5774
vn 0.2566 -0.9318 -0.2566
vn 0.2178 -0.6901 -0.6901
vn 0.2566 -0.2566 -0.9318
vn 0.6901 -0.2178 -0.6901
vn 0.9318 -0.2566 -0.2566
vn 0.6901 -0.6901 -0.2178
vn 0.5774 -0.5774 -0.5774
vn 0.2566 0.9318 -0.2566
vn 0.6901 0.6901 -0.2178
vn 0.9318 0.2566 -0.2566
vn 0.6901 0.2178 -0.6901
vn 0.2566 0.2566 -0.9318
vn 0.2178 0.6901 -0.6901
vn 0.5774 0.5774 -0.5774
vn -0.2585 -0.9660 -0.0000
vn -0.7071 -0.7071 -0.0000
vn -0.9660 -0.2585 -0.0000
vn -0.2585 -0.0000 0.9660
vn -0.7071 -0.0000 0.7071
vn -0.9660 -0.0000 0.2585
vn -0.2585 0.9660 -0.0000
vn -0.7071 0.7071 -0.0000
vn -0.9660 0.2585 -0.0000
vn -0.2585 -0.0000 -0.9660
vn -0.7071 -0.0000 -0.7071
vn -0.9660 -0.0000 -0.2585
vn -0.0000 -0.9660 -0.2585
vn -0.0000 -0.7071 -0.7071
vn -0.0000 -0.2585 -0.9660
vn -0.0000 0.9660 -0.2585
vn -0.0000 0.7071 -0.7071
vn -0.0000 0.2585 -0.9660
vn 0.9660 -0.0000 -0.2585
vn 0.7071 -0.0000 -0.7071
vn 0.2585 -0.0000 -0.9660
vn 0.2585 -0.9660 -0.0000
vn 0.7071 -0.7071 -0.0000
vn 0.9660 -0.2585 -0.0000
vn 0.2585 0.9660 -0.0000
vn 0.7071 0.7071 -0.0000
vn 0.9660 0.2585 -0.0000
vn 0.2585 -0.0000 0.9660
vn 0.7071 -0.0000 0.7071
vn 0.9660 -0.0000 0.2585
vn -0.0000 -0.9660 0.2585
vn -0.0000 -0.7071 0.7071
vn -0.0000 -0.2585 0.9660
vn -0.0000 0.9660 0.2585
vn -0.0000 0.7071 0.7071
vn -0.0000 0.2585 0.9660
vn -0.0000 -1.0000 -0.0000
vt 0.388462 0.759211
vt 0.611538 0.759210
vt 0.611538 0.990790
vt 0.388462 0.990790
vt 0.388462 0.507000
vt 0.611538 0.507000
vt 0.611538 0.743000
vt 0.388462 0.743000
vt 0.634211 0.507000
vt 0.865789 0.507000
vt 0.865790 0.743000
vt 0.634211 0.743000
vt 0.388462 0.007000
vt 0.611538 0.007000
vt 0.611538 0.243000
vt 0.388462 0.243000
vt 0.388462 0.259211
vt 0.611538 0.259211
vt 0.611538 0.490790
vt 0.388462 0.490789
vt 0.134211 0.743000
vt 0.134211 0.746495
vt 0.129806 0.746347
vt 0.129611 0.743000
vt 0.134211 0.750000
vt 0.129806 0.750000
vt 0.388462 1.000000
vt 0.375000 0.995194
vt 0.375000 0.990789
vt 0.388462 0.000000
vt 0.388462 0.003505
vt 0.375000 0.003653
vt 0.375000 0.000000
vt 0.375000 0.007000
vt 0.125000 0.743000
vt 0.125000 0.746347
vt 0.618260 0.990789
vt 0.617976 0.995194
vt 0.611538 1.000000
vt 0.625000 0.990789
vt 0.625000 0.995194
vt 0.875000 0.743000
vt 0.870194 0.750000
vt 0.865789 0.750000
vt 0.625000 0.007000
vt 0.618260 0.007000
vt 0.617976 0.003653
vt 0.625000 0.000000
vt 0.611538 0.003505
vt 0.611538 0.000000
vt 0.617976 0.001844
vt 0.617976 0.997574
vt 0.134211 0.507000
vt 0.129611 0.507000
vt 0.129806 0.503653
vt 0.134211 0.503505
vt 0.125000 0.507000
vt 0.125000 0.503653
vt 0.388462 0.246495
vt 0.375000 0.246347
vt 0.375000 0.243000
vt 0.388462 0.254611
vt 0.375000 0.254806
vt 0.375000 0.259211
vt 0.134211 0.500000
vt 0.129806 0.500000
vt 0.865789 0.500000
vt 0.870194 0.500000
vt 0.875000 0.507000
vt 0.625000 0.259211
vt 0.618260 0.259210
vt 0.617976 0.254806
vt 0.625000 0.254806
vt 0.611538 0.254611
vt 0.611538 0.246495
vt 0.617976 0.246347
vt 0.618260 0.243000
vt 0.625000 0.243000
vt 0.625000 0.250000
vt 0.617976 0.252426
vt 0.365789 0.743000
vt 0.370389 0.743000
vt 0.370194 0.746347
vt 0.365789 0.746495
vt 0.381740 0.743000
vt 0.382024 0.746347
vt 0.388462 0.746495
vt 0.388462 0.754611
vt 0.375000 0.754806
vt 0.375000 0.759211
vt 0.365790 0.750000
vt 0.370194 0.750000
vt 0.372574 0.746347
vt 0.634211 0.750000
vt 0.629806 0.750000
vt 0.629611 0.743000
vt 0.625000 0.759211
vt 0.618260 0.759210
vt 0.617976 0.754806
vt 0.625000 0.754806
vt 0.611538 0.754611
vt 0.611538 0.746495
vt 0.617976 0.746347
vt 0.618260 0.743000
vt 0.617976 0.752426
vt 0.365789 0.507000
vt 0.365789 0.503505
vt 0.370194 0.503653
vt 0.370389 0.507000
vt 0.365790 0.500000
vt 0.370194 0.500000
vt 0.388462 0.495389
vt 0.375000 0.495194
vt 0.375000 0.490789
vt 0.388462 0.503505
vt 0.382024 0.503653
vt 0.381740 0.507000
vt 0.372574 0.503653
vt 0.629611 0.507000
vt 0.629806 0.503653
vt 0.634210 0.500000
vt 0.618260 0.507000
vt 0.617976 0.503653
vt 0.611538 0.503505
vt 0.611538 0.495389
vt 0.617976 0.495194
vt 0.618260 0.490789
vt 0.625000 0.490789
vt 0.621455 0.495194
vt 0.621455 0.503653
vt 0.617976 0.501844
s 0
usemtl Interface_PCB
f 147/132/99 158/133/99 109/134/99 98/135/99
f 171/136/100 182/137/100 159/138/100 146/139/100
f 181/140/101 133/141/101 110/142/101 157/143/101
f 99/144/102 111/145/102 135/146/102 122/147/102
f 123/148/103 134/149/103 183/150/103 170/151/103
f 97/152/104 100/153/104 102/154/104 101/155/104
f 100/153/105 104/156/105 105/157/105 102/154/105
f 98/135/106 103/158/106 105/159/106 104/160/106
f 103/161/107 107/162/107 108/163/107 105/164/107
f 99/144/108 106/165/108 108/163/108 107/162/108
f 106/166/109 101/155/109 102/154/109 108/167/109
f 102/154/110 105/157/110 108/167/110
f 109/134/111 112/168/111 114/169/111 113/170/111
f 112/168/112 116/171/112 117/172/112 114/169/112
f 110/142/113 115/173/113 117/174/113 116/175/113
f 115/176/114 119/177/114 120/178/114 117/179/114
f 111/145/115 118/180/115 120/178/115 119/177/115
f 118/180/116 113/181/116 114/182/116 120/178/116
f 114/169/117 117/172/117 120/183/117
f 121/184/118 124/185/118 126/186/118 125/187/118
f 124/185/119 128/188/119 129/189/119 126/186/119
f 122/147/120 127/190/120 129/191/120 128/192/120
f 127/190/121 131/193/121 132/194/121 129/191/121
f 123/148/122 130/195/122 132/194/122 131/193/122
f 130/196/123 125/187/123 126/186/123 132/197/123
f 126/186/124 129/189/124 132/197/124
f 133/141/125 136/198/125 138/199/125 137/200/125
f 136/201/126 140/202/126 141/203/126 138/204/126
f 134/149/127 139/205/127 141/203/127 140/202/127
f 139/205/128 143/206/128 144/207/128 141/203/128
f 135/146/129 142/208/129 144/207/129 143/206/129
f 142/208/130 137/209/130 138/210/130 144/207/130
f 138/204/131 141/203/131 144/211/131
f 145/212/132 148/213/132 150/214/132 149/215/132
f 148/213/133 152/216/133 153/217/133 150/214/133
f 146/139/134 151/218/134 153/217/134 152/216/134
f 151/218/135 155/219/135 156/220/135 153/217/135
f 147/132/136 154/221/136 156/220/136 155/219/136
f 154/222/137 149/215/137 150/214/137 156/223/137
f 150/214/138 153/224/138 156/223/138
f 157/143/139 160/225/139 162/226/139 161/227/139
f 160/228/140 164/229/140 165/230/140 162/231/140
f 158/133/141 163/232/141 165/230/141 164/229/141
f 163/232/142 167/233/142 168/234/142 165/230/142
f 159/138/143 166/235/143 168/234/143 167/233/143
f 166/235/144 161/227/144 162/226/144 168/234/144
f 162/231/145 165/230/145 168/236/145
f 169/237/146 172/238/146 174/239/146 173/240/146
f 172/238/147 176/241/147 177/242/147 174/239/147
f 170/151/148 175/243/148 177/244/148 176/245/148
f 175/243/149 179/246/149 180/247/149 177/244/149
f 171/136/150 178/248/150 180/247/150 179/246/150
f 178/248/151 173/240/151 174/239/151 180/247/151
f 174/239/152 177/242/152 180/249/152
f 181/140/153 184/250/153 186/251/153 185/252/153
f 184/250/154 188/253/154 189/254/154 186/251/154
f 182/137/155 187/255/155 189/254/155 188/253/155
f 187/255/156 191/256/156 192/257/156 189/254/156
f 183/150/157 190/258/157 192/257/157 191/256/157
f 190/258/158 185/259/158 186/260/158 192/257/158
f 186/261/159 189/254/159 192/262/159
f 121/184/160 97/152/160 101/155/160 124/185/160
f 124/185/161 101/155/161 106/166/161 128/188/161
f 128/192/162 106/165/162 99/144/162 122/147/162
f 98/135/163 109/134/163 113/170/163 103/158/163
f 103/161/164 113/181/164 118/180/164 107/162/164
f 107/162/165 118/180/165 111/145/165 99/144/165
f 110/142/166 133/141/166 137/200/166 115/173/166
f 115/176/167 137/209/167 142/208/167 119/177/167
f 119/177/168 142/208/168 135/146/168 111/145/168
f 134/149/169 123/148/169 131/193/169 139/205/169
f 139/205/170 131/193/170 127/190/170 143/206/170
f 143/206/171 127/190/171 122/147/171 135/146/171
f 169/237/172 121/184/172 125/187/172 172/238/172
f 172/238/173 125/187/173 130/196/173 176/241/173
f 176/245/174 130/195/174 123/148/174 170/151/174
f 133/141/175 181/140/175 185/252/175 136/198/175
f 136/201/176 185/259/176 190/258/176 140/202/176
f 140/202/177 190/258/177 183/150/177 134/149/177
f 182/137/178 171/136/178 179/246/178 187/255/178
f 187/255/179 179/246/179 175/243/179 191/256/179
f 191/256/180 175/243/180 170/151/180 183/150/180
f 145/212/181 169/237/181 173/240/181 148/213/181
f 148/213/182 173/240/182 178/248/182 152/216/182
f 152/216/183 178/248/183 171/136/183 146/139/183
f 181/140/184 157/143/184 161/227/184 184/250/184
f 184/250/185 161/227/185 166/235/185 188/253/185
f 188/253/186 166/235/186 159/138/186 182/137/186
f 158/133/187 147/132/187 155/219/187 163/232/187
f 163/232/188 155/219/188 151/218/188 167/233/188
f 167/233/189 151/218/189 146/139/189 159/138/189
f 97/152/190 145/212/190 149/215/190 100/153/190
f 100/153/191 149/215/191 154/222/191 104/156/191
f 104/160/192 154/221/192 147/132/192 98/135/192
f 157/143/193 110/142/193 116/175/193 160/225/193
f 160/228/194 116/171/194 112/168/194 164/229/194
f 164/229/195 112/168/195 109/134/195 158/133/195
f 121/184/196 169/237/196 145/212/196 97/152/196
