# Blender 4.3.2
# www.blender.org
mtllib esc mosfet.mtl
o Power_distribution_PCB
v 0.043732 0.302500 -0.011115
v 0.043732 0.305500 -0.008115
v 0.040732 0.305500 -0.011115
v 0.043732 0.302901 -0.009617
v 0.042234 0.302901 -0.011115
v 0.042297 0.303290 -0.009680
v 0.042234 0.305500 -0.008516
v 0.043732 0.304002 -0.008516
v 0.042297 0.304065 -0.008905
v 0.041133 0.304002 -0.011115
v 0.041133 0.305500 -0.009617
v 0.041522 0.304065 -0.009680
v 0.043732 0.308500 -0.008115
v 0.043732 0.311500 -0.011115
v 0.040732 0.308500 -0.011115
v 0.043732 0.309998 -0.008516
v 0.042234 0.308500 -0.008516
v 0.042297 0.309935 -0.008905
v 0.042234 0.311099 -0.011115
v 0.043732 0.311099 -0.009617
v 0.042297 0.310710 -0.009680
v 0.041133 0.308500 -0.009617
v 0.041133 0.309998 -0.011115
v 0.041522 0.309935 -0.009680
v 0.043732 0.302500 -0.070115
v 0.040732 0.305500 -0.070115
v 0.043732 0.305500 -0.073115
v 0.042234 0.302901 -0.070115
v 0.043732 0.302901 -0.071613
v 0.042297 0.303290 -0.071550
v 0.041133 0.305500 -0.071613
v 0.041133 0.304002 -0.070115
v 0.041522 0.304065 -0.071550
v 0.043732 0.304002 -0.072714
v 0.042234 0.305500 -0.072714
v 0.042297 0.304065 -0.072325
v 0.043732 0.311500 -0.070115
v 0.043732 0.308500 -0.073115
v 0.040732 0.308500 -0.070115
v 0.043732 0.311099 -0.071613
v 0.042234 0.311099 -0.070115
v 0.042297 0.310710 -0.071550
v 0.042234 0.308500 -0.072714
v 0.043732 0.309998 -0.072714
v 0.042297 0.309935 -0.072325
v 0.041133 0.309998 -0.070115
v 0.041133 0.308500 -0.071613
v 0.041522 0.309935 -0.071550
v 0.113732 0.302500 -0.011115
v 0.116732 0.305500 -0.011115
v 0.113732 0.305500 -0.008115
v 0.115230 0.302901 -0.011115
v 0.113732 0.302901 -0.009617
v 0.115167 0.303290 -0.009680
v 0.116331 0.305500 -0.009617
v 0.116331 0.304002 -0.011115
v 0.115942 0.304065 -0.009680
v 0.113732 0.304002 -0.008516
v 0.115230 0.305500 -0.008516
v 0.115167 0.304065 -0.008905
v 0.113732 0.311500 -0.011115
v 0.113732 0.308500 -0.008115
v 0.116732 0.308500 -0.011115
v 0.113732 0.311099 -0.009617
v 0.115230 0.311099 -0.011115
v 0.115167 0.310710 -0.009680
v 0.115230 0.308500 -0.008516
v 0.113732 0.309998 -0.008516
v 0.115167 0.309935 -0.008905
v 0.116331 0.309998 -0.011115
v 0.116331 0.308500 -0.009617
v 0.115942 0.309935 -0.009680
v 0.113732 0.302500 -0.070115
v 0.113732 0.305500 -0.073115
v 0.116732 0.305500 -0.070115
v 0.113732 0.302901 -0.071613
v 0.115230 0.302901 -0.070115
v 0.115167 0.303290 -0.071550
v 0.115230 0.305500 -0.072714
v 0.113732 0.304002 -0.072714
v 0.115167 0.304065 -0.072325
v 0.116331 0.304002 -0.070115
v 0.116331 0.305500 -0.071613
v 0.115942 0.304065 -0.071550
v 0.113732 0.311500 -0.070115
v 0.116732 0.308500 -0.070115
v 0.113732 0.308500 -0.073115
v 0.115230 0.311099 -0.070115
v 0.113732 0.311099 -0.071613
v 0.115167 0.310710 -0.071550
v 0.116331 0.308500 -0.071613
v 0.116331 0.309998 -0.070115
v 0.115942 0.309935 -0.071550
v 0.113732 0.309998 -0.072714
v 0.115230 0.308500 -0.072714
v 0.115167 0.309935 -0.072325
vn 0.0056 -0.0887 0.9960
vn 0.0056 0.0887 0.9960
vn -0.0056 0.0887 0.9960
vn -0.0056 -0.0887 0.9960
vn 0.9960 -0.0887 -0.0066
vn 0.9960 0.0887 -0.0066
vn 0.9960 0.0887 0.0066
vn 0.9960 -0.0887 0.0066
vn 0.0056 1.0000 -0.0066
vn -0.0056 1.0000 -0.0066
vn -0.0056 1.0000 0.0066
vn 0.0056 1.0000 0.0066
vn -0.9960 -0.0887 0.0066
vn -0.9960 0.0887 0.0066
vn -0.9960 0.0887 -0.0066
vn -0.9960 -0.0887 -0.0066
vn -0.0056 -0.0887 -0.9960
vn -0.0056 0.0887 -0.9960
vn 0.0056 0.0887 -0.9960
vn 0.0056 -0.0887 -0.9960
vn -0.0056 -1.0000 0.0067
vn -0.0048 -0.8660 0.5000
vn -0.4178 -0.8067 0.4178
vn -0.4999 -0.8660 0.0056
vn -0.0048 -0.8660 0.5001
vn -0.0048 -0.5001 0.8660
vn -0.4178 -0.4179 0.8067
vn -0.4178 -0.8067 0.4179
vn -0.0056 -0.0888 0.9960
vn -0.4941 -0.0780 0.8659
vn -0.4178 -0.4178 0.8067
vn -0.0047 -0.5000 0.8660
vn -0.8659 -0.0780 0.4941
vn -0.8067 -0.4178 0.4179
vn -0.4179 -0.4178 0.8067
vn -0.9960 -0.0888 0.0066
vn -0.8660 -0.5000 0.0056
vn -0.8067 -0.4178 0.4178
vn -0.5000 -0.8660 0.0056
vn -0.4179 -0.8067 0.4178
vn -0.8067 -0.4179 0.4178
vn -0.0056 0.0888 0.9960
vn -0.0048 0.5000 0.8660
vn -0.4178 0.4178 0.8067
vn -0.4941 0.0780 0.8659
vn -0.0048 0.5001 0.8660
vn -0.0048 0.8660 0.5001
vn -0.4178 0.8067 0.4179
vn -0.4178 0.4179 0.8067
vn -0.5000 0.8660 0.0056
vn -0.4178 0.8067 0.4178
vn -0.0047 0.8660 0.5000
vn -0.8660 0.5000 0.0056
vn -0.8067 0.4179 0.4178
vn -0.4179 0.8067 0.4178
vn -0.9960 0.0888 0.0066
vn -0.8659 0.0780 0.4941
vn -0.8067 0.4178 0.4178
vn -0.8660 0.4999 0.0056
vn -0.4179 0.4178 0.8067
vn -0.8067 0.4178 0.4179
vn -0.0056 -1.0000 -0.0066
vn -0.5000 -0.8660 -0.0056
vn -0.4178 -0.8067 -0.4178
vn -0.0047 -0.8660 -0.5000
vn -0.8660 -0.5000 -0.0056
vn -0.8067 -0.4179 -0.4178
vn -0.4179 -0.8067 -0.4178
vn -0.9960 -0.0888 -0.0066
vn -0.8659 -0.0780 -0.4941
vn -0.8067 -0.4178 -0.4178
vn -0.8660 -0.4999 -0.0056
vn -0.4941 -0.0780 -0.8659
vn -0.4179 -0.4178 -0.8067
vn -0.8067 -0.4178 -0.4179
vn -0.0056 -0.0888 -0.9960
vn -0.0048 -0.5000 -0.8660
vn -0.4178 -0.4178 -0.8067
vn -0.0048 -0.5001 -0.8660
vn -0.0048 -0.8660 -0.5001
vn -0.4178 -0.8067 -0.4179
vn -0.4178 -0.4179 -0.8067
vn -0.0056 1.0000 -0.0067
vn -0.0048 0.8660 -0.5000
vn -0.4178 0.8067 -0.4178
vn -0.4999 0.8660 -0.0056
vn -0.0048 0.8660 -0.5001
vn -0.0048 0.5001 -0.8660
vn -0.4178 0.4179 -0.8067
vn -0.4178 0.8067 -0.4179
vn -0.0056 0.0888 -0.9960
vn -0.4941 0.0780 -0.8659
vn -0.4178 0.4178 -0.8067
vn -0.0047 0.5000 -0.8660
vn -0.8659 0.0780 -0.4941
vn -0.8067 0.4178 -0.4179
vn -0.4179 0.4178 -0.8067
vn -0.9960 0.0888 -0.0066
vn -0.8660 0.5000 -0.0056
vn -0.8067 0.4178 -0.4178
vn -0.5000 0.8660 -0.0056
vn -0.4179 0.8067 -0.4178
vn -0.8067 0.4179 -0.4178
vn 0.0056 -1.0000 0.0066
vn 0.5000 -0.8660 0.0056
vn 0.4178 -0.8067 0.4178
vn 0.0047 -0.8660 0.5000
vn 0.8660 -0.5000 0.0056
vn 0.8067 -0.4179 0.4178
vn 0.4179 -0.8067 0.4178
vn 0.9960 -0.0888 0.0066
vn 0.8659 -0.0780 0.4941
vn 0.8067 -0.4178 0.4178
vn 0.8660 -0.4999 0.0056
vn 0.4941 -0.0780 0.8659
vn 0.4179 -0.4178 0.8067
vn 0.8067 -0.4178 0.4179
vn 0.0056 -0.0888 0.9960
vn 0.0048 -0.5000 0.8660
vn 0.4178 -0.4178 0.8067
vn 0.0048 -0.5001 0.8660
vn 0.0048 -0.8660 0.5001
vn 0.4178 -0.8067 0.4179
vn 0.4178 -0.4179 0.8067
vn 0.0056 1.0000 0.0067
vn 0.0048 0.8660 0.5000
vn 0.4178 0.8067 0.4178
vn 0.4999 0.8660 0.0056
vn 0.0048 0.8660 0.5001
vn 0.0048 0.5001 0.8660
vn 0.4178 0.4179 0.8067
vn 0.4178 0.8067 0.4179
vn 0.0056 0.0888 0.9960
vn 0.4941 0.0780 0.8659
vn 0.4178 0.4178 0.8067
vn 0.0047 0.5000 0.8660
vn 0.8659 0.0780 0.4941
vn 0.8067 0.4178 0.4179
vn 0.4179 0.4178 0.8067
vn 0.9960 0.0888 0.0066
vn 0.8660 0.5000 0.0056
vn 0.8067 0.4178 0.4178
vn 0.5000 0.8660 0.0056
vn 0.4179 0.8067 0.4178
vn 0.8067 0.4179 0.4178
vn 0.0056 -1.0000 -0.0067
vn 0.0048 -0.8660 -0.5000
vn 0.4178 -0.8067 -0.4178
vn 0.4999 -0.8660 -0.0056
vn 0.0048 -0.8660 -0.5001
vn 0.0048 -0.5001 -0.8660
vn 0.4178 -0.4179 -0.8067
vn 0.4178 -0.8067 -0.4179
vn 0.0056 -0.0888 -0.9960
vn 0.4941 -0.0780 -0.8659
vn 0.4178 -0.4178 -0.8067
vn 0.0047 -0.5000 -0.8660
vn 0.8659 -0.0780 -0.4941
vn 0.8067 -0.4178 -0.4179
vn 0.4179 -0.4178 -0.8067
vn 0.9960 -0.0888 -0.0066
vn 0.8660 -0.5000 -0.0056
vn 0.8067 -0.4178 -0.4178
vn 0.5000 -0.8660 -0.0056
vn 0.4179 -0.8067 -0.4178
vn 0.8067 -0.4179 -0.4178
vn 0.5000 0.8660 -0.0056
vn 0.4178 0.8067 -0.4178
vn 0.0047 0.8660 -0.5000
vn 0.8660 0.5000 -0.0056
vn 0.8067 0.4179 -0.4178
vn 0.4179 0.8067 -0.4178
vn 0.9960 0.0888 -0.0066
vn 0.8659 0.0780 -0.4941
vn 0.8067 0.4178 -0.4178
vn 0.8660 0.4999 -0.0056
vn 0.4941 0.0780 -0.8659
vn 0.4179 0.4178 -0.8067
vn 0.8067 0.4178 -0.4179
vn 0.0056 0.0888 -0.9960
vn 0.0048 0.5000 -0.8660
vn 0.4178 0.4178 -0.8067
vn 0.0048 0.5001 -0.8660
vn 0.0048 0.8660 -0.5001
vn 0.4178 0.8067 -0.4179
vn 0.4178 0.4179 -0.8067
vn -0.0057 -1.0000 -0.0066
vn -0.0057 -1.0000 0.0066
vn -0.4999 -0.8660 -0.0056
vn -0.8660 -0.4999 0.0056
vn -0.4941 -0.0779 0.8659
vn -0.4941 0.0779 0.8659
vn -0.8659 -0.0779 0.4941
vn -0.8659 0.0779 0.4941
vn -0.0057 1.0000 0.0066
vn -0.0057 1.0000 -0.0066
vn -0.4999 0.8660 0.0056
vn -0.8660 0.4999 -0.0056
vn -0.4941 0.0779 -0.8659
vn -0.4941 -0.0779 -0.8659
vn -0.8659 0.0779 -0.4941
vn -0.8659 -0.0779 -0.4941
vn -0.0056 -1.0000 -0.0067
vn -0.0048 -0.8660 -0.5000
vn 0.0048 -0.5000 -0.8660
vn -0.0055 -0.0888 -0.9960
vn 0.0055 -0.0888 -0.9960
vn 0.0056 1.0000 -0.0067
vn 0.0048 0.8660 -0.5000
vn -0.0048 0.5000 -0.8660
vn 0.0055 0.0888 -0.9960
vn -0.0055 0.0888 -0.9960
vn 0.8659 0.0779 -0.4941
vn 0.8659 -0.0779 -0.4941
vn 0.4941 0.0779 -0.8659
vn 0.4941 -0.0779 -0.8659
vn 0.0057 -1.0000 0.0066
vn 0.0057 -1.0000 -0.0066
vn 0.4999 -0.8660 0.0056
vn 0.8660 -0.4999 -0.0056
vn 0.0057 1.0000 -0.0066
vn 0.0057 1.0000 0.0066
vn 0.4999 0.8660 -0.0056
vn 0.8660 0.4999 0.0056
vn 0.4941 0.0779 0.8659
vn 0.4941 -0.0779 0.8659
vn 0.8659 0.0779 0.4941
vn 0.8659 -0.0779 0.4941
vn 0.0056 -1.0000 0.0067
vn 0.0048 -0.8660 0.5000
vn -0.0048 -0.5000 0.8660
vn 0.0055 -0.0888 0.9960
vn -0.0055 -0.0888 0.9960
vn -0.0056 1.0000 0.0067
vn -0.0048 0.8660 0.5000
vn 0.0048 0.5000 0.8660
vn -0.0055 0.0888 0.9960
vn 0.0055 0.0888 0.9960
vn 0.0056 -1.0000 -0.0066
vn -0.0056 -1.0000 0.0066
vt 0.458333 0.759868
vt 0.541667 0.759868
vt 0.541667 0.990132
vt 0.458333 0.990132
vt 0.458333 0.511539
vt 0.541667 0.511539
vt 0.541667 0.738462
vt 0.458333 0.738462
vt 0.634868 0.511538
vt 0.865132 0.511538
vt 0.865132 0.738462
vt 0.634868 0.738461
vt 0.458333 0.011538
vt 0.541667 0.011538
vt 0.541667 0.238462
vt 0.458333 0.238462
vt 0.458333 0.259868
vt 0.541667 0.259868
vt 0.541667 0.490132
vt 0.458333 0.490132
vt 0.134868 0.738461
vt 0.134868 0.744223
vt 0.130149 0.743979
vt 0.129941 0.738462
vt 0.134868 0.750000
vt 0.130149 0.750000
vt 0.458333 1.000000
vt 0.375000 0.994851
vt 0.375000 0.990132
vt 0.458333 0.000000
vt 0.458333 0.005777
vt 0.375000 0.006021
vt 0.375000 0.000000
vt 0.375000 0.011538
vt 0.125000 0.738461
vt 0.125000 0.743979
vt 0.583279 0.990132
vt 0.581518 0.994851
vt 0.541667 1.000000
vt 0.625000 0.990132
vt 0.625000 0.994851
vt 0.875000 0.738461
vt 0.869851 0.750000
vt 0.865132 0.750000
vt 0.625000 0.011538
vt 0.583279 0.011538
vt 0.581518 0.006021
vt 0.625000 0.000000
vt 0.541667 0.005777
vt 0.541667 0.000000
vt 0.581518 0.003039
vt 0.581518 0.997401
vt 0.134868 0.511538
vt 0.129941 0.511538
vt 0.130149 0.506021
vt 0.134868 0.505777
vt 0.125000 0.511538
vt 0.125000 0.506021
vt 0.458333 0.244223
vt 0.375000 0.243979
vt 0.375000 0.238462
vt 0.458333 0.254941
vt 0.375000 0.255149
vt 0.375000 0.259868
vt 0.134868 0.500000
vt 0.130149 0.500000
vt 0.865132 0.500000
vt 0.869851 0.500000
vt 0.875000 0.511538
vt 0.625000 0.259868
vt 0.583279 0.259868
vt 0.581518 0.255149
vt 0.625000 0.255149
vt 0.541667 0.254941
vt 0.541667 0.244223
vt 0.581518 0.243979
vt 0.583279 0.238462
vt 0.625000 0.238462
vt 0.625000 0.250000
vt 0.581518 0.252599
vt 0.365132 0.738462
vt 0.370059 0.738461
vt 0.369851 0.743979
vt 0.365132 0.744223
vt 0.416721 0.738461
vt 0.418482 0.743979
vt 0.458333 0.744223
vt 0.458333 0.754941
vt 0.375000 0.755149
vt 0.375000 0.759868
vt 0.365132 0.750000
vt 0.369851 0.750000
vt 0.372401 0.743979
vt 0.634868 0.750000
vt 0.630149 0.750000
vt 0.629941 0.738462
vt 0.625000 0.759868
vt 0.583279 0.759868
vt 0.581518 0.755149
vt 0.625000 0.755149
vt 0.541667 0.754941
vt 0.541667 0.744223
vt 0.581518 0.743979
vt 0.583279 0.738461
vt 0.581518 0.752599
vt 0.365132 0.511538
vt 0.365132 0.505777
vt 0.369851 0.506021
vt 0.370059 0.511538
vt 0.365132 0.500000
vt 0.369851 0.500000
vt 0.458333 0.495059
vt 0.375000 0.494851
vt 0.375000 0.490132
vt 0.458333 0.505777
vt 0.418482 0.506021
vt 0.416721 0.511538
vt 0.372401 0.506021
vt 0.629941 0.511538
vt 0.630149 0.506021
vt 0.634868 0.500000
vt 0.583279 0.511538
vt 0.581518 0.506021
vt 0.541667 0.505777
vt 0.541667 0.495059
vt 0.581518 0.494851
vt 0.583279 0.490132
vt 0.625000 0.490132
vt 0.603053 0.494851
vt 0.603053 0.506021
vt 0.581518 0.503039
s 0
usemtl Circuit_board
f 51/1/1 62/2/2 13/3/3 2/4/4
f 75/5/5 86/6/6 63/7/7 50/8/8
f 85/9/9 37/10/10 14/11/11 61/12/12
f 3/13/13 15/14/14 39/15/15 26/16/16
f 27/17/17 38/18/18 87/19/19 74/20/20
f 1/21/21 4/22/22 6/23/23 5/24/24
f 4/22/25 8/25/26 9/26/27 6/23/28
f 2/4/29 7/27/30 9/28/31 8/29/32
f 7/30/30 11/31/33 12/32/34 9/33/35
f 3/13/36 10/34/37 12/32/38 11/31/33
f 10/35/37 5/24/39 6/23/40 12/36/41
f 6/23/28 9/26/35 12/36/41
f 13/3/42 16/37/43 18/38/44 17/39/45
f 16/37/46 20/40/47 21/41/48 18/38/49
f 14/11/11 19/42/50 21/43/51 20/44/52
f 19/45/50 23/46/53 24/47/54 21/48/55
f 15/14/56 22/49/57 24/47/58 23/46/59
f 22/49/57 17/50/45 18/51/60 24/47/61
f 18/38/49 21/41/55 24/52/61
f 25/53/62 28/54/63 30/55/64 29/56/65
f 28/54/63 32/57/66 33/58/67 30/55/68
f 26/16/69 31/59/70 33/60/71 32/61/72
f 31/59/70 35/62/73 36/63/74 33/60/75
f 27/17/76 34/64/77 36/63/78 35/62/73
f 34/65/79 29/56/80 30/55/81 36/66/82
f 30/55/68 33/58/75 36/66/82
f 37/10/83 40/67/84 42/68/85 41/69/86
f 40/70/87 44/71/88 45/72/89 42/73/90
f 38/18/91 43/74/92 45/72/93 44/71/94
f 43/74/92 47/75/95 48/76/96 45/72/97
f 39/15/98 46/77/99 48/76/100 47/75/95
f 46/77/99 41/78/101 42/79/102 48/76/103
f 42/73/90 45/72/97 48/80/103
f 49/81/104 52/82/105 54/83/106 53/84/107
f 52/82/105 56/85/108 57/86/109 54/83/110
f 50/8/111 55/87/112 57/86/113 56/85/114
f 55/87/112 59/88/115 60/89/116 57/86/117
f 51/1/118 58/90/119 60/89/120 59/88/115
f 58/91/121 53/84/122 54/83/123 60/92/124
f 54/83/110 57/93/117 60/92/124
f 61/12/125 64/94/126 66/95/127 65/96/128
f 64/97/129 68/98/130 69/99/131 66/100/132
f 62/2/133 67/101/134 69/99/135 68/98/136
f 67/101/134 71/102/137 72/103/138 69/99/139
f 63/7/140 70/104/141 72/103/142 71/102/137
f 70/104/141 65/96/143 66/95/144 72/103/145
f 66/100/132 69/99/139 72/105/145
f 73/106/146 76/107/147 78/108/148 77/109/149
f 76/107/150 80/110/151 81/111/152 78/108/153
f 74/20/154 79/112/155 81/113/156 80/114/157
f 79/112/155 83/115/158 84/116/159 81/113/160
f 75/5/161 82/117/162 84/116/163 83/115/158
f 82/117/162 77/109/164 78/108/165 84/116/166
f 78/108/153 81/111/160 84/118/166
f 85/9/9 88/119/167 90/120/168 89/121/169
f 88/119/167 92/122/170 93/123/171 90/120/172
f 86/6/173 91/124/174 93/123/175 92/122/176
f 91/124/174 95/125/177 96/126/178 93/123/179
f 87/19/180 94/127/181 96/126/182 95/125/177
f 94/127/183 89/128/184 90/129/185 96/126/186
f 90/130/172 93/123/179 96/131/186
f 25/53/187 1/21/188 5/24/24 28/54/189
f 28/54/63 5/24/39 10/35/37 32/57/66
f 32/61/72 10/34/190 3/13/36 26/16/69
f 2/4/29 13/3/3 17/39/45 7/27/191
f 7/30/30 17/50/192 22/49/57 11/31/193
f 11/31/33 22/49/194 15/14/14 3/13/13
f 14/11/195 37/10/196 41/69/86 19/42/197
f 19/45/50 41/78/101 46/77/99 23/46/53
f 23/46/59 46/77/198 39/15/98 15/14/56
f 38/18/91 27/17/17 35/62/73 43/74/199
f 43/74/92 35/62/200 31/59/70 47/75/201
f 47/75/95 31/59/202 26/16/16 39/15/15
f 73/106/146 25/53/203 29/56/204 76/107/147
f 76/107/150 29/56/80 34/65/79 80/110/151
f 80/114/205 34/64/77 27/17/206 74/20/207
f 37/10/83 85/9/208 89/121/209 40/67/84
f 40/70/87 89/128/184 94/127/183 44/71/88
f 44/71/210 94/127/181 87/19/211 38/18/212
f 86/6/6 75/5/5 83/115/158 91/124/213
f 91/124/174 83/115/214 79/112/155 95/125/215
f 95/125/177 79/112/216 74/20/154 87/19/19
f 49/81/217 73/106/218 77/109/149 52/82/219
f 52/82/105 77/109/164 82/117/162 56/85/108
f 56/85/114 82/117/220 75/5/161 50/8/111
f 85/9/221 61/12/222 65/96/128 88/119/223
f 88/119/167 65/96/143 70/104/141 92/122/170
f 92/122/176 70/104/224 63/7/140 86/6/173
f 62/2/133 51/1/1 59/88/115 67/101/225
f 67/101/134 59/88/226 55/87/112 71/102/227
f 71/102/137 55/87/228 50/8/8 63/7/7
f 1/21/21 49/81/229 53/84/230 4/22/22
f 4/22/25 53/84/122 58/91/121 8/25/26
f 8/29/231 58/90/119 51/1/232 2/4/233
f 61/12/125 14/11/234 20/44/235 64/94/126
f 64/97/129 20/40/47 16/37/46 68/98/130
f 68/98/236 16/37/43 13/3/237 62/2/238
f 25/53/62 73/106/239 49/81/104 1/21/240
o ESC_MOSFET.002
v 0.096732 0.310500 -0.023615
v 0.096732 0.311500 -0.022615
v 0.095732 0.311500 -0.023615
v 0.096732 0.310634 -0.023116
v 0.096233 0.310634 -0.023615
v 0.096254 0.310763 -0.023137
v 0.096233 0.311500 -0.022749
v 0.096732 0.311001 -0.022749
v 0.096254 0.311022 -0.022878
v 0.095866 0.311001 -0.023615
v 0.095866 0.311500 -0.023116
v 0.095995 0.311022 -0.023137
v 0.096732 0.316500 -0.022615
v 0.096732 0.317500 -0.023615
v 0.095732 0.316500 -0.023615
v 0.096732 0.316999 -0.022749
v 0.096233 0.316500 -0.022749
v 0.096254 0.316978 -0.022878
v 0.096233 0.317366 -0.023615
v 0.096732 0.317366 -0.023116
v 0.096254 0.317237 -0.023137
v 0.095866 0.316500 -0.023116
v 0.095866 0.316999 -0.023615
v 0.095995 0.316978 -0.023137
v 0.096732 0.310500 -0.057615
v 0.095732 0.311500 -0.057615
v 0.096732 0.311500 -0.058615
v 0.096233 0.310634 -0.057615
v 0.096732 0.310634 -0.058114
v 0.096254 0.310763 -0.058093
v 0.095866 0.311500 -0.058114
v 0.095866 0.311001 -0.057615
v 0.095995 0.311022 -0.058093
v 0.096732 0.311001 -0.058481
v 0.096233 0.311500 -0.058481
v 0.096254 0.311022 -0.058352
v 0.096732 0.317500 -0.057615
v 0.096732 0.316500 -0.058615
v 0.095732 0.316500 -0.057615
v 0.096732 0.317366 -0.058114
v 0.096233 0.317366 -0.057615
v 0.096254 0.317237 -0.058093
v 0.096233 0.316500 -0.058481
v 0.096732 0.316999 -0.058481
v 0.096254 0.316978 -0.058352
v 0.095866 0.316999 -0.057615
v 0.095866 0.316500 -0.058114
v 0.095995 0.316978 -0.058093
v 0.106732 0.310500 -0.023615
v 0.107732 0.311500 -0.023615
v 0.106732 0.311500 -0.022615
v 0.107231 0.310634 -0.023615
v 0.106732 0.310634 -0.023116
v 0.107210 0.310763 -0.023137
v 0.107598 0.311500 -0.023116
v 0.107598 0.311001 -0.023615
v 0.107469 0.311022 -0.023137
v 0.106732 0.311001 -0.022749
v 0.107231 0.311500 -0.022749
v 0.107210 0.311022 -0.022878
v 0.106732 0.317500 -0.023615
v 0.106732 0.316500 -0.022615
v 0.107732 0.316500 -0.023615
v 0.106732 0.317366 -0.023116
v 0.107231 0.317366 -0.023615
v 0.107210 0.317237 -0.023137
v 0.107231 0.316500 -0.022749
v 0.106732 0.316999 -0.022749
v 0.107210 0.316978 -0.022878
v 0.107598 0.316999 -0.023615
v 0.107598 0.316500 -0.023116
v 0.107469 0.316978 -0.023137
v 0.106732 0.310500 -0.057615
v 0.106732 0.311500 -0.058615
v 0.107732 0.311500 -0.057615
v 0.106732 0.310634 -0.058114
v 0.107231 0.310634 -0.057615
v 0.107210 0.310763 -0.058093
v 0.107231 0.311500 -0.058481
v 0.106732 0.311001 -0.058481
v 0.107210 0.311022 -0.058352
v 0.107598 0.311001 -0.057615
v 0.107598 0.311500 -0.058114
v 0.107469 0.311022 -0.058093
v 0.106732 0.317500 -0.057615
v 0.107732 0.316500 -0.057615
v 0.106732 0.316500 -0.058615
v 0.107231 0.317366 -0.057615
v 0.106732 0.317366 -0.058114
v 0.107210 0.317237 -0.058093
v 0.107598 0.316500 -0.058114
v 0.107598 0.316999 -0.057615
v 0.107469 0.316978 -0.058093
v 0.106732 0.316999 -0.058481
v 0.107231 0.316500 -0.058481
v 0.107210 0.316978 -0.058352
vn 0.0127 -0.0242 0.9996
vn 0.0127 0.0242 0.9996
vn -0.0127 0.0242 0.9996
vn -0.0127 -0.0242 0.9996
vn 0.9997 -0.0243 -0.0039
vn 0.9997 0.0243 -0.0039
vn 0.9997 0.0243 0.0039
vn 0.9997 -0.0243 0.0039
vn 0.0127 0.9999 -0.0039
vn -0.0127 0.9999 -0.0039
vn -0.0127 0.9999 0.0039
vn 0.0127 0.9999 0.0039
vn -0.9997 -0.0243 0.0039
vn -0.9997 0.0243 0.0039
vn -0.9997 0.0243 -0.0039
vn -0.9997 -0.0243 -0.0039
vn -0.0127 -0.0242 -0.9996
vn -0.0127 0.0242 -0.9996
vn 0.0127 0.0242 -0.9996
vn 0.0127 -0.0242 -0.9996
vn -0.0127 -0.9999 0.0039
vn -0.0108 -0.8662 0.4996
vn -0.4473 -0.7745 0.4473
vn -0.5001 -0.8660 0.0033
vn -0.0108 -0.8661 0.4997
vn -0.0109 -0.4997 0.8662
vn -0.4473 -0.4474 0.7744
vn -0.4473 -0.7745 0.4474
vn -0.0127 -0.0243 0.9996
vn -0.4990 -0.0208 0.8664
vn -0.4473 -0.4473 0.7745
vn -0.0108 -0.4996 0.8662
vn -0.8664 -0.0208 0.4990
vn -0.7744 -0.4473 0.4474
vn -0.4474 -0.4473 0.7745
vn -0.8660 -0.5001 0.0033
vn -0.7745 -0.4473 0.4474
vn -0.8664 -0.0208 0.4989
vn -0.8659 -0.5001 0.0033
vn -0.5001 -0.8659 0.0033
vn -0.4474 -0.7744 0.4473
vn -0.7745 -0.4474 0.4473
vn -0.4474 -0.7744 0.4474
vn -0.4474 -0.4474 0.7744
vn -0.7744 -0.4474 0.4474
vn -0.0127 0.0243 0.9996
vn -0.0108 0.4996 0.8662
vn -0.4473 0.4473 0.7745
vn -0.4989 0.0208 0.8664
vn -0.0108 0.4997 0.8661
vn -0.0109 0.8662 0.4997
vn -0.4473 0.7744 0.4474
vn -0.4473 0.4474 0.7745
vn -0.0128 0.9999 0.0039
vn -0.5001 0.8660 0.0033
vn -0.4473 0.7745 0.4473
vn -0.0108 0.8662 0.4996
vn -0.5002 0.8659 0.0033
vn -0.8660 0.5001 0.0033
vn -0.7744 0.4474 0.4473
vn -0.4474 0.7745 0.4473
vn -0.8664 0.0208 0.4990
vn -0.7745 0.4473 0.4473
vn -0.4990 0.0208 0.8664
vn -0.4474 0.4473 0.7744
vn -0.7745 0.4473 0.4474
vn -0.4474 0.4474 0.7744
vn -0.4474 0.7744 0.4474
vn -0.7744 0.4474 0.4474
vn -0.0128 -0.9999 -0.0039
vn -0.5001 -0.8660 -0.0033
vn -0.4473 -0.7745 -0.4473
vn -0.0108 -0.8662 -0.4996
vn -0.5002 -0.8659 -0.0033
vn -0.8660 -0.5001 -0.0033
vn -0.7744 -0.4474 -0.4473
vn -0.4474 -0.7745 -0.4473
vn -0.8664 -0.0208 -0.4990
vn -0.7745 -0.4473 -0.4473
vn -0.4990 -0.0208 -0.8664
vn -0.4474 -0.4473 -0.7744
vn -0.7745 -0.4473 -0.4474
vn -0.0127 -0.0243 -0.9996
vn -0.0108 -0.4996 -0.8662
vn -0.4473 -0.4473 -0.7745
vn -0.4989 -0.0208 -0.8664
vn -0.0108 -0.4997 -0.8661
vn -0.0109 -0.8662 -0.4997
vn -0.4473 -0.7744 -0.4474
vn -0.4473 -0.4474 -0.7745
vn -0.4474 -0.7744 -0.4473
vn -0.7744 -0.4473 -0.4474
vn -0.4474 -0.4474 -0.7744
vn -0.0108 0.8662 -0.4996
vn -0.4473 0.7745 -0.4473
vn -0.5001 0.8660 -0.0033
vn -0.0108 0.8661 -0.4997
vn -0.0109 0.4997 -0.8662
vn -0.4473 0.4474 -0.7744
vn -0.4473 0.7745 -0.4474
vn -0.0127 0.0243 -0.9996
vn -0.4990 0.0208 -0.8664
vn -0.4473 0.4473 -0.7745
vn -0.0108 0.4996 -0.8662
vn -0.8664 0.0208 -0.4990
vn -0.7744 0.4473 -0.4474
vn -0.4474 0.4473 -0.7745
vn -0.8660 0.5001 -0.0033
vn -0.7745 0.4473 -0.4474
vn -0.8664 0.0208 -0.4989
vn -0.8659 0.5001 -0.0033
vn -0.5001 0.8659 -0.0033
vn -0.4474 0.7744 -0.4473
vn -0.7745 0.4474 -0.4473
vn -0.4474 0.7744 -0.4474
vn -0.4474 0.4474 -0.7744
vn -0.7744 0.4474 -0.4474
vn 0.0128 -0.9999 0.0039
vn 0.5001 -0.8660 0.0033
vn 0.4473 -0.7745 0.4473
vn 0.0108 -0.8662 0.4996
vn 0.5002 -0.8659 0.0033
vn 0.8660 -0.5001 0.0033
vn 0.7744 -0.4474 0.4473
vn 0.4474 -0.7745 0.4473
vn 0.8664 -0.0208 0.4990
vn 0.7745 -0.4473 0.4473
vn 0.4990 -0.0208 0.8664
vn 0.4474 -0.4473 0.7744
vn 0.7745 -0.4473 0.4474
vn 0.0127 -0.0243 0.9996
vn 0.0108 -0.4996 0.8662
vn 0.4473 -0.4473 0.7745
vn 0.4989 -0.0208 0.8664
vn 0.0108 -0.4997 0.8661
vn 0.0109 -0.8662 0.4997
vn 0.4473 -0.7744 0.4474
vn 0.4473 -0.4474 0.7745
vn 0.4474 -0.7744 0.4473
vn 0.7744 -0.4473 0.4474
vn 0.4474 -0.4474 0.7744
vn 0.0108 0.8662 0.4996
vn 0.4473 0.7745 0.4473
vn 0.5001 0.8660 0.0033
vn 0.0108 0.8661 0.4997
vn 0.0109 0.4997 0.8662
vn 0.4473 0.4474 0.7744
vn 0.4473 0.7745 0.4474
vn 0.0127 0.0243 0.9996
vn 0.4990 0.0208 0.8664
vn 0.4473 0.4473 0.7745
vn 0.0108 0.4996 0.8662
vn 0.8664 0.0208 0.4990
vn 0.7744 0.4473 0.4474
vn 0.4474 0.4473 0.7745
vn 0.8660 0.5001 0.0033
vn 0.7745 0.4473 0.4474
vn 0.8664 0.0208 0.4989
vn 0.8659 0.5001 0.0033
vn 0.5001 0.8659 0.0033
vn 0.4474 0.7744 0.4473
vn 0.7745 0.4474 0.4473
vn 0.4474 0.7744 0.4474
vn 0.4474 0.4474 0.7744
vn 0.7744 0.4474 0.4474
vn 0.0127 -0.9999 -0.0039
vn 0.0108 -0.8662 -0.4996
vn 0.4473 -0.7745 -0.4473
vn 0.5001 -0.8660 -0.0033
vn 0.0108 -0.8661 -0.4997
vn 0.0109 -0.4997 -0.8662
vn 0.4473 -0.4474 -0.7744
vn 0.4473 -0.7745 -0.4474
vn 0.0127 -0.0243 -0.9996
vn 0.4990 -0.0208 -0.8664
vn 0.4473 -0.4473 -0.7745
vn 0.0108 -0.4996 -0.8662
vn 0.8664 -0.0208 -0.4990
vn 0.7744 -0.4473 -0.4474
vn 0.4474 -0.4473 -0.7745
vn 0.8660 -0.5001 -0.0033
vn 0.7745 -0.4473 -0.4474
vn 0.8664 -0.0208 -0.4989
vn 0.8659 -0.5001 -0.0033
vn 0.5001 -0.8659 -0.0033
vn 0.4474 -0.7744 -0.4473
vn 0.7745 -0.4474 -0.4473
vn 0.4474 -0.7744 -0.4474
vn 0.4474 -0.4474 -0.7744
vn 0.7744 -0.4474 -0.4474
vn 0.0128 0.9999 -0.0039
vn 0.5001 0.8660 -0.0033
vn 0.4473 0.7745 -0.4473
vn 0.0108 0.8662 -0.4996
vn 0.5002 0.8659 -0.0033
vn 0.8660 0.5001 -0.0033
vn 0.7744 0.4474 -0.4473
vn 0.4474 0.7745 -0.4473
vn 0.8664 0.0208 -0.4990
vn 0.7745 0.4473 -0.4473
vn 0.4990 0.0208 -0.8664
vn 0.4474 0.4473 -0.7744
vn 0.7745 0.4473 -0.4474
vn 0.0127 0.0243 -0.9996
vn 0.0108 0.4996 -0.8662
vn 0.4473 0.4473 -0.7745
vn 0.4989 0.0208 -0.8664
vn 0.0108 0.4997 -0.8661
vn 0.0109 0.8662 -0.4997
vn 0.4473 0.7744 -0.4474
vn 0.4473 0.4474 -0.7745
vn 0.4474 0.7744 -0.4473
vn 0.7744 0.4473 -0.4474
vn 0.4474 0.4474 -0.7744
vn -0.0127 -0.9999 -0.0039
vn -0.5001 -0.8659 -0.0033
vn -0.8659 -0.5001 -0.0033
vn -0.0128 -0.0243 0.9996
vn -0.0128 0.0243 0.9996
vn -0.4990 0.0207 0.8664
vn -0.4990 -0.0207 0.8664
vn -0.4990 -0.0207 0.8663
vn -0.4990 0.0207 0.8663
vn -0.8663 0.0207 0.4990
vn -0.8663 -0.0207 0.4990
vn -0.8664 -0.0207 0.4989
vn -0.8664 0.0207 0.4989
vn -0.5001 0.8659 0.0033
vn -0.8659 0.5001 0.0033
vn -0.0128 0.0243 -0.9996
vn -0.0128 -0.0243 -0.9996
vn -0.4989 -0.0207 -0.8664
vn -0.4989 0.0207 -0.8664
vn -0.4990 0.0207 -0.8663
vn -0.4990 -0.0207 -0.8663
vn -0.8663 -0.0207 -0.4990
vn -0.8663 0.0207 -0.4990
vn -0.8664 0.0207 -0.4989
vn -0.8664 -0.0207 -0.4989
vn 0.0108 -0.8662 -0.4997
vn -0.0108 -0.8662 -0.4997
vn 0.0108 -0.4997 -0.8661
vn -0.0108 0.8662 -0.4997
vn 0.0108 0.8662 -0.4997
vn -0.0108 0.4997 -0.8661
vn 0.8664 -0.0207 -0.4989
vn 0.8664 0.0207 -0.4989
vn 0.8663 0.0207 -0.4990
vn 0.8663 -0.0207 -0.4990
vn 0.4990 -0.0207 -0.8663
vn 0.4990 0.0207 -0.8663
vn 0.4989 0.0207 -0.8664
vn 0.4989 -0.0207 -0.8664
vn 0.0128 -0.0243 -0.9996
vn 0.0128 0.0243 -0.9996
vn 0.0127 -0.9999 0.0039
vn 0.5001 -0.8659 0.0033
vn 0.8659 -0.5001 0.0033
vn 0.5001 0.8659 -0.0033
vn 0.8659 0.5001 -0.0033
vn 0.0128 0.0243 0.9996
vn 0.0128 -0.0243 0.9996
vn 0.4989 -0.0207 0.8664
vn 0.4989 0.0207 0.8664
vn 0.4990 0.0207 0.8663
vn 0.4990 -0.0207 0.8663
vn 0.8663 -0.0207 0.4990
vn 0.8663 0.0207 0.4990
vn 0.8664 0.0207 0.4989
vn 0.8664 -0.0207 0.4989
vn -0.0108 -0.8662 0.4997
vn 0.0108 -0.8662 0.4997
vn -0.0108 -0.4997 0.8661
vn 0.0108 0.8662 0.4997
vn -0.0108 0.8662 0.4997
vn 0.0108 0.4997 0.8661
vt 0.410714 0.770833
vt 0.589286 0.770833
vt 0.589286 0.979167
vt 0.410714 0.979167
vt 0.410714 0.506944
vt 0.589286 0.506944
vt 0.589286 0.743056
vt 0.410714 0.743056
vt 0.645833 0.506944
vt 0.854167 0.506944
vt 0.854167 0.743056
vt 0.645833 0.743056
vt 0.410714 0.006944
vt 0.589286 0.006944
vt 0.589286 0.243056
vt 0.410714 0.243056
vt 0.410714 0.270833
vt 0.589286 0.270833
vt 0.589286 0.479167
vt 0.410714 0.479167
vt 0.145833 0.743056
vt 0.145833 0.746523
vt 0.135871 0.746376
vt 0.135430 0.743056
vt 0.145833 0.750000
vt 0.135871 0.750000
vt 0.410714 1.000000
vt 0.375000 0.989129
vt 0.375000 0.979167
vt 0.410714 0.000000
vt 0.410714 0.003477
vt 0.375000 0.003624
vt 0.375000 0.000000
vt 0.375000 0.006944
vt 0.125000 0.743056
vt 0.125000 0.746376
vt 0.607119 0.979167
vt 0.606365 0.989129
vt 0.589286 1.000000
vt 0.625000 0.979167
vt 0.625000 0.989129
vt 0.875000 0.743056
vt 0.864129 0.750000
vt 0.854167 0.750000
vt 0.625000 0.006944
vt 0.607119 0.006944
vt 0.606365 0.003624
vt 0.625000 0.000000
vt 0.589286 0.003477
vt 0.589286 0.000000
vt 0.606365 0.001829
vt 0.606365 0.994513
vt 0.145833 0.506944
vt 0.135430 0.506944
vt 0.135871 0.503624
vt 0.145833 0.503477
vt 0.125000 0.506944
vt 0.125000 0.503623
vt 0.410714 0.246523
vt 0.375000 0.246376
vt 0.375000 0.243056
vt 0.410714 0.260430
vt 0.375000 0.260871
vt 0.375000 0.270833
vt 0.145833 0.500000
vt 0.135871 0.500000
vt 0.854167 0.500000
vt 0.864129 0.500000
vt 0.875000 0.506944
vt 0.625000 0.270833
vt 0.607119 0.270833
vt 0.606365 0.260871
vt 0.625000 0.260871
vt 0.589286 0.260430
vt 0.589286 0.246523
vt 0.606365 0.246376
vt 0.607119 0.243056
vt 0.625000 0.243056
vt 0.625000 0.250000
vt 0.606365 0.255487
vt 0.354167 0.743056
vt 0.364570 0.743056
vt 0.364129 0.746376
vt 0.354167 0.746523
vt 0.392881 0.743056
vt 0.393635 0.746376
vt 0.410714 0.746523
vt 0.410714 0.760430
vt 0.375000 0.760871
vt 0.375000 0.770833
vt 0.354167 0.750000
vt 0.364129 0.750000
vt 0.369513 0.746376
vt 0.645833 0.750000
vt 0.635871 0.750000
vt 0.635430 0.743056
vt 0.625000 0.770833
vt 0.607119 0.770833
vt 0.606365 0.760871
vt 0.625000 0.760871
vt 0.589286 0.760430
vt 0.589286 0.746523
vt 0.606365 0.746376
vt 0.607119 0.743055
vt 0.606365 0.755487
vt 0.354167 0.506944
vt 0.354167 0.503477
vt 0.364129 0.503623
vt 0.364570 0.506944
vt 0.354167 0.500000
vt 0.364129 0.500000
vt 0.410714 0.489570
vt 0.375000 0.489129
vt 0.375000 0.479167
vt 0.410714 0.503477
vt 0.393635 0.503624
vt 0.392881 0.506944
vt 0.369513 0.503624
vt 0.635430 0.506944
vt 0.635871 0.503624
vt 0.645833 0.500000
vt 0.607119 0.506944
vt 0.606365 0.503624
vt 0.589286 0.503477
vt 0.589286 0.489570
vt 0.606365 0.489129
vt 0.607119 0.479167
vt 0.625000 0.479167
vt 0.615594 0.489129
vt 0.615594 0.503624
vt 0.606365 0.501829
s 0
usemtl Anodized_graphite
f 147/132/241 158/133/242 109/134/243 98/135/244
f 171/136/245 182/137/246 159/138/247 146/139/248
f 181/140/249 133/141/250 110/142/251 157/143/252
f 99/144/253 111/145/254 135/146/255 122/147/256
f 123/148/257 134/149/258 183/150/259 170/151/260
f 97/152/261 100/153/262 102/154/263 101/155/264
f 100/153/265 104/156/266 105/157/267 102/154/268
f 98/135/269 103/158/270 105/159/271 104/160/272
f 103/161/270 107/162/273 108/163/274 105/164/275
f 99/144/253 106/165/276 108/163/277 107/162/278
f 106/166/279 101/155/280 102/154/281 108/167/282
f 102/154/283 105/157/284 108/167/285
f 109/134/286 112/168/287 114/169/288 113/170/289
f 112/168/290 116/171/291 117/172/292 114/169/293
f 110/142/294 115/173/295 117/174/296 116/175/297
f 115/176/298 119/177/299 120/178/300 117/179/301
f 111/145/254 118/180/302 120/178/303 119/177/299
f 118/180/302 113/181/304 114/182/305 120/178/306
f 114/169/307 117/172/308 120/183/309
f 121/184/310 124/185/311 126/186/312 125/187/313
f 124/185/314 128/188/315 129/189/316 126/186/317
f 122/147/256 127/190/318 129/191/319 128/192/315
f 127/190/318 131/193/320 132/194/321 129/191/322
f 123/148/323 130/195/324 132/194/325 131/193/326
f 130/196/327 125/187/328 126/186/329 132/197/330
f 126/186/331 129/189/332 132/197/333
f 133/141/250 136/198/334 138/199/335 137/200/336
f 136/201/337 140/202/338 141/203/339 138/204/340
f 134/149/341 139/205/342 141/203/343 140/202/344
f 139/205/342 143/206/345 144/207/346 141/203/347
f 135/146/255 142/208/348 144/207/349 143/206/350
f 142/208/351 137/209/352 138/210/353 144/207/354
f 138/204/355 141/203/356 144/211/357
f 145/212/358 148/213/359 150/214/360 149/215/361
f 148/213/362 152/216/363 153/217/364 150/214/365
f 146/139/248 151/218/366 153/217/367 152/216/363
f 151/218/366 155/219/368 156/220/369 153/217/370
f 147/132/371 154/221/372 156/220/373 155/219/374
f 154/222/375 149/215/376 150/214/377 156/223/378
f 150/214/379 153/224/380 156/223/381
f 157/143/252 160/225/382 162/226/383 161/227/384
f 160/228/385 164/229/386 165/230/387 162/231/388
f 158/133/389 163/232/390 165/230/391 164/229/392
f 163/232/390 167/233/393 168/234/394 165/230/395
f 159/138/247 166/235/396 168/234/397 167/233/398
f 166/235/399 161/227/400 162/226/401 168/234/402
f 162/231/403 165/230/404 168/236/405
f 169/237/406 172/238/407 174/239/408 173/240/409
f 172/238/410 176/241/411 177/242/412 174/239/413
f 170/151/414 175/243/415 177/244/416 176/245/417
f 175/243/415 179/246/418 180/247/419 177/244/420
f 171/136/245 178/248/421 180/247/422 179/246/423
f 178/248/424 173/240/425 174/239/426 180/247/427
f 174/239/428 177/242/429 180/249/430
f 181/140/431 184/250/432 186/251/433 185/252/434
f 184/250/435 188/253/436 189/254/437 186/251/438
f 182/137/246 187/255/439 189/254/440 188/253/436
f 187/255/439 191/256/441 192/257/442 189/254/443
f 183/150/444 190/258/445 192/257/446 191/256/447
f 190/258/448 185/259/449 186/260/450 192/257/451
f 186/261/452 189/254/453 192/262/454
f 121/184/455 97/152/261 101/155/264 124/185/311
f 124/185/456 101/155/280 106/166/279 128/188/457
f 128/192/315 106/165/276 99/144/253 122/147/256
f 98/135/458 109/134/459 113/170/460 103/158/461
f 103/161/462 113/181/463 118/180/464 107/162/465
f 107/162/466 118/180/467 111/145/254 99/144/253
f 110/142/251 133/141/250 137/200/336 115/173/295
f 115/176/468 137/209/352 142/208/351 119/177/469
f 119/177/299 142/208/348 135/146/255 111/145/254
f 134/149/470 123/148/471 131/193/472 139/205/473
f 139/205/474 131/193/475 127/190/476 143/206/477
f 143/206/478 127/190/479 122/147/256 135/146/255
f 169/237/406 121/184/455 125/187/313 172/238/407
f 172/238/480 125/187/481 130/196/327 176/241/482
f 176/245/417 130/195/324 123/148/323 170/151/414
f 133/141/250 181/140/249 185/252/434 136/198/334
f 136/201/483 185/259/484 190/258/448 140/202/485
f 140/202/344 190/258/445 183/150/444 134/149/341
f 182/137/246 171/136/245 179/246/486 187/255/487
f 187/255/488 179/246/489 175/243/490 191/256/491
f 191/256/492 175/243/493 170/151/494 183/150/495
f 145/212/496 169/237/406 173/240/409 148/213/359
f 148/213/497 173/240/425 178/248/424 152/216/498
f 152/216/363 178/248/421 171/136/245 146/139/248
f 181/140/249 157/143/252 161/227/384 184/250/432
f 184/250/499 161/227/400 166/235/399 188/253/500
f 188/253/436 166/235/396 159/138/247 182/137/246
f 158/133/501 147/132/502 155/219/503 163/232/504
f 163/232/505 155/219/506 151/218/507 167/233/508
f 167/233/509 151/218/510 146/139/248 159/138/247
f 97/152/261 145/212/496 149/215/361 100/153/262
f 100/153/511 149/215/512 154/222/375 104/156/513
f 104/160/272 154/221/372 147/132/371 98/135/269
f 157/143/252 110/142/251 116/175/297 160/225/382
f 160/228/514 116/171/515 112/168/290 164/229/516
f 164/229/392 112/168/287 109/134/286 158/133/389
f 121/184/455 169/237/406 145/212/496 97/152/261
o ESC_MOSFET.001
v 0.074732 0.310500 -0.023615
v 0.074732 0.311500 -0.022615
v 0.073732 0.311500 -0.023615
v 0.074732 0.310634 -0.023116
v 0.074233 0.310634 -0.023615
v 0.074254 0.310763 -0.023137
v 0.074233 0.311500 -0.022749
v 0.074732 0.311001 -0.022749
v 0.074254 0.311022 -0.022878
v 0.073866 0.311001 -0.023615
v 0.073866 0.311500 -0.023116
v 0.073995 0.311022 -0.023137
v 0.074732 0.316500 -0.022615
v 0.074732 0.317500 -0.023615
v 0.073732 0.316500 -0.023615
v 0.074732 0.316999 -0.022749
v 0.074233 0.316500 -0.022749
v 0.074254 0.316978 -0.022878
v 0.074233 0.317366 -0.023615
v 0.074732 0.317366 -0.023116
v 0.074254 0.317237 -0.023137
v 0.073866 0.316500 -0.023116
v 0.073866 0.316999 -0.023615
v 0.073995 0.316978 -0.023137
v 0.074732 0.310500 -0.057615
v 0.073732 0.311500 -0.057615
v 0.074732 0.311500 -0.058615
v 0.074233 0.310634 -0.057615
v 0.074732 0.310634 -0.058114
v 0.074254 0.310763 -0.058093
v 0.073866 0.311500 -0.058114
v 0.073866 0.311001 -0.057615
v 0.073995 0.311022 -0.058093
v 0.074732 0.311001 -0.058481
v 0.074233 0.311500 -0.058481
v 0.074254 0.311022 -0.058352
v 0.074732 0.317500 -0.057615
v 0.074732 0.316500 -0.058615
v 0.073732 0.316500 -0.057615
v 0.074732 0.317366 -0.058114
v 0.074233 0.317366 -0.057615
v 0.074254 0.317237 -0.058093
v 0.074233 0.316500 -0.058481
v 0.074732 0.316999 -0.058481
v 0.074254 0.316978 -0.058352
v 0.073866 0.316999 -0.057615
v 0.073866 0.316500 -0.058114
v 0.073995 0.316978 -0.058093
v 0.084732 0.310500 -0.023615
v 0.085732 0.311500 -0.023615
v 0.084732 0.311500 -0.022615
v 0.085231 0.310634 -0.023615
v 0.084732 0.310634 -0.023116
v 0.085210 0.310763 -0.023137
v 0.085598 0.311500 -0.023116
v 0.085598 0.311001 -0.023615
v 0.085469 0.311022 -0.023137
v 0.084732 0.311001 -0.022749
v 0.085231 0.311500 -0.022749
v 0.085210 0.311022 -0.022878
v 0.084732 0.317500 -0.023615
v 0.084732 0.316500 -0.022615
v 0.085732 0.316500 -0.023615
v 0.084732 0.317366 -0.023116
v 0.085231 0.317366 -0.023615
v 0.085210 0.317237 -0.023137
v 0.085231 0.316500 -0.022749
v 0.084732 0.316999 -0.022749
v 0.085210 0.316978 -0.022878
v 0.085598 0.316999 -0.023615
v 0.085598 0.316500 -0.023116
v 0.085469 0.316978 -0.023137
v 0.084732 0.310500 -0.057615
v 0.084732 0.311500 -0.058615
v 0.085732 0.311500 -0.057615
v 0.084732 0.310634 -0.058114
v 0.085231 0.310634 -0.057615
v 0.085210 0.310763 -0.058093
v 0.085231 0.311500 -0.058481
v 0.084732 0.311001 -0.058481
v 0.085210 0.311022 -0.058352
v 0.085598 0.311001 -0.057615
v 0.085598 0.311500 -0.058114
v 0.085469 0.311022 -0.058093
v 0.084732 0.317500 -0.057615
v 0.085732 0.316500 -0.057615
v 0.084732 0.316500 -0.058615
v 0.085231 0.317366 -0.057615
v 0.084732 0.317366 -0.058114
v 0.085210 0.317237 -0.058093
v 0.085598 0.316500 -0.058114
v 0.085598 0.316999 -0.057615
v 0.085469 0.316978 -0.058093
v 0.084732 0.316999 -0.058481
v 0.085231 0.316500 -0.058481
v 0.085210 0.316978 -0.058352
vn 0.0127 -0.0242 0.9996
vn 0.0127 0.0242 0.9996
vn -0.0127 0.0242 0.9996
vn -0.0127 -0.0242 0.9996
vn 0.9997 -0.0243 -0.0039
vn 0.9997 0.0243 -0.0039
vn 0.9997 0.0243 0.0039
vn 0.9997 -0.0243 0.0039
vn 0.0127 0.9999 -0.0039
vn -0.0127 0.9999 -0.0039
vn -0.0127 0.9999 0.0039
vn 0.0127 0.9999 0.0039
vn -0.9997 -0.0243 0.0039
vn -0.9997 0.0243 0.0039
vn -0.9997 0.0243 -0.0039
vn -0.9997 -0.0243 -0.0039
vn -0.0127 -0.0242 -0.9996
vn -0.0127 0.0242 -0.9996
vn 0.0127 0.0242 -0.9996
vn 0.0127 -0.0242 -0.9996
vn -0.0127 -0.9999 0.0039
vn -0.0108 -0.8662 0.4996
vn -0.4473 -0.7745 0.4473
vn -0.5001 -0.8660 0.0033
vn -0.0108 -0.8661 0.4997
vn -0.0109 -0.4997 0.8662
vn -0.4473 -0.4474 0.7744
vn -0.4473 -0.7745 0.4474
vn -0.0127 -0.0243 0.9996
vn -0.4990 -0.0208 0.8664
vn -0.4473 -0.4473 0.7745
vn -0.0108 -0.4996 0.8662
vn -0.8664 -0.0208 0.4990
vn -0.7744 -0.4473 0.4474
vn -0.4474 -0.4473 0.7745
vn -0.8660 -0.5001 0.0033
vn -0.7745 -0.4473 0.4474
vn -0.8664 -0.0208 0.4989
vn -0.8659 -0.5001 0.0033
vn -0.5001 -0.8659 0.0033
vn -0.4474 -0.7744 0.4473
vn -0.7745 -0.4474 0.4473
vn -0.4474 -0.7744 0.4474
vn -0.4474 -0.4474 0.7744
vn -0.7744 -0.4474 0.4474
vn -0.0127 0.0243 0.9996
vn -0.0108 0.4996 0.8662
vn -0.4473 0.4473 0.7745
vn -0.4989 0.0208 0.8664
vn -0.0108 0.4997 0.8661
vn -0.0109 0.8662 0.4997
vn -0.4473 0.7744 0.4474
vn -0.4473 0.4474 0.7745
vn -0.0128 0.9999 0.0039
vn -0.5001 0.8660 0.0033
vn -0.4473 0.7745 0.4473
vn -0.0108 0.8662 0.4996
vn -0.5002 0.8659 0.0033
vn -0.8660 0.5001 0.0033
vn -0.7744 0.4474 0.4473
vn -0.4474 0.7745 0.4473
vn -0.8664 0.0208 0.4990
vn -0.7745 0.4473 0.4473
vn -0.4990 0.0208 0.8664
vn -0.4474 0.4473 0.7744
vn -0.7745 0.4473 0.4474
vn -0.4474 0.4474 0.7744
vn -0.4474 0.7744 0.4474
vn -0.7744 0.4474 0.4474
vn -0.0128 -0.9999 -0.0039
vn -0.5001 -0.8660 -0.0033
vn -0.4473 -0.7745 -0.4473
vn -0.0108 -0.8662 -0.4996
vn -0.5002 -0.8659 -0.0033
vn -0.8660 -0.5001 -0.0033
vn -0.7744 -0.4474 -0.4473
vn -0.4474 -0.7745 -0.4473
vn -0.8664 -0.0208 -0.4990
vn -0.7745 -0.4473 -0.4473
vn -0.4990 -0.0208 -0.8664
vn -0.4474 -0.4473 -0.7744
vn -0.7745 -0.4473 -0.4474
vn -0.0127 -0.0243 -0.9996
vn -0.0108 -0.4996 -0.8662
vn -0.4473 -0.4473 -0.7745
vn -0.4989 -0.0208 -0.8664
vn -0.0108 -0.4997 -0.8661
vn -0.0109 -0.8662 -0.4997
vn -0.4473 -0.7744 -0.4474
vn -0.4473 -0.4474 -0.7745
vn -0.4474 -0.7744 -0.4473
vn -0.7744 -0.4473 -0.4474
vn -0.4474 -0.4474 -0.7744
vn -0.0108 0.8662 -0.4996
vn -0.4473 0.7745 -0.4473
vn -0.5001 0.8660 -0.0033
vn -0.0108 0.8661 -0.4997
vn -0.0109 0.4997 -0.8662
vn -0.4473 0.4474 -0.7744
vn -0.4473 0.7745 -0.4474
vn -0.0127 0.0243 -0.9996
vn -0.4990 0.0208 -0.8664
vn -0.4473 0.4473 -0.7745
vn -0.0108 0.4996 -0.8662
vn -0.8664 0.0208 -0.4990
vn -0.7744 0.4473 -0.4474
vn -0.4474 0.4473 -0.7745
vn -0.8660 0.5001 -0.0033
vn -0.7745 0.4473 -0.4474
vn -0.8664 0.0208 -0.4989
vn -0.8659 0.5001 -0.0033
vn -0.5001 0.8659 -0.0033
vn -0.4474 0.7744 -0.4473
vn -0.7745 0.4474 -0.4473
vn -0.4474 0.7744 -0.4474
vn -0.4474 0.4474 -0.7744
vn -0.7744 0.4474 -0.4474
vn 0.0128 -0.9999 0.0039
vn 0.5001 -0.8660 0.0033
vn 0.4473 -0.7745 0.4473
vn 0.0108 -0.8662 0.4996
vn 0.5002 -0.8659 0.0033
vn 0.8660 -0.5001 0.0033
vn 0.7744 -0.4474 0.4473
vn 0.4474 -0.7745 0.4473
vn 0.8664 -0.0208 0.4990
vn 0.7745 -0.4473 0.4473
vn 0.4990 -0.0208 0.8664
vn 0.4474 -0.4473 0.7744
vn 0.7745 -0.4473 0.4474
vn 0.0127 -0.0243 0.9996
vn 0.0108 -0.4996 0.8662
vn 0.4473 -0.4473 0.7745
vn 0.4989 -0.0208 0.8664
vn 0.0108 -0.4997 0.8661
vn 0.0109 -0.8662 0.4997
vn 0.4473 -0.7744 0.4474
vn 0.4473 -0.4474 0.7745
vn 0.4474 -0.7744 0.4473
vn 0.7744 -0.4473 0.4474
vn 0.4474 -0.4474 0.7744
vn 0.0108 0.8662 0.4996
vn 0.4473 0.7745 0.4473
vn 0.5001 0.8660 0.0033
vn 0.0108 0.8661 0.4997
vn 0.0109 0.4997 0.8662
vn 0.4473 0.4474 0.7744
vn 0.4473 0.7745 0.4474
vn 0.0127 0.0243 0.9996
vn 0.4990 0.0208 0.8664
vn 0.4473 0.4473 0.7745
vn 0.0108 0.4996 0.8662
vn 0.8664 0.0208 0.4990
vn 0.7744 0.4473 0.4474
vn 0.4474 0.4473 0.7745
vn 0.8660 0.5001 0.0033
vn 0.7745 0.4473 0.4474
vn 0.8664 0.0208 0.4989
vn 0.8659 0.5001 0.0033
vn 0.5001 0.8659 0.0033
vn 0.4474 0.7744 0.4473
vn 0.7745 0.4474 0.4473
vn 0.4474 0.7744 0.4474
vn 0.4474 0.4474 0.7744
vn 0.7744 0.4474 0.4474
vn 0.0127 -0.9999 -0.0039
vn 0.0108 -0.8662 -0.4996
vn 0.4473 -0.7745 -0.4473
vn 0.5001 -0.8660 -0.0033
vn 0.0108 -0.8661 -0.4997
vn 0.0109 -0.4997 -0.8662
vn 0.4473 -0.4474 -0.7744
vn 0.4473 -0.7745 -0.4474
vn 0.0127 -0.0243 -0.9996
vn 0.4990 -0.0208 -0.8664
vn 0.4473 -0.4473 -0.7745
vn 0.0108 -0.4996 -0.8662
vn 0.8664 -0.0208 -0.4990
vn 0.7744 -0.4473 -0.4474
vn 0.4474 -0.4473 -0.7745
vn 0.8660 -0.5001 -0.0033
vn 0.7745 -0.4473 -0.4474
vn 0.8664 -0.0208 -0.4989
vn 0.8659 -0.5001 -0.0033
vn 0.5001 -0.8659 -0.0033
vn 0.4474 -0.7744 -0.4473
vn 0.7745 -0.4474 -0.4473
vn 0.4474 -0.7744 -0.4474
vn 0.4474 -0.4474 -0.7744
vn 0.7744 -0.4474 -0.4474
vn 0.0128 0.9999 -0.0039
vn 0.5001 0.8660 -0.0033
vn 0.4473 0.7745 -0.4473
vn 0.0108 0.8662 -0.4996
vn 0.5002 0.8659 -0.0033
vn 0.8660 0.5001 -0.0033
vn 0.7744 0.4474 -0.4473
vn 0.4474 0.7745 -0.4473
vn 0.8664 0.0208 -0.4990
vn 0.7745 0.4473 -0.4473
vn 0.4990 0.0208 -0.8664
vn 0.4474 0.4473 -0.7744
vn 0.7745 0.4473 -0.4474
vn 0.0127 0.0243 -0.9996
vn 0.0108 0.4996 -0.8662
vn 0.4473 0.4473 -0.7745
vn 0.4989 0.0208 -0.8664
vn 0.0108 0.4997 -0.8661
vn 0.0109 0.8662 -0.4997
vn 0.4473 0.7744 -0.4474
vn 0.4473 0.4474 -0.7745
vn 0.4474 0.7744 -0.4473
vn 0.7744 0.4473 -0.4474
vn 0.4474 0.4474 -0.7744
vn -0.0127 -0.9999 -0.0039
vn -0.5001 -0.8659 -0.0033
vn -0.8659 -0.5001 -0.0033
vn -0.0128 -0.0243 0.9996
vn -0.0128 0.0243 0.9996
vn -0.4990 0.0207 0.8664
vn -0.4990 -0.0207 0.8664
vn -0.4990 -0.0207 0.8663
vn -0.4990 0.0207 0.8663
vn -0.8663 0.0207 0.4990
vn -0.8663 -0.0207 0.4990
vn -0.8664 -0.0207 0.4989
vn -0.8664 0.0207 0.4989
vn -0.5001 0.8659 0.0033
vn -0.8659 0.5001 0.0033
vn -0.0128 0.0243 -0.9996
vn -0.0128 -0.0243 -0.9996
vn -0.4989 -0.0207 -0.8664
vn -0.4989 0.0207 -0.8664
vn -0.4990 0.0207 -0.8663
vn -0.4990 -0.0207 -0.8663
vn -0.8663 -0.0207 -0.4990
vn -0.8663 0.0207 -0.4990
vn -0.8664 0.0207 -0.4989
vn -0.8664 -0.0207 -0.4989
vn 0.0108 -0.8662 -0.4997
vn -0.0108 -0.8662 -0.4997
vn 0.0108 -0.4997 -0.8661
vn -0.0108 0.8662 -0.4997
vn 0.0108 0.8662 -0.4997
vn -0.0108 0.4997 -0.8661
vn 0.8664 -0.0207 -0.4989
vn 0.8664 0.0207 -0.4989
vn 0.8663 0.0207 -0.4990
vn 0.8663 -0.0207 -0.4990
vn 0.4990 -0.0207 -0.8663
vn 0.4990 0.0207 -0.8663
vn 0.4989 0.0207 -0.8664
vn 0.4989 -0.0207 -0.8664
vn 0.0128 -0.0243 -0.9996
vn 0.0128 0.0243 -0.9996
vn 0.0127 -0.9999 0.0039
vn 0.5001 -0.8659 0.0033
vn 0.8659 -0.5001 0.0033
vn 0.5001 0.8659 -0.0033
vn 0.8659 0.5001 -0.0033
vn 0.0128 0.0243 0.9996
vn 0.0128 -0.0243 0.9996
vn 0.4989 -0.0207 0.8664
vn 0.4989 0.0207 0.8664
vn 0.4990 0.0207 0.8663
vn 0.4990 -0.0207 0.8663
vn 0.8663 -0.0207 0.4990
vn 0.8663 0.0207 0.4990
vn 0.8664 0.0207 0.4989
vn 0.8664 -0.0207 0.4989
vn -0.0108 -0.8662 0.4997
vn 0.0108 -0.8662 0.4997
vn -0.0108 -0.4997 0.8661
vn 0.0108 0.8662 0.4997
vn -0.0108 0.8662 0.4997
vn 0.0108 0.4997 0.8661
vt 0.410714 0.770833
vt 0.589286 0.770833
vt 0.589286 0.979167
vt 0.410714 0.979167
vt 0.410714 0.506944
vt 0.589286 0.506944
vt 0.589286 0.743056
vt 0.410714 0.743056
vt 0.645833 0.506944
vt 0.854167 0.506944
vt 0.854167 0.743056
vt 0.645833 0.743056
vt 0.410714 0.006944
vt 0.589286 0.006944
vt 0.589286 0.243056
vt 0.410714 0.243056
vt 0.410714 0.270833
vt 0.589286 0.270833
vt 0.589286 0.479167
vt 0.410714 0.479167
vt 0.145833 0.743056
vt 0.145833 0.746523
vt 0.135871 0.746376
vt 0.135430 0.743056
vt 0.145833 0.750000
vt 0.135871 0.750000
vt 0.410714 1.000000
vt 0.375000 0.989129
vt 0.375000 0.979167
vt 0.410714 0.000000
vt 0.410714 0.003477
vt 0.375000 0.003624
vt 0.375000 0.000000
vt 0.375000 0.006944
vt 0.125000 0.743056
vt 0.125000 0.746376
vt 0.607119 0.979167
vt 0.606365 0.989129
vt 0.589286 1.000000
vt 0.625000 0.979167
vt 0.625000 0.989129
vt 0.875000 0.743056
vt 0.864129 0.750000
vt 0.854167 0.750000
vt 0.625000 0.006944
vt 0.607119 0.006944
vt 0.606365 0.003624
vt 0.625000 0.000000
vt 0.589286 0.003477
vt 0.589286 0.000000
vt 0.606365 0.001829
vt 0.606365 0.994513
vt 0.145833 0.506944
vt 0.135430 0.506944
vt 0.135871 0.503624
vt 0.145833 0.503477
vt 0.125000 0.506944
vt 0.125000 0.503623
vt 0.410714 0.246523
vt 0.375000 0.246376
vt 0.375000 0.243056
vt 0.410714 0.260430
vt 0.375000 0.260871
vt 0.375000 0.270833
vt 0.145833 0.500000
vt 0.135871 0.500000
vt 0.854167 0.500000
vt 0.864129 0.500000
vt 0.875000 0.506944
vt 0.625000 0.270833
vt 0.607119 0.270833
vt 0.606365 0.260871
vt 0.625000 0.260871
vt 0.589286 0.260430
vt 0.589286 0.246523
vt 0.606365 0.246376
vt 0.607119 0.243056
vt 0.625000 0.243056
vt 0.625000 0.250000
vt 0.606365 0.255487
vt 0.354167 0.743056
vt 0.364570 0.743056
vt 0.364129 0.746376
vt 0.354167 0.746523
vt 0.392881 0.743056
vt 0.393635 0.746376
vt 0.410714 0.746523
vt 0.410714 0.760430
vt 0.375000 0.760871
vt 0.375000 0.770833
vt 0.354167 0.750000
vt 0.364129 0.750000
vt 0.369513 0.746376
vt 0.645833 0.750000
vt 0.635871 0.750000
vt 0.635430 0.743056
vt 0.625000 0.770833
vt 0.607119 0.770833
vt 0.606365 0.760871
vt 0.625000 0.760871
vt 0.589286 0.760430
vt 0.589286 0.746523
vt 0.606365 0.746376
vt 0.607119 0.743055
vt 0.606365 0.755487
vt 0.354167 0.506944
vt 0.354167 0.503477
vt 0.364129 0.503623
vt 0.364570 0.506944
vt 0.354167 0.500000
vt 0.364129 0.500000
vt 0.410714 0.489570
vt 0.375000 0.489129
vt 0.375000 0.479167
vt 0.410714 0.503477
vt 0.393635 0.503624
vt 0.392881 0.506944
vt 0.369513 0.503624
vt 0.635430 0.506944
vt 0.635871 0.503624
vt 0.645833 0.500000
vt 0.607119 0.506944
vt 0.606365 0.503624
vt 0.589286 0.503477
vt 0.589286 0.489570
vt 0.606365 0.489129
vt 0.607119 0.479167
vt 0.625000 0.479167
vt 0.615594 0.489129
vt 0.615594 0.503624
vt 0.606365 0.501829
s 0
usemtl Anodized_graphite
f 243/263/517 254/264/518 205/265/519 194/266/520
f 267/267/521 278/268/522 255/269/523 242/270/524
f 277/271/525 229/272/526 206/273/527 253/274/528
f 195/275/529 207/276/530 231/277/531 218/278/532
f 219/279/533 230/280/534 279/281/535 266/282/536
f 193/283/537 196/284/538 198/285/539 197/286/540
f 196/284/541 200/287/542 201/288/543 198/285/544
f 194/266/545 199/289/546 201/290/547 200/291/548
f 199/292/546 203/293/549 204/294/550 201/295/551
f 195/275/529 202/296/552 204/294/553 203/293/554
f 202/297/555 197/286/556 198/285/557 204/298/558
f 198/285/559 201/288/560 204/298/561
f 205/265/562 208/299/563 210/300/564 209/301/565
f 208/299/566 212/302/567 213/303/568 210/300/569
f 206/273/570 211/304/571 213/305/572 212/306/573
f 211/307/574 215/308/575 216/309/576 213/310/577
f 207/276/530 214/311/578 216/309/579 215/308/575
f 214/311/578 209/312/580 210/313/581 216/309/582
f 210/300/583 213/303/584 216/314/585
f 217/315/586 220/316/587 222/317/588 221/318/589
f 220/316/590 224/319/591 225/320/592 222/317/593
f 218/278/532 223/321/594 225/322/595 224/323/591
f 223/321/594 227/324/596 228/325/597 225/322/598
f 219/279/599 226/326/600 228/325/601 227/324/602
f 226/327/603 221/318/604 222/317/605 228/328/606
f 222/317/607 225/320/608 228/328/609
f 229/272/526 232/329/610 234/330/611 233/331/612
f 232/332/613 236/333/614 237/334/615 234/335/616
f 230/280/617 235/336/618 237/334/619 236/333/620
f 235/336/618 239/337/621 240/338/622 237/334/623
f 231/277/531 238/339/624 240/338/625 239/337/626
f 238/339/627 233/340/628 234/341/629 240/338/630
f 234/335/631 237/334/632 240/342/633
f 241/343/634 244/344/635 246/345/636 245/346/637
f 244/344/638 248/347/639 249/348/640 246/345/641
f 242/270/524 247/349/642 249/348/643 248/347/639
f 247/349/642 251/350/644 252/351/645 249/348/646
f 243/263/647 250/352/648 252/351/649 251/350/650
f 250/353/651 245/346/652 246/345/653 252/354/654
f 246/345/655 249/355/656 252/354/657
f 253/274/528 256/356/658 258/357/659 257/358/660
f 256/359/661 260/360/662 261/361/663 258/362/664
f 254/264/665 259/363/666 261/361/667 260/360/668
f 259/363/666 263/364/669 264/365/670 261/361/671
f 255/269/523 262/366/672 264/365/673 263/364/674
f 262/366/675 257/358/676 258/357/677 264/365/678
f 258/362/679 261/361/680 264/367/681
f 265/368/682 268/369/683 270/370/684 269/371/685
f 268/369/686 272/372/687 273/373/688 270/370/689
f 266/282/690 271/374/691 273/375/692 272/376/693
f 271/374/691 275/377/694 276/378/695 273/375/696
f 267/267/521 274/379/697 276/378/698 275/377/699
f 274/379/700 269/371/701 270/370/702 276/378/703
f 270/370/704 273/373/705 276/380/706
f 277/271/707 280/381/708 282/382/709 281/383/710
f 280/381/711 284/384/712 285/385/713 282/382/714
f 278/268/522 283/386/715 285/385/716 284/384/712
f 283/386/715 287/387/717 288/388/718 285/385/719
f 279/281/720 286/389/721 288/388/722 287/387/723
f 286/389/724 281/390/725 282/391/726 288/388/727
f 282/392/728 285/385/729 288/393/730
f 217/315/731 193/283/537 197/286/540 220/316/587
f 220/316/732 197/286/556 202/297/555 224/319/733
f 224/323/591 202/296/552 195/275/529 218/278/532
f 194/266/734 205/265/735 209/301/736 199/289/737
f 199/292/738 209/312/739 214/311/740 203/293/741
f 203/293/742 214/311/743 207/276/530 195/275/529
f 206/273/527 229/272/526 233/331/612 211/304/571
f 211/307/744 233/340/628 238/339/627 215/308/745
f 215/308/575 238/339/624 231/277/531 207/276/530
f 230/280/746 219/279/747 227/324/748 235/336/749
f 235/336/750 227/324/751 223/321/752 239/337/753
f 239/337/754 223/321/755 218/278/532 231/277/531
f 265/368/682 217/315/731 221/318/589 268/369/683
f 268/369/756 221/318/757 226/327/603 272/372/758
f 272/376/693 226/326/600 219/279/599 266/282/690
f 229/272/526 277/271/525 281/383/710 232/329/610
f 232/332/759 281/390/760 286/389/724 236/333/761
f 236/333/620 286/389/721 279/281/720 230/280/617
f 278/268/522 267/267/521 275/377/762 283/386/763
f 283/386/764 275/377/765 271/374/766 287/387/767
f 287/387/768 271/374/769 266/282/770 279/281/771
f 241/343/772 265/368/682 269/371/685 244/344/635
f 244/344/773 269/371/701 274/379/700 248/347/774
f 248/347/639 274/379/697 267/267/521 242/270/524
f 277/271/525 253/274/528 257/358/660 280/381/708
f 280/381/775 257/358/676 262/366/675 284/384/776
f 284/384/712 262/366/672 255/269/523 278/268/522
f 254/264/777 243/263/778 251/350/779 259/363/780
f 259/363/781 251/350/782 247/349/783 263/364/784
f 263/364/785 247/349/786 242/270/524 255/269/523
f 193/283/537 241/343/772 245/346/637 196/284/538
f 196/284/787 245/346/788 250/353/651 200/287/789
f 200/291/548 250/352/648 243/263/647 194/266/545
f 253/274/528 206/273/527 212/306/573 256/356/658
f 256/359/790 212/302/791 208/299/566 260/360/792
f 260/360/668 208/299/563 205/265/562 254/264/665
f 217/315/731 265/368/682 241/343/772 193/283/537
o ESC_MOSFET
v 0.052732 0.310500 -0.023615
v 0.052732 0.311500 -0.022615
v 0.051732 0.311500 -0.023615
v 0.052732 0.310634 -0.023116
v 0.052233 0.310634 -0.023615
v 0.052254 0.310763 -0.023137
v 0.052233 0.311500 -0.022749
v 0.052732 0.311001 -0.022749
v 0.052254 0.311022 -0.022878
v 0.051866 0.311001 -0.023615
v 0.051866 0.311500 -0.023116
v 0.051995 0.311022 -0.023137
v 0.052732 0.316500 -0.022615
v 0.052732 0.317500 -0.023615
v 0.051732 0.316500 -0.023615
v 0.052732 0.316999 -0.022749
v 0.052233 0.316500 -0.022749
v 0.052254 0.316978 -0.022878
v 0.052233 0.317366 -0.023615
v 0.052732 0.317366 -0.023116
v 0.052254 0.317237 -0.023137
v 0.051866 0.316500 -0.023116
v 0.051866 0.316999 -0.023615
v 0.051995 0.316978 -0.023137
v 0.052732 0.310500 -0.057615
v 0.051732 0.311500 -0.057615
v 0.052732 0.311500 -0.058615
v 0.052233 0.310634 -0.057615
v 0.052732 0.310634 -0.058114
v 0.052254 0.310763 -0.058093
v 0.051866 0.311500 -0.058114
v 0.051866 0.311001 -0.057615
v 0.051995 0.311022 -0.058093
v 0.052732 0.311001 -0.058481
v 0.052233 0.311500 -0.058481
v 0.052254 0.311022 -0.058352
v 0.052732 0.317500 -0.057615
v 0.052732 0.316500 -0.058615
v 0.051732 0.316500 -0.057615
v 0.052732 0.317366 -0.058114
v 0.052233 0.317366 -0.057615
v 0.052254 0.317237 -0.058093
v 0.052233 0.316500 -0.058481
v 0.052732 0.316999 -0.058481
v 0.052254 0.316978 -0.058352
v 0.051866 0.316999 -0.057615
v 0.051866 0.316500 -0.058114
v 0.051995 0.316978 -0.058093
v 0.062732 0.310500 -0.023615
v 0.063732 0.311500 -0.023615
v 0.062732 0.311500 -0.022615
v 0.063231 0.310634 -0.023615
v 0.062732 0.310634 -0.023116
v 0.063210 0.310763 -0.023137
v 0.063598 0.311500 -0.023116
v 0.063598 0.311001 -0.023615
v 0.063469 0.311022 -0.023137
v 0.062732 0.311001 -0.022749
v 0.063231 0.311500 -0.022749
v 0.063210 0.311022 -0.022878
v 0.062732 0.317500 -0.023615
v 0.062732 0.316500 -0.022615
v 0.063732 0.316500 -0.023615
v 0.062732 0.317366 -0.023116
v 0.063231 0.317366 -0.023615
v 0.063210 0.317237 -0.023137
v 0.063231 0.316500 -0.022749
v 0.062732 0.316999 -0.022749
v 0.063210 0.316978 -0.022878
v 0.063598 0.316999 -0.023615
v 0.063598 0.316500 -0.023116
v 0.063469 0.316978 -0.023137
v 0.062732 0.310500 -0.057615
v 0.062732 0.311500 -0.058615
v 0.063732 0.311500 -0.057615
v 0.062732 0.310634 -0.058114
v 0.063231 0.310634 -0.057615
v 0.063210 0.310763 -0.058093
v 0.063231 0.311500 -0.058481
v 0.062732 0.311001 -0.058481
v 0.063210 0.311022 -0.058352
v 0.063598 0.311001 -0.057615
v 0.063598 0.311500 -0.058114
v 0.063469 0.311022 -0.058093
v 0.062732 0.317500 -0.057615
v 0.063732 0.316500 -0.057615
v 0.062732 0.316500 -0.058615
v 0.063231 0.317366 -0.057615
v 0.062732 0.317366 -0.058114
v 0.063210 0.317237 -0.058093
v 0.063598 0.316500 -0.058114
v 0.063598 0.316999 -0.057615
v 0.063469 0.316978 -0.058093
v 0.062732 0.316999 -0.058481
v 0.063231 0.316500 -0.058481
v 0.063210 0.316978 -0.058352
vn 0.0127 -0.0242 0.9996
vn 0.0127 0.0242 0.9996
vn -0.0127 0.0242 0.9996
vn -0.0127 -0.0242 0.9996
vn 0.9997 -0.0243 -0.0039
vn 0.9997 0.0243 -0.0039
vn 0.9997 0.0243 0.0039
vn 0.9997 -0.0243 0.0039
vn 0.0127 0.9999 -0.0039
vn -0.0127 0.9999 -0.0039
vn -0.0127 0.9999 0.0039
vn 0.0127 0.9999 0.0039
vn -0.9997 -0.0243 0.0039
vn -0.9997 0.0243 0.0039
vn -0.9997 0.0243 -0.0039
vn -0.9997 -0.0243 -0.0039
vn -0.0127 -0.0242 -0.9996
vn -0.0127 0.0242 -0.9996
vn 0.0127 0.0242 -0.9996
vn 0.0127 -0.0242 -0.9996
vn -0.0127 -0.9999 0.0039
vn -0.0108 -0.8662 0.4996
vn -0.4473 -0.7745 0.4473
vn -0.5001 -0.8660 0.0033
vn -0.0108 -0.8661 0.4997
vn -0.0109 -0.4997 0.8662
vn -0.4473 -0.4474 0.7744
vn -0.4473 -0.7745 0.4474
vn -0.0127 -0.0243 0.9996
vn -0.4990 -0.0208 0.8664
vn -0.4473 -0.4473 0.7745
vn -0.0108 -0.4996 0.8662
vn -0.8664 -0.0208 0.4990
vn -0.7744 -0.4473 0.4474
vn -0.4474 -0.4473 0.7745
vn -0.8660 -0.5001 0.0033
vn -0.7745 -0.4473 0.4474
vn -0.8664 -0.0208 0.4989
vn -0.8659 -0.5001 0.0033
vn -0.5001 -0.8659 0.0033
vn -0.4474 -0.7744 0.4473
vn -0.7745 -0.4474 0.4473
vn -0.4474 -0.7744 0.4474
vn -0.4474 -0.4474 0.7744
vn -0.7744 -0.4474 0.4474
vn -0.0127 0.0243 0.9996
vn -0.0108 0.4996 0.8662
vn -0.4473 0.4473 0.7745
vn -0.4989 0.0208 0.8664
vn -0.0108 0.4997 0.8661
vn -0.0109 0.8662 0.4997
vn -0.4473 0.7744 0.4474
vn -0.4473 0.4474 0.7745
vn -0.0128 0.9999 0.0039
vn -0.5001 0.8660 0.0033
vn -0.4473 0.7745 0.4473
vn -0.0108 0.8662 0.4996
vn -0.5002 0.8659 0.0033
vn -0.8660 0.5001 0.0033
vn -0.7744 0.4474 0.4473
vn -0.4474 0.7745 0.4473
vn -0.8664 0.0208 0.4990
vn -0.7745 0.4473 0.4473
vn -0.4990 0.0208 0.8664
vn -0.4474 0.4473 0.7744
vn -0.7745 0.4473 0.4474
vn -0.4474 0.4474 0.7744
vn -0.4474 0.7744 0.4474
vn -0.7744 0.4474 0.4474
vn -0.0128 -0.9999 -0.0039
vn -0.5001 -0.8660 -0.0033
vn -0.4473 -0.7745 -0.4473
vn -0.0108 -0.8662 -0.4996
vn -0.5002 -0.8659 -0.0033
vn -0.8660 -0.5001 -0.0033
vn -0.7744 -0.4474 -0.4473
vn -0.4474 -0.7745 -0.4473
vn -0.8664 -0.0208 -0.4990
vn -0.7745 -0.4473 -0.4473
vn -0.4990 -0.0208 -0.8664
vn -0.4474 -0.4473 -0.7744
vn -0.7745 -0.4473 -0.4474
vn -0.0127 -0.0243 -0.9996
vn -0.0108 -0.4996 -0.8662
vn -0.4473 -0.4473 -0.7745
vn -0.4989 -0.0208 -0.8664
vn -0.0108 -0.4997 -0.8661
vn -0.0109 -0.8662 -0.4997
vn -0.4473 -0.7744 -0.4474
vn -0.4473 -0.4474 -0.7745
vn -0.4474 -0.7744 -0.4473
vn -0.7744 -0.4473 -0.4474
vn -0.4474 -0.4474 -0.7744
vn -0.0108 0.8662 -0.4996
vn -0.4473 0.7745 -0.4473
vn -0.5001 0.8660 -0.0033
vn -0.0108 0.8661 -0.4997
vn -0.0109 0.4997 -0.8662
vn -0.4473 0.4474 -0.7744
vn -0.4473 0.7745 -0.4474
vn -0.0127 0.0243 -0.9996
vn -0.4990 0.0208 -0.8664
vn -0.4473 0.4473 -0.7745
vn -0.0108 0.4996 -0.8662
vn -0.8664 0.0208 -0.4990
vn -0.7744 0.4473 -0.4474
vn -0.4474 0.4473 -0.7745
vn -0.8660 0.5001 -0.0033
vn -0.7745 0.4473 -0.4474
vn -0.8664 0.0208 -0.4989
vn -0.8659 0.5001 -0.0033
vn -0.5001 0.8659 -0.0033
vn -0.4474 0.7744 -0.4473
vn -0.7745 0.4474 -0.4473
vn -0.4474 0.7744 -0.4474
vn -0.4474 0.4474 -0.7744
vn -0.7744 0.4474 -0.4474
vn 0.0128 -0.9999 0.0039
vn 0.5001 -0.8660 0.0033
vn 0.4473 -0.7745 0.4473
vn 0.0108 -0.8662 0.4996
vn 0.5002 -0.8659 0.0033
vn 0.8660 -0.5001 0.0033
vn 0.7744 -0.4474 0.4473
vn 0.4474 -0.7745 0.4473
vn 0.8664 -0.0208 0.4990
vn 0.7745 -0.4473 0.4473
vn 0.4990 -0.0208 0.8664
vn 0.4474 -0.4473 0.7744
vn 0.7745 -0.4473 0.4474
vn 0.0127 -0.0243 0.9996
vn 0.0108 -0.4996 0.8662
vn 0.4473 -0.4473 0.7745
vn 0.4989 -0.0208 0.8664
vn 0.0108 -0.4997 0.8661
vn 0.0109 -0.8662 0.4997
vn 0.4473 -0.7744 0.4474
vn 0.4473 -0.4474 0.7745
vn 0.4474 -0.7744 0.4473
vn 0.7744 -0.4473 0.4474
vn 0.4474 -0.4474 0.7744
vn 0.0108 0.8662 0.4996
vn 0.4473 0.7745 0.4473
vn 0.5001 0.8660 0.0033
vn 0.0108 0.8661 0.4997
vn 0.0109 0.4997 0.8662
vn 0.4473 0.4474 0.7744
vn 0.4473 0.7745 0.4474
vn 0.0127 0.0243 0.9996
vn 0.4990 0.0208 0.8664
vn 0.4473 0.4473 0.7745
vn 0.0108 0.4996 0.8662
vn 0.8664 0.0208 0.4990
vn 0.7744 0.4473 0.4474
vn 0.4474 0.4473 0.7745
vn 0.8660 0.5001 0.0033
vn 0.7745 0.4473 0.4474
vn 0.8664 0.0208 0.4989
vn 0.8659 0.5001 0.0033
vn 0.5001 0.8659 0.0033
vn 0.4474 0.7744 0.4473
vn 0.7745 0.4474 0.4473
vn 0.4474 0.7744 0.4474
vn 0.4474 0.4474 0.7744
vn 0.7744 0.4474 0.4474
vn 0.0127 -0.9999 -0.0039
vn 0.0108 -0.8662 -0.4996
vn 0.4473 -0.7745 -0.4473
vn 0.5001 -0.8660 -0.0033
vn 0.0108 -0.8661 -0.4997
vn 0.0109 -0.4997 -0.8662
vn 0.4473 -0.4474 -0.7744
vn 0.4473 -0.7745 -0.4474
vn 0.0127 -0.0243 -0.9996
vn 0.4990 -0.0208 -0.8664
vn 0.4473 -0.4473 -0.7745
vn 0.0108 -0.4996 -0.8662
vn 0.8664 -0.0208 -0.4990
vn 0.7744 -0.4473 -0.4474
vn 0.4474 -0.4473 -0.7745
vn 0.8660 -0.5001 -0.0033
vn 0.7745 -0.4473 -0.4474
vn 0.8664 -0.0208 -0.4989
vn 0.8659 -0.5001 -0.0033
vn 0.5001 -0.8659 -0.0033
vn 0.4474 -0.7744 -0.4473
vn 0.7745 -0.4474 -0.4473
vn 0.4474 -0.7744 -0.4474
vn 0.4474 -0.4474 -0.7744
vn 0.7744 -0.4474 -0.4474
vn 0.0128 0.9999 -0.0039
vn 0.5001 0.8660 -0.0033
vn 0.4473 0.7745 -0.4473
vn 0.0108 0.8662 -0.4996
vn 0.5002 0.8659 -0.0033
vn 0.8660 0.5001 -0.0033
vn 0.7744 0.4474 -0.4473
vn 0.4474 0.7745 -0.4473
vn 0.8664 0.0208 -0.4990
vn 0.7745 0.4473 -0.4473
vn 0.4990 0.0208 -0.8664
vn 0.4474 0.4473 -0.7744
vn 0.7745 0.4473 -0.4474
vn 0.0127 0.0243 -0.9996
vn 0.0108 0.4996 -0.8662
vn 0.4473 0.4473 -0.7745
vn 0.4989 0.0208 -0.8664
vn 0.0108 0.4997 -0.8661
vn 0.0109 0.8662 -0.4997
vn 0.4473 0.7744 -0.4474
vn 0.4473 0.4474 -0.7745
vn 0.4474 0.7744 -0.4473
vn 0.7744 0.4473 -0.4474
vn 0.4474 0.4474 -0.7744
vn -0.0127 -0.9999 -0.0039
vn -0.5001 -0.8659 -0.0033
vn -0.8659 -0.5001 -0.0033
vn -0.0128 -0.0243 0.9996
vn -0.0128 0.0243 0.9996
vn -0.4990 0.0207 0.8664
vn -0.4990 -0.0207 0.8664
vn -0.4990 -0.0207 0.8663
vn -0.4990 0.0207 0.8663
vn -0.8663 0.0207 0.4990
vn -0.8663 -0.0207 0.4990
vn -0.8664 -0.0207 0.4989
vn -0.8664 0.0207 0.4989
vn -0.5001 0.8659 0.0033
vn -0.8659 0.5001 0.0033
vn -0.0128 0.0243 -0.9996
vn -0.0128 -0.0243 -0.9996
vn -0.4989 -0.0207 -0.8664
vn -0.4989 0.0207 -0.8664
vn -0.4990 0.0207 -0.8663
vn -0.4990 -0.0207 -0.8663
vn -0.8663 -0.0207 -0.4990
vn -0.8663 0.0207 -0.4990
vn -0.8664 0.0207 -0.4989
vn -0.8664 -0.0207 -0.4989
vn 0.0108 -0.8662 -0.4997
vn -0.0108 -0.8662 -0.4997
vn 0.0108 -0.4997 -0.8661
vn -0.0108 0.8662 -0.4997
vn 0.0108 0.8662 -0.4997
vn -0.0108 0.4997 -0.8661
vn 0.8664 -0.0207 -0.4989
vn 0.8664 0.0207 -0.4989
vn 0.8663 0.0207 -0.4990
vn 0.8663 -0.0207 -0.4990
vn 0.4990 -0.0207 -0.8663
vn 0.4990 0.0207 -0.8663
vn 0.4989 0.0207 -0.8664
vn 0.4989 -0.0207 -0.8664
vn 0.0128 -0.0243 -0.9996
vn 0.0128 0.0243 -0.9996
vn 0.0127 -0.9999 0.0039
vn 0.5001 -0.8659 0.0033
vn 0.8659 -0.5001 0.0033
vn 0.5001 0.8659 -0.0033
vn 0.8659 0.5001 -0.0033
vn 0.0128 0.0243 0.9996
vn 0.0128 -0.0243 0.9996
vn 0.4989 -0.0207 0.8664
vn 0.4989 0.0207 0.8664
vn 0.4990 0.0207 0.8663
vn 0.4990 -0.0207 0.8663
vn 0.8663 -0.0207 0.4990
vn 0.8663 0.0207 0.4990
vn 0.8664 0.0207 0.4989
vn 0.8664 -0.0207 0.4989
vn -0.0108 -0.8662 0.4997
vn 0.0108 -0.8662 0.4997
vn -0.0108 -0.4997 0.8661
vn 0.0108 0.8662 0.4997
vn -0.0108 0.8662 0.4997
vn 0.0108 0.4997 0.8661
vt 0.410714 0.770833
vt 0.589286 0.770833
vt 0.589286 0.979167
vt 0.410714 0.979167
vt 0.410714 0.506944
vt 0.589286 0.506944
vt 0.589286 0.743056
vt 0.410714 0.743056
vt 0.645833 0.506944
vt 0.854167 0.506944
vt 0.854167 0.743056
vt 0.645833 0.743056
vt 0.410714 0.006944
vt 0.589286 0.006944
vt 0.589286 0.243056
vt 0.410714 0.243056
vt 0.410714 0.270833
vt 0.589286 0.270833
vt 0.589286 0.479167
vt 0.410714 0.479167
vt 0.145833 0.743056
vt 0.145833 0.746523
vt 0.135871 0.746376
vt 0.135430 0.743056
vt 0.145833 0.750000
vt 0.135871 0.750000
vt 0.410714 1.000000
vt 0.375000 0.989129
vt 0.375000 0.979167
vt 0.410714 0.000000
vt 0.410714 0.003477
vt 0.375000 0.003624
vt 0.375000 0.000000
vt 0.375000 0.006944
vt 0.125000 0.743056
vt 0.125000 0.746376
vt 0.607119 0.979167
vt 0.606365 0.989129
vt 0.589286 1.000000
vt 0.625000 0.979167
vt 0.625000 0.989129
vt 0.875000 0.743056
vt 0.864129 0.750000
vt 0.854167 0.750000
vt 0.625000 0.006944
vt 0.607119 0.006944
vt 0.606365 0.003624
vt 0.625000 0.000000
vt 0.589286 0.003477
vt 0.589286 0.000000
vt 0.606365 0.001829
vt 0.606365 0.994513
vt 0.145833 0.506944
vt 0.135430 0.506944
vt 0.135871 0.503624
vt 0.145833 0.503477
vt 0.125000 0.506944
vt 0.125000 0.503623
vt 0.410714 0.246523
vt 0.375000 0.246376
vt 0.375000 0.243056
vt 0.410714 0.260430
vt 0.375000 0.260871
vt 0.375000 0.270833
vt 0.145833 0.500000
vt 0.135871 0.500000
vt 0.854167 0.500000
vt 0.864129 0.500000
vt 0.875000 0.506944
vt 0.625000 0.270833
vt 0.607119 0.270833
vt 0.606365 0.260871
vt 0.625000 0.260871
vt 0.589286 0.260430
vt 0.589286 0.246523
vt 0.606365 0.246376
vt 0.607119 0.243056
vt 0.625000 0.243056
vt 0.625000 0.250000
vt 0.606365 0.255487
vt 0.354167 0.743056
vt 0.364570 0.743056
vt 0.364129 0.746376
vt 0.354167 0.746523
vt 0.392881 0.743056
vt 0.393635 0.746376
vt 0.410714 0.746523
vt 0.410714 0.760430
vt 0.375000 0.760871
vt 0.375000 0.770833
vt 0.354167 0.750000
vt 0.364129 0.750000
vt 0.369513 0.746376
vt 0.645833 0.750000
vt 0.635871 0.750000
vt 0.635430 0.743056
vt 0.625000 0.770833
vt 0.607119 0.770833
vt 0.606365 0.760871
vt 0.625000 0.760871
vt 0.589286 0.760430
vt 0.589286 0.746523
vt 0.606365 0.746376
vt 0.607119 0.743055
vt 0.606365 0.755487
vt 0.354167 0.506944
vt 0.354167 0.503477
vt 0.364129 0.503623
vt 0.364570 0.506944
vt 0.354167 0.500000
vt 0.364129 0.500000
vt 0.410714 0.489570
vt 0.375000 0.489129
vt 0.375000 0.479167
vt 0.410714 0.503477
vt 0.393635 0.503624
vt 0.392881 0.506944
vt 0.369513 0.503624
vt 0.635430 0.506944
vt 0.635871 0.503624
vt 0.645833 0.500000
vt 0.607119 0.506944
vt 0.606365 0.503624
vt 0.589286 0.503477
vt 0.589286 0.489570
vt 0.606365 0.489129
vt 0.607119 0.479167
vt 0.625000 0.479167
vt 0.615594 0.489129
vt 0.615594 0.503624
vt 0.606365 0.501829
s 0
usemtl Anodized_graphite
f 339/394/793 350/395/794 301/396/795 290/397/796
f 363/398/797 374/399/798 351/400/799 338/401/800
f 373/402/801 325/403/802 302/404/803 349/405/804
f 291/406/805 303/407/806 327/408/807 314/409/808
f 315/410/809 326/411/810 375/412/811 362/413/812
f 289/414/813 292/415/814 294/416/815 293/417/816
f 292/415/817 296/418/818 297/419/819 294/416/820
f 290/397/821 295/420/822 297/421/823 296/422/824
f 295/423/822 299/424/825 300/425/826 297/426/827
f 291/406/805 298/427/828 300/425/829 299/424/830
f 298/428/831 293/417/832 294/416/833 300/429/834
f 294/416/835 297/419/836 300/429/837
f 301/396/838 304/430/839 306/431/840 305/432/841
f 304/430/842 308/433/843 309/434/844 306/431/845
f 302/404/846 307/435/847 309/436/848 308/437/849
f 307/438/850 311/439/851 312/440/852 309/441/853
f 303/407/806 310/442/854 312/440/855 311/439/851
f 310/442/854 305/443/856 306/444/857 312/440/858
f 306/431/859 309/434/860 312/445/861
f 313/446/862 316/447/863 318/448/864 317/449/865
f 316/447/866 320/450/867 321/451/868 318/448/869
f 314/409/808 319/452/870 321/453/871 320/454/867
f 319/452/870 323/455/872 324/456/873 321/453/874
f 315/410/875 322/457/876 324/456/877 323/455/878
f 322/458/879 317/449/880 318/448/881 324/459/882
f 318/448/883 321/451/884 324/459/885
f 325/403/802 328/460/886 330/461/887 329/462/888
f 328/463/889 332/464/890 333/465/891 330/466/892
f 326/411/893 331/467/894 333/465/895 332/464/896
f 331/467/894 335/468/897 336/469/898 333/465/899
f 327/408/807 334/470/900 336/469/901 335/468/902
f 334/470/903 329/471/904 330/472/905 336/469/906
f 330/466/907 333/465/908 336/473/909
f 337/474/910 340/475/911 342/476/912 341/477/913
f 340/475/914 344/478/915 345/479/916 342/476/917
f 338/401/800 343/480/918 345/479/919 344/478/915
f 343/480/918 347/481/920 348/482/921 345/479/922
f 339/394/923 346/483/924 348/482/925 347/481/926
f 346/484/927 341/477/928 342/476/929 348/485/930
f 342/476/931 345/486/932 348/485/933
f 349/405/804 352/487/934 354/488/935 353/489/936
f 352/490/937 356/491/938 357/492/939 354/493/940
f 350/395/941 355/494/942 357/492/943 356/491/944
f 355/494/942 359/495/945 360/496/946 357/492/947
f 351/400/799 358/497/948 360/496/949 359/495/950
f 358/497/951 353/489/952 354/488/953 360/496/954
f 354/493/955 357/492/956 360/498/957
f 361/499/958 364/500/959 366/501/960 365/502/961
f 364/500/962 368/503/963 369/504/964 366/501/965
f 362/413/966 367/505/967 369/506/968 368/507/969
f 367/505/967 371/508/970 372/509/971 369/506/972
f 363/398/797 370/510/973 372/509/974 371/508/975
f 370/510/976 365/502/977 366/501/978 372/509/979
f 366/501/980 369/504/981 372/511/982
f 373/402/983 376/512/984 378/513/985 377/514/986
f 376/512/987 380/515/988 381/516/989 378/513/990
f 374/399/798 379/517/991 381/516/992 380/515/988
f 379/517/991 383/518/993 384/519/994 381/516/995
f 375/412/996 382/520/997 384/519/998 383/518/999
f 382/520/1000 377/521/1001 378/522/1002 384/519/1003
f 378/523/1004 381/516/1005 384/524/1006
f 313/446/1007 289/414/813 293/417/816 316/447/863
f 316/447/1008 293/417/832 298/428/831 320/450/1009
f 320/454/867 298/427/828 291/406/805 314/409/808
f 290/397/1010 301/396/1011 305/432/1012 295/420/1013
f 295/423/1014 305/443/1015 310/442/1016 299/424/1017
f 299/424/1018 310/442/1019 303/407/806 291/406/805
f 302/404/803 325/403/802 329/462/888 307/435/847
f 307/438/1020 329/471/904 334/470/903 311/439/1021
f 311/439/851 334/470/900 327/408/807 303/407/806
f 326/411/1022 315/410/1023 323/455/1024 331/467/1025
f 331/467/1026 323/455/1027 319/452/1028 335/468/1029
f 335/468/1030 319/452/1031 314/409/808 327/408/807
f 361/499/958 313/446/1007 317/449/865 364/500/959
f 364/500/1032 317/449/1033 322/458/879 368/503/1034
f 368/507/969 322/457/876 315/410/875 362/413/966
f 325/403/802 373/402/801 377/514/986 328/460/886
f 328/463/1035 377/521/1036 382/520/1000 332/464/1037
f 332/464/896 382/520/997 375/412/996 326/411/893
f 374/399/798 363/398/797 371/508/1038 379/517/1039
f 379/517/1040 371/508/1041 367/505/1042 383/518/1043
f 383/518/1044 367/505/1045 362/413/1046 375/412/1047
f 337/474/1048 361/499/958 365/502/961 340/475/911
f 340/475/1049 365/502/977 370/510/976 344/478/1050
f 344/478/915 370/510/973 363/398/797 338/401/800
f 373/402/801 349/405/804 353/489/936 376/512/984
f 376/512/1051 353/489/952 358/497/951 380/515/1052
f 380/515/988 358/497/948 351/400/799 374/399/798
f 350/395/1053 339/394/1054 347/481/1055 355/494/1056
f 355/494/1057 347/481/1058 343/480/1059 359/495/1060
f 359/495/1061 343/480/1062 338/401/800 351/400/799
f 289/414/813 337/474/1048 341/477/913 292/415/814
f 292/415/1063 341/477/1064 346/484/927 296/418/1065
f 296/422/824 346/483/924 339/394/923 290/397/821
f 349/405/804 302/404/803 308/437/849 352/487/934
f 352/490/1066 308/433/1067 304/430/842 356/491/1068
f 356/491/944 304/430/839 301/396/838 350/395/941
f 313/446/1007 361/499/958 337/474/1048 289/414/813
