# Blender 4.3.2
# www.blender.org
mtllib propeller.mtl
o Propeller_hub.003
v 0.295000 0.374500 -0.306374
v 0.295000 0.375125 -0.307000
v 0.295000 0.374683 -0.306816
v 0.295000 0.379500 -0.306374
v 0.295000 0.378875 -0.307000
v 0.295000 0.379317 -0.306816
v 0.296485 0.374500 -0.306276
v 0.296566 0.375125 -0.306897
v 0.296542 0.374683 -0.306715
v 0.296485 0.379500 -0.306276
v 0.296566 0.378875 -0.306897
v 0.296542 0.379317 -0.306715
v 0.297944 0.374500 -0.305986
v 0.298106 0.375125 -0.306591
v 0.298058 0.374683 -0.306413
v 0.297944 0.379500 -0.305986
v 0.298106 0.378875 -0.306591
v 0.298058 0.379317 -0.306413
v 0.299352 0.374500 -0.305508
v 0.299592 0.375125 -0.306087
v 0.299522 0.374683 -0.305917
v 0.299352 0.379500 -0.305508
v 0.299592 0.378875 -0.306087
v 0.299522 0.379317 -0.305917
v 0.300687 0.374500 -0.304850
v 0.301000 0.375125 -0.305392
v 0.300908 0.374683 -0.305233
v 0.300687 0.379500 -0.304850
v 0.301000 0.378875 -0.305392
v 0.300908 0.379317 -0.305233
v 0.301924 0.374500 -0.304023
v 0.302305 0.375125 -0.304520
v 0.302193 0.374683 -0.304374
v 0.301924 0.379500 -0.304023
v 0.302305 0.378875 -0.304520
v 0.302193 0.379317 -0.304374
v 0.303042 0.374500 -0.303042
v 0.303485 0.375125 -0.303485
v 0.303355 0.374683 -0.303355
v 0.303042 0.379500 -0.303042
v 0.303485 0.378875 -0.303485
v 0.303355 0.379317 -0.303355
v 0.304023 0.374500 -0.301924
v 0.304520 0.375125 -0.302305
v 0.304374 0.374683 -0.302193
v 0.304023 0.379500 -0.301924
v 0.304520 0.378875 -0.302305
v 0.304374 0.379317 -0.302193
v 0.304850 0.374500 -0.300687
v 0.305392 0.375125 -0.301000
v 0.305233 0.374683 -0.300908
v 0.304850 0.379500 -0.300687
v 0.305392 0.378875 -0.301000
v 0.305233 0.379317 -0.300908
v 0.305508 0.374500 -0.299352
v 0.306087 0.375125 -0.299592
v 0.305917 0.374683 -0.299522
v 0.305508 0.379500 -0.299352
v 0.306087 0.378875 -0.299592
v 0.305917 0.379317 -0.299522
v 0.305986 0.374500 -0.297944
v 0.306591 0.375125 -0.298106
v 0.306413 0.374683 -0.298058
v 0.305986 0.379500 -0.297944
v 0.306591 0.378875 -0.298106
v 0.306413 0.379317 -0.298058
v 0.306276 0.374500 -0.296485
v 0.306897 0.375125 -0.296566
v 0.306715 0.374683 -0.296542
v 0.306276 0.379500 -0.296485
v 0.306897 0.378875 -0.296566
v 0.306715 0.379317 -0.296542
v 0.306374 0.374500 -0.295000
v 0.307000 0.375125 -0.295000
v 0.306816 0.374683 -0.295000
v 0.306374 0.379500 -0.295000
v 0.307000 0.378875 -0.295000
v 0.306816 0.379317 -0.295000
v 0.306276 0.374500 -0.293515
v 0.306897 0.375125 -0.293434
v 0.306715 0.374683 -0.293458
v 0.306276 0.379500 -0.293515
v 0.306897 0.378875 -0.293434
v 0.306715 0.379317 -0.293458
v 0.305986 0.374500 -0.292056
v 0.306591 0.375125 -0.291894
v 0.306413 0.374683 -0.291942
v 0.305986 0.379500 -0.292056
v 0.306591 0.378875 -0.291894
v 0.306413 0.379317 -0.291942
v 0.305508 0.374500 -0.290647
v 0.306087 0.375125 -0.290408
v 0.305917 0.374683 -0.290478
v 0.305508 0.379500 -0.290647
v 0.306087 0.378875 -0.290408
v 0.305917 0.379317 -0.290478
v 0.304850 0.374500 -0.289313
v 0.305392 0.375125 -0.289000
v 0.305233 0.374683 -0.289092
v 0.304850 0.379500 -0.289313
v 0.305392 0.378875 -0.289000
v 0.305233 0.379317 -0.289092
v 0.304023 0.374500 -0.288076
v 0.304520 0.375125 -0.287695
v 0.304374 0.374683 -0.287807
v 0.304023 0.379500 -0.288076
v 0.304520 0.378875 -0.287695
v 0.304374 0.379317 -0.287807
v 0.303042 0.374500 -0.286958
v 0.303485 0.375125 -0.286515
v 0.303355 0.374683 -0.286645
v 0.303042 0.379500 -0.286958
v 0.303485 0.378875 -0.286515
v 0.303355 0.379317 -0.286645
v 0.301924 0.374500 -0.285977
v 0.302305 0.375125 -0.285480
v 0.302193 0.374683 -0.285626
v 0.301924 0.379500 -0.285977
v 0.302305 0.378875 -0.285480
v 0.302193 0.379317 -0.285626
v 0.300687 0.374500 -0.285150
v 0.301000 0.375125 -0.284608
v 0.300908 0.374683 -0.284767
v 0.300687 0.379500 -0.285150
v 0.301000 0.378875 -0.284608
v 0.300908 0.379317 -0.284767
v 0.299352 0.374500 -0.284492
v 0.299592 0.375125 -0.283913
v 0.299522 0.374683 -0.284083
v 0.299352 0.379500 -0.284492
v 0.299592 0.378875 -0.283913
v 0.299522 0.379317 -0.284083
v 0.297944 0.374500 -0.284014
v 0.298106 0.375125 -0.283409
v 0.298058 0.374683 -0.283587
v 0.297944 0.379500 -0.284014
v 0.298106 0.378875 -0.283409
v 0.298058 0.379317 -0.283587
v 0.296485 0.374500 -0.283724
v 0.296566 0.375125 -0.283103
v 0.296542 0.374683 -0.283285
v 0.296485 0.379500 -0.283724
v 0.296566 0.378875 -0.283103
v 0.296542 0.379317 -0.283285
v 0.295000 0.374500 -0.283626
v 0.295000 0.375125 -0.283000
v 0.295000 0.374683 -0.283184
v 0.295000 0.379500 -0.283626
v 0.295000 0.378875 -0.283000
v 0.295000 0.379317 -0.283184
v 0.293515 0.374500 -0.283724
v 0.293434 0.375125 -0.283103
v 0.293458 0.374683 -0.283285
v 0.293515 0.379500 -0.283724
v 0.293434 0.378875 -0.283103
v 0.293458 0.379317 -0.283285
v 0.292056 0.374500 -0.284014
v 0.291894 0.375125 -0.283409
v 0.291942 0.374683 -0.283587
v 0.292056 0.379500 -0.284014
v 0.291894 0.378875 -0.283409
v 0.291942 0.379317 -0.283587
v 0.290647 0.374500 -0.284492
v 0.290408 0.375125 -0.283913
v 0.290478 0.374683 -0.284083
v 0.290647 0.379500 -0.284492
v 0.290408 0.378875 -0.283913
v 0.290478 0.379317 -0.284083
v 0.289313 0.374500 -0.285150
v 0.289000 0.375125 -0.284608
v 0.289092 0.374683 -0.284767
v 0.289313 0.379500 -0.285150
v 0.289000 0.378875 -0.284608
v 0.289092 0.379317 -0.284767
v 0.288076 0.374500 -0.285977
v 0.287695 0.375125 -0.285480
v 0.287807 0.374683 -0.285626
v 0.288076 0.379500 -0.285977
v 0.287695 0.378875 -0.285480
v 0.287807 0.379317 -0.285626
v 0.286958 0.374500 -0.286958
v 0.286515 0.375125 -0.286515
v 0.286645 0.374683 -0.286645
v 0.286958 0.379500 -0.286958
v 0.286515 0.378875 -0.286515
v 0.286645 0.379317 -0.286645
v 0.285977 0.374500 -0.288076
v 0.285480 0.375125 -0.287695
v 0.285626 0.374683 -0.287807
v 0.285977 0.379500 -0.288076
v 0.285480 0.378875 -0.287695
v 0.285626 0.379317 -0.287807
v 0.285150 0.374500 -0.289313
v 0.284608 0.375125 -0.289000
v 0.284767 0.374683 -0.289092
v 0.285150 0.379500 -0.289313
v 0.284608 0.378875 -0.289000
v 0.284767 0.379317 -0.289092
v 0.284492 0.374500 -0.290647
v 0.283913 0.375125 -0.290408
v 0.284083 0.374683 -0.290478
v 0.284492 0.379500 -0.290647
v 0.283913 0.378875 -0.290408
v 0.284083 0.379317 -0.290478
v 0.284014 0.374500 -0.292056
v 0.283409 0.375125 -0.291894
v 0.283587 0.374683 -0.291942
v 0.284014 0.379500 -0.292056
v 0.283409 0.378875 -0.291894
v 0.283587 0.379317 -0.291942
v 0.283724 0.374500 -0.293515
v 0.283103 0.375125 -0.293434
v 0.283285 0.374683 -0.293458
v 0.283724 0.379500 -0.293515
v 0.283103 0.378875 -0.293434
v 0.283285 0.379317 -0.293458
v 0.283626 0.374500 -0.295000
v 0.283000 0.375125 -0.295000
v 0.283184 0.374683 -0.295000
v 0.283626 0.379500 -0.295000
v 0.283000 0.378875 -0.295000
v 0.283184 0.379317 -0.295000
v 0.283724 0.374500 -0.296485
v 0.283103 0.375125 -0.296566
v 0.283285 0.374683 -0.296542
v 0.283724 0.379500 -0.296485
v 0.283103 0.378875 -0.296566
v 0.283285 0.379317 -0.296542
v 0.284014 0.374500 -0.297944
v 0.283409 0.375125 -0.298106
v 0.283587 0.374683 -0.298058
v 0.284014 0.379500 -0.297944
v 0.283409 0.378875 -0.298106
v 0.283587 0.379317 -0.298058
v 0.284492 0.374500 -0.299352
v 0.283913 0.375125 -0.299592
v 0.284083 0.374683 -0.299522
v 0.284492 0.379500 -0.299352
v 0.283913 0.378875 -0.299592
v 0.284083 0.379317 -0.299522
v 0.285150 0.374500 -0.300687
v 0.284608 0.375125 -0.301000
v 0.284767 0.374683 -0.300908
v 0.285150 0.379500 -0.300687
v 0.284608 0.378875 -0.301000
v 0.284767 0.379317 -0.300908
v 0.285977 0.374500 -0.301924
v 0.285480 0.375125 -0.302305
v 0.285626 0.374683 -0.302193
v 0.285977 0.379500 -0.301924
v 0.285480 0.378875 -0.302305
v 0.285626 0.379317 -0.302193
v 0.286958 0.374500 -0.303042
v 0.286515 0.375125 -0.303485
v 0.286645 0.374683 -0.303355
v 0.286958 0.379500 -0.303042
v 0.286515 0.378875 -0.303485
v 0.286645 0.379317 -0.303355
v 0.288076 0.374500 -0.304023
v 0.287695 0.375125 -0.304520
v 0.287807 0.374683 -0.304374
v 0.288076 0.379500 -0.304023
v 0.287695 0.378875 -0.304520
v 0.287807 0.379317 -0.304374
v 0.289313 0.374500 -0.304850
v 0.289000 0.375125 -0.305392
v 0.289092 0.374683 -0.305233
v 0.289313 0.379500 -0.304850
v 0.289000 0.378875 -0.305392
v 0.289092 0.379317 -0.305233
v 0.290647 0.374500 -0.305508
v 0.290408 0.375125 -0.306087
v 0.290478 0.374683 -0.305917
v 0.290647 0.379500 -0.305508
v 0.290408 0.378875 -0.306087
v 0.290478 0.379317 -0.305917
v 0.292056 0.374500 -0.305986
v 0.291894 0.375125 -0.306591
v 0.291942 0.374683 -0.306413
v 0.292056 0.379500 -0.305986
v 0.291894 0.378875 -0.306591
v 0.291942 0.379317 -0.306413
v 0.293515 0.374500 -0.306276
v 0.293434 0.375125 -0.306897
v 0.293458 0.374683 -0.306715
v 0.293515 0.379500 -0.306276
v 0.293434 0.378875 -0.306897
v 0.293458 0.379317 -0.306715
vn -0.1304 -0.0436 -0.9905
vn -0.1304 0.0436 -0.9905
vn -0.0000 0.0436 -0.9991
vn -0.0000 -0.0436 -0.9991
vn 0.2586 -0.0436 -0.9650
vn 0.2586 0.0436 -0.9650
vn 0.3823 0.0436 -0.9230
vn 0.3823 -0.0436 -0.9230
vn 0.4995 0.0436 -0.8652
vn 0.4995 -0.0436 -0.8652
vn 0.6082 0.0436 -0.7926
vn 0.6082 -0.0436 -0.7926
vn 0.7064 0.0436 -0.7064
vn 0.7064 -0.0436 -0.7064
vn 0.7926 0.0436 -0.6082
vn 0.7926 -0.0436 -0.6082
vn 0.8652 0.0436 -0.4995
vn 0.8652 -0.0436 -0.4995
vn 0.9230 0.0436 -0.3823
vn 0.9230 -0.0436 -0.3823
vn 0.9650 0.0436 -0.2586
vn 0.9650 -0.0436 -0.2586
vn 0.9905 0.0436 -0.1304
vn 0.9905 -0.0436 -0.1304
vn 0.9991 0.0436 -0.0000
vn 0.9991 -0.0436 -0.0000
vn 0.9905 0.0436 0.1304
vn 0.9905 -0.0436 0.1304
vn 0.9650 0.0436 0.2586
vn 0.9650 -0.0436 0.2586
vn 0.9230 0.0436 0.3823
vn 0.9230 -0.0436 0.3823
vn 0.8652 0.0436 0.4995
vn 0.8652 -0.0436 0.4995
vn 0.7926 0.0436 0.6082
vn 0.7926 -0.0436 0.6082
vn 0.7064 0.0436 0.7064
vn 0.7064 -0.0436 0.7064
vn 0.6082 0.0436 0.7926
vn 0.6082 -0.0436 0.7926
vn 0.4995 0.0436 0.8652
vn 0.4995 -0.0436 0.8652
vn 0.3823 0.0436 0.9230
vn 0.3823 -0.0436 0.9230
vn 0.2586 0.0436 0.9650
vn 0.2586 -0.0436 0.9650
vn 0.1304 0.0436 0.9905
vn 0.1304 -0.0436 0.9905
vn -0.0000 0.0436 0.9991
vn -0.0000 -0.0436 0.9991
vn -0.1304 0.0436 0.9905
vn -0.1304 -0.0436 0.9905
vn -0.2586 0.0436 0.9650
vn -0.2586 -0.0436 0.9650
vn -0.3823 0.0436 0.9230
vn -0.3823 -0.0436 0.9230
vn -0.4995 0.0436 0.8652
vn -0.4995 -0.0436 0.8652
vn -0.6082 0.0436 0.7926
vn -0.6082 -0.0436 0.7926
vn -0.7064 0.0436 0.7064
vn -0.7064 -0.0436 0.7064
vn -0.7926 0.0436 0.6082
vn -0.7926 -0.0436 0.6082
vn -0.8652 0.0436 0.4995
vn -0.8652 -0.0436 0.4995
vn -0.9230 0.0436 0.3823
vn -0.9230 -0.0436 0.3823
vn -0.9650 0.0436 0.2586
vn -0.9650 -0.0436 0.2586
vn -0.9905 0.0436 0.1304
vn -0.9905 -0.0436 0.1304
vn -0.9991 0.0436 -0.0000
vn -0.9991 -0.0436 -0.0000
vn -0.9905 0.0436 -0.1304
vn -0.9905 -0.0436 -0.1304
vn -0.9650 0.0436 -0.2586
vn -0.9650 -0.0436 -0.2586
vn -0.9230 0.0436 -0.3823
vn -0.9230 -0.0436 -0.3823
vn -0.8652 0.0436 -0.4995
vn -0.8652 -0.0436 -0.4995
vn -0.7926 0.0436 -0.6082
vn -0.7926 -0.0436 -0.6082
vn -0.7064 0.0436 -0.7064
vn -0.7064 -0.0436 -0.7064
vn -0.6082 0.0436 -0.7926
vn -0.6082 -0.0436 -0.7926
vn -0.4995 0.0436 -0.8652
vn -0.4995 -0.0436 -0.8652
vn -0.3823 0.0436 -0.9230
vn -0.3823 -0.0436 -0.9230
vn -0.2586 0.0436 -0.9650
vn -0.2586 -0.0436 -0.9650
vn 0.1304 -0.0436 -0.9905
vn 0.1304 0.0436 -0.9905
vn 0.0002 1.0000 -0.0014
vn -0.0000 1.0000 -0.0014
vn -0.0002 1.0000 -0.0014
vn -0.0003 1.0000 -0.0013
vn -0.0005 1.0000 -0.0013
vn -0.0007 1.0000 -0.0012
vn -0.0008 1.0000 -0.0011
vn -0.0010 1.0000 -0.0010
vn -0.0011 1.0000 -0.0009
vn -0.0012 1.0000 -0.0007
vn -0.0013 1.0000 -0.0005
vn -0.0013 1.0000 -0.0004
vn -0.0014 1.0000 -0.0002
vn -0.0014 1.0000 -0.0000
vn -0.0014 1.0000 0.0002
vn -0.0013 1.0000 0.0003
vn -0.0013 1.0000 0.0005
vn -0.0012 1.0000 0.0007
vn -0.0011 1.0000 0.0008
vn -0.0010 1.0000 0.0010
vn -0.0009 1.0000 0.0011
vn -0.0007 1.0000 0.0012
vn -0.0005 1.0000 0.0013
vn -0.0004 1.0000 0.0013
vn -0.0002 1.0000 0.0014
vn -0.0000 1.0000 0.0014
vn 0.0002 1.0000 0.0014
vn 0.0003 1.0000 0.0013
vn 0.0005 1.0000 0.0013
vn 0.0007 1.0000 0.0012
vn 0.0008 1.0000 0.0011
vn 0.0010 1.0000 0.0010
vn 0.0011 1.0000 0.0009
vn 0.0012 1.0000 0.0007
vn 0.0013 1.0000 0.0005
vn 0.0013 1.0000 0.0004
vn 0.0014 1.0000 0.0002
vn 0.0014 1.0000 -0.0000
vn 0.0014 1.0000 -0.0002
vn 0.0013 1.0000 -0.0003
vn 0.0013 1.0000 -0.0005
vn 0.0012 1.0000 -0.0007
vn 0.0011 1.0000 -0.0008
vn 0.0010 1.0000 -0.0010
vn 0.0009 1.0000 -0.0011
vn 0.0007 1.0000 -0.0012
vn 0.0005 1.0000 -0.0013
vn 0.0004 1.0000 -0.0013
vn 0.0927 -0.7040 -0.7042
vn -0.0000 -0.7040 -0.7102
vn 0.0002 -1.0000 -0.0014
vn 0.0001 -1.0000 -0.0014
vn -0.0000 0.7040 -0.7102
vn 0.0927 0.7039 -0.7042
vn 0.1838 -0.7039 -0.6861
vn 0.0004 -1.0000 -0.0013
vn 0.1838 0.7040 -0.6860
vn 0.2718 -0.7040 -0.6562
vn 0.0005 -1.0000 -0.0013
vn 0.2718 0.7040 -0.6562
vn 0.3551 -0.7039 -0.6151
vn 0.0007 -1.0000 -0.0012
vn 0.3551 0.7040 -0.6151
vn 0.4324 -0.7039 -0.5635
vn 0.0009 -1.0000 -0.0011
vn 0.4324 0.7040 -0.5635
vn 0.5022 -0.7039 -0.5022
vn 0.0010 -1.0000 -0.0010
vn 0.5022 0.7040 -0.5022
vn 0.5635 -0.7039 -0.4324
vn 0.0011 -1.0000 -0.0008
vn 0.5635 0.7040 -0.4324
vn 0.6151 -0.7040 -0.3551
vn 0.0012 -1.0000 -0.0007
vn 0.6151 0.7040 -0.3551
vn 0.6562 -0.7040 -0.2718
vn 0.0013 -1.0000 -0.0005
vn 0.6562 0.7040 -0.2718
vn 0.6861 -0.7039 -0.1838
vn 0.0013 -1.0000 -0.0003
vn 0.6861 0.7039 -0.1838
vn 0.7042 -0.7040 -0.0927
vn 0.0014 -1.0000 -0.0002
vn 0.7042 0.7040 -0.0927
vn 0.7102 -0.7040 -0.0000
vn 0.0014 -1.0000 -0.0000
vn 0.7102 0.7040 -0.0000
vn 0.7042 -0.7040 0.0927
vn 0.0014 -1.0000 0.0002
vn 0.7042 0.7040 0.0927
vn 0.6861 -0.7039 0.1838
vn 0.0013 -1.0000 0.0004
vn 0.6861 0.7039 0.1838
vn 0.6562 -0.7040 0.2718
vn 0.0013 -1.0000 0.0005
vn 0.6562 0.7040 0.2718
vn 0.6151 -0.7040 0.3551
vn 0.0012 -1.0000 0.0007
vn 0.6151 0.7040 0.3551
vn 0.5635 -0.7040 0.4324
vn 0.0011 -1.0000 0.0009
vn 0.5635 0.7039 0.4324
vn 0.5022 -0.7040 0.5022
vn 0.0010 -1.0000 0.0010
vn 0.5022 0.7040 0.5022
vn 0.4324 -0.7039 0.5635
vn 0.0008 -1.0000 0.0011
vn 0.4324 0.7040 0.5635
vn 0.3551 -0.7040 0.6151
vn 0.0007 -1.0000 0.0012
vn 0.3551 0.7039 0.6151
vn 0.2718 -0.7040 0.6562
vn 0.0005 -1.0000 0.0013
vn 0.2718 0.7040 0.6562
vn 0.1838 -0.7039 0.6861
vn 0.0003 -1.0000 0.0013
vn 0.1838 0.7039 0.6861
vn 0.0927 -0.7039 0.7042
vn 0.0002 -1.0000 0.0014
vn 0.0927 0.7039 0.7042
vn -0.0000 -0.7040 0.7102
vn -0.0000 -1.0000 0.0014
vn -0.0000 0.7040 0.7102
vn -0.0927 -0.7040 0.7042
vn -0.0002 -1.0000 0.0014
vn -0.0927 0.7039 0.7042
vn -0.1838 -0.7039 0.6861
vn -0.0004 -1.0000 0.0013
vn -0.1838 0.7040 0.6860
vn -0.2718 -0.7040 0.6562
vn -0.0005 -1.0000 0.0013
vn -0.2718 0.7040 0.6562
vn -0.3551 -0.7039 0.6151
vn -0.0007 -1.0000 0.0012
vn -0.3551 0.7040 0.6151
vn -0.4324 -0.7039 0.5635
vn -0.0009 -1.0000 0.0011
vn -0.4324 0.7040 0.5635
vn -0.5022 -0.7039 0.5022
vn -0.0010 -1.0000 0.0010
vn -0.5022 0.7040 0.5022
vn -0.5635 -0.7039 0.4324
vn -0.0011 -1.0000 0.0008
vn -0.5635 0.7040 0.4324
vn -0.6151 -0.7040 0.3551
vn -0.0012 -1.0000 0.0007
vn -0.6151 0.7040 0.3551
vn -0.6562 -0.7040 0.2718
vn -0.0013 -1.0000 0.0005
vn -0.6562 0.7040 0.2718
vn -0.6861 -0.7039 0.1838
vn -0.0013 -1.0000 0.0003
vn -0.6861 0.7039 0.1838
vn -0.7042 -0.7040 0.0927
vn -0.0014 -1.0000 0.0002
vn -0.7042 0.7040 0.0927
vn -0.7102 -0.7040 -0.0000
vn -0.0014 -1.0000 -0.0000
vn -0.7102 0.7040 -0.0000
vn -0.7042 -0.7040 -0.0927
vn -0.0014 -1.0000 -0.0002
vn -0.7042 0.7040 -0.0927
vn -0.6861 -0.7039 -0.1838
vn -0.0013 -1.0000 -0.0004
vn -0.6861 0.7039 -0.1838
vn -0.6562 -0.7040 -0.2718
vn -0.0013 -1.0000 -0.0005
vn -0.6562 0.7040 -0.2718
vn -0.6151 -0.7040 -0.3551
vn -0.0012 -1.0000 -0.0007
vn -0.6151 0.7040 -0.3551
vn -0.5635 -0.7040 -0.4324
vn -0.0011 -1.0000 -0.0009
vn -0.5635 0.7039 -0.4324
vn -0.5022 -0.7040 -0.5022
vn -0.0010 -1.0000 -0.0010
vn -0.5022 0.7040 -0.5022
vn -0.4324 -0.7039 -0.5635
vn -0.0008 -1.0000 -0.0011
vn -0.4324 0.7040 -0.5635
vn -0.3551 -0.7040 -0.6151
vn -0.0007 -1.0000 -0.0012
vn -0.3551 0.7039 -0.6151
vn -0.2718 -0.7040 -0.6562
vn -0.0005 -1.0000 -0.0013
vn -0.2718 0.7040 -0.6562
vn -0.1838 -0.7039 -0.6861
vn -0.0003 -1.0000 -0.0013
vn -0.1838 0.7039 -0.6861
vn -0.0927 -0.7039 -0.7042
vn -0.0002 -1.0000 -0.0014
vn -0.0927 0.7039 -0.7042
vt 0.020834 0.562500
vt 0.020834 0.937500
vt 0.000000 0.937500
vt 0.000000 0.562500
vt 0.958333 0.562500
vt 0.958333 0.937500
vt 0.937500 0.937500
vt 0.937500 0.562500
vt 0.916667 0.937500
vt 0.916667 0.562500
vt 0.895833 0.937500
vt 0.895833 0.562500
vt 0.875000 0.937500
vt 0.875000 0.562500
vt 0.854167 0.937500
vt 0.854167 0.562500
vt 0.833333 0.937500
vt 0.833333 0.562500
vt 0.812500 0.937500
vt 0.812500 0.562500
vt 0.791667 0.937500
vt 0.791667 0.562500
vt 0.770834 0.937500
vt 0.770834 0.562500
vt 0.750000 0.937500
vt 0.750000 0.562500
vt 0.729167 0.937500
vt 0.729167 0.562500
vt 0.708334 0.937500
vt 0.708334 0.562500
vt 0.687500 0.937500
vt 0.687500 0.562500
vt 0.666667 0.937500
vt 0.666667 0.562500
vt 0.645834 0.937500
vt 0.645834 0.562500
vt 0.625000 0.937500
vt 0.625000 0.562500
vt 0.604167 0.937500
vt 0.604167 0.562500
vt 0.583334 0.937500
vt 0.583334 0.562500
vt 0.562500 0.937500
vt 0.562500 0.562500
vt 0.541667 0.937500
vt 0.541667 0.562500
vt 0.520834 0.937500
vt 0.520834 0.562500
vt 0.500000 0.937500
vt 0.500000 0.562500
vt 0.479167 0.937500
vt 0.479167 0.562500
vt 0.458334 0.937500
vt 0.458334 0.562500
vt 0.437500 0.937500
vt 0.437500 0.562500
vt 0.416667 0.937500
vt 0.416667 0.562500
vt 0.395834 0.937500
vt 0.395834 0.562500
vt 0.375000 0.937500
vt 0.375000 0.562500
vt 0.354167 0.937500
vt 0.354167 0.562500
vt 0.333334 0.937500
vt 0.333334 0.562500
vt 0.312500 0.937500
vt 0.312500 0.562500
vt 0.291667 0.937500
vt 0.291667 0.562500
vt 0.270834 0.937500
vt 0.270834 0.562500
vt 0.250000 0.937500
vt 0.250000 0.562500
vt 0.229167 0.937500
vt 0.229167 0.562500
vt 0.208334 0.937500
vt 0.208334 0.562500
vt 0.187500 0.937500
vt 0.187500 0.562500
vt 0.166667 0.937500
vt 0.166667 0.562500
vt 0.145834 0.937500
vt 0.145834 0.562500
vt 0.125000 0.937500
vt 0.125000 0.562500
vt 0.104167 0.937500
vt 0.104167 0.562500
vt 0.083334 0.937500
vt 0.083334 0.562500
vt 0.062500 0.937500
vt 0.062500 0.562500
vt 0.041667 0.937500
vt 0.041667 0.562500
vt 0.979167 0.562500
vt 0.979167 0.937500
vt 0.279691 0.475527
vt 0.250000 0.477473
vt 0.220309 0.475527
vt 0.191126 0.469722
vt 0.162950 0.460158
vt 0.136263 0.446998
vt 0.111523 0.430467
vt 0.089152 0.410848
vt 0.069533 0.388477
vt 0.053002 0.363737
vt 0.039842 0.337050
vt 0.030278 0.308874
vt 0.024473 0.279691
vt 0.022527 0.250000
vt 0.024473 0.220309
vt 0.030278 0.191126
vt 0.039842 0.162950
vt 0.053002 0.136263
vt 0.069533 0.111523
vt 0.089152 0.089152
vt 0.111523 0.069533
vt 0.136263 0.053002
vt 0.162950 0.039842
vt 0.191126 0.030278
vt 0.220309 0.024473
vt 0.250000 0.022527
vt 0.279691 0.024473
vt 0.308874 0.030278
vt 0.337050 0.039842
vt 0.363737 0.053002
vt 0.388477 0.069533
vt 0.410848 0.089152
vt 0.430467 0.111523
vt 0.446998 0.136263
vt 0.460158 0.162950
vt 0.469722 0.191126
vt 0.475527 0.220309
vt 0.477473 0.250000
vt 0.475527 0.279691
vt 0.469722 0.308874
vt 0.460158 0.337050
vt 0.446998 0.363737
vt 0.430467 0.388477
vt 0.410848 0.410848
vt 0.388477 0.430467
vt 0.363737 0.446998
vt 0.337050 0.460158
vt 0.308874 0.469722
vt 1.000000 0.562500
vt 1.000000 0.937500
vt 0.979326 0.500000
vt 0.999840 0.500000
vt 0.750240 0.489984
vt 0.781086 0.487963
vt 0.779691 0.475527
vt 0.750000 0.477473
vt 0.999840 1.000000
vt 0.979326 1.000000
vt 0.281086 0.487963
vt 0.250240 0.489984
vt 0.958493 0.500000
vt 0.979007 0.500000
vt 0.781562 0.487900
vt 0.811880 0.481869
vt 0.808874 0.469722
vt 0.979007 1.000000
vt 0.958493 1.000000
vt 0.311880 0.481869
vt 0.281562 0.487900
vt 0.937660 0.500000
vt 0.958174 0.500000
vt 0.812344 0.481745
vt 0.841616 0.471808
vt 0.837050 0.460158
vt 0.958174 1.000000
vt 0.937660 1.000000
vt 0.341616 0.471808
vt 0.312344 0.481745
vt 0.916826 0.500000
vt 0.937340 0.500000
vt 0.842060 0.471625
vt 0.869784 0.457953
vt 0.863737 0.446997
vt 0.937340 1.000000
vt 0.916826 1.000000
vt 0.369784 0.457953
vt 0.342060 0.471625
vt 0.895993 0.500000
vt 0.916507 0.500000
vt 0.870200 0.457712
vt 0.895903 0.440538
vt 0.888477 0.430467
vt 0.916507 1.000000
vt 0.895993 1.000000
vt 0.395903 0.440539
vt 0.370200 0.457712
vt 0.875160 0.500000
vt 0.895674 0.500000
vt 0.896284 0.440246
vt 0.919525 0.419864
vt 0.910848 0.410848
vt 0.895674 1.000000
vt 0.875160 1.000000
vt 0.419525 0.419864
vt 0.396284 0.440246
vt 0.854327 0.500000
vt 0.874840 0.500000
vt 0.919864 0.419525
vt 0.940246 0.396284
vt 0.930466 0.388477
vt 0.874840 1.000000
vt 0.854327 1.000000
vt 0.440246 0.396284
vt 0.419864 0.419525
vt 0.833493 0.500000
vt 0.854007 0.500000
vt 0.940539 0.395903
vt 0.957712 0.370200
vt 0.946998 0.363737
vt 0.854007 1.000000
vt 0.833493 1.000000
vt 0.457712 0.370200
vt 0.440538 0.395903
vt 0.812660 0.500000
vt 0.833174 0.500000
vt 0.957953 0.369784
vt 0.971625 0.342060
vt 0.960158 0.337050
vt 0.833174 1.000000
vt 0.812660 1.000000
vt 0.471625 0.342060
vt 0.457953 0.369784
vt 0.791827 0.500000
vt 0.812340 0.500000
vt 0.971808 0.341616
vt 0.981745 0.312344
vt 0.969722 0.308874
vt 0.812340 1.000000
vt 0.791827 1.000000
vt 0.481745 0.312345
vt 0.471808 0.341616
vt 0.770993 0.500000
vt 0.791507 0.500000
vt 0.981869 0.311880
vt 0.987900 0.281562
vt 0.975527 0.279691
vt 0.791507 1.000000
vt 0.770993 1.000000
vt 0.487900 0.281562
vt 0.481869 0.311881
vt 0.750160 0.500000
vt 0.770674 0.500000
vt 0.987962 0.281086
vt 0.989984 0.250240
vt 0.977473 0.250000
vt 0.770674 1.000000
vt 0.750160 1.000000
vt 0.489984 0.250240
vt 0.487963 0.281086
vt 0.729327 0.500000
vt 0.749841 0.500000
vt 0.989984 0.249760
vt 0.987962 0.218914
vt 0.975527 0.220309
vt 0.749840 1.000000
vt 0.729327 1.000000
vt 0.487963 0.218914
vt 0.489984 0.249760
vt 0.708493 0.500000
vt 0.729007 0.500000
vt 0.987900 0.218438
vt 0.981869 0.188119
vt 0.969722 0.191126
vt 0.729007 1.000000
vt 0.708493 1.000000
vt 0.481869 0.188119
vt 0.487900 0.218438
vt 0.687660 0.500000
vt 0.708174 0.500000
vt 0.981745 0.187656
vt 0.971808 0.158384
vt 0.960158 0.162950
vt 0.708174 1.000000
vt 0.687660 1.000000
vt 0.471808 0.158384
vt 0.481745 0.187655
vt 0.666827 0.500000
vt 0.687341 0.500000
vt 0.971625 0.157940
vt 0.957953 0.130216
vt 0.946997 0.136263
vt 0.687341 1.000000
vt 0.666827 1.000000
vt 0.457953 0.130216
vt 0.471625 0.157940
vt 0.645993 0.500000
vt 0.666507 0.500000
vt 0.957712 0.129800
vt 0.940539 0.104097
vt 0.930467 0.111523
vt 0.666507 1.000000
vt 0.645993 1.000000
vt 0.440539 0.104097
vt 0.457712 0.129800
vt 0.625160 0.500000
vt 0.645674 0.500000
vt 0.940246 0.103716
vt 0.919864 0.080475
vt 0.910848 0.089152
vt 0.645674 1.000000
vt 0.625160 1.000000
vt 0.419864 0.080475
vt 0.440246 0.103716
vt 0.604327 0.500000
vt 0.624841 0.500000
vt 0.919525 0.080136
vt 0.896284 0.059754
vt 0.888477 0.069533
vt 0.624841 1.000000
vt 0.604327 1.000000
vt 0.396284 0.059754
vt 0.419525 0.080136
vt 0.583493 0.500000
vt 0.604007 0.500000
vt 0.895903 0.059461
vt 0.870200 0.042288
vt 0.863737 0.053002
vt 0.604007 1.000000
vt 0.583493 1.000000
vt 0.370200 0.042288
vt 0.395903 0.059461
vt 0.562660 0.500000
vt 0.583174 0.500000
vt 0.869784 0.042047
vt 0.842060 0.028375
vt 0.837050 0.039842
vt 0.583174 1.000000
vt 0.562660 1.000000
vt 0.342060 0.028375
vt 0.369784 0.042047
vt 0.541827 0.500000
vt 0.562341 0.500000
vt 0.841616 0.028192
vt 0.812344 0.018255
vt 0.808874 0.030278
vt 0.562341 1.000000
vt 0.541827 1.000000
vt 0.312345 0.018255
vt 0.341616 0.028192
vt 0.520994 0.500000
vt 0.541507 0.500000
vt 0.811880 0.018131
vt 0.781562 0.012100
vt 0.779691 0.024473
vt 0.541507 1.000000
vt 0.520994 1.000000
vt 0.281562 0.012100
vt 0.311881 0.018131
vt 0.500160 0.500000
vt 0.520674 0.500000
vt 0.781086 0.012037
vt 0.750240 0.010016
vt 0.750000 0.022527
vt 0.520674 1.000000
vt 0.500160 1.000000
vt 0.250240 0.010016
vt 0.281086 0.012037
vt 0.479327 0.500000
vt 0.499841 0.500000
vt 0.749760 0.010016
vt 0.718914 0.012037
vt 0.720309 0.024473
vt 0.499841 1.000000
vt 0.479327 1.000000
vt 0.218914 0.012037
vt 0.249760 0.010016
vt 0.458494 0.500000
vt 0.479007 0.500000
vt 0.718438 0.012100
vt 0.688119 0.018131
vt 0.691126 0.030278
vt 0.479007 1.000000
vt 0.458494 1.000000
vt 0.188119 0.018131
vt 0.218438 0.012100
vt 0.437660 0.500000
vt 0.458174 0.500000
vt 0.687656 0.018255
vt 0.658384 0.028192
vt 0.662950 0.039842
vt 0.458174 1.000000
vt 0.437660 1.000000
vt 0.158384 0.028192
vt 0.187655 0.018255
vt 0.416827 0.500000
vt 0.437341 0.500000
vt 0.657940 0.028375
vt 0.630216 0.042047
vt 0.636263 0.053002
vt 0.437341 1.000000
vt 0.416827 1.000000
vt 0.130216 0.042047
vt 0.157940 0.028375
vt 0.395994 0.500000
vt 0.416507 0.500000
vt 0.629800 0.042288
vt 0.604097 0.059461
vt 0.611523 0.069533
vt 0.416507 1.000000
vt 0.395994 1.000000
vt 0.104097 0.059461
vt 0.129800 0.042288
vt 0.375160 0.500000
vt 0.395674 0.500000
vt 0.603716 0.059754
vt 0.580475 0.080136
vt 0.589152 0.089152
vt 0.395674 1.000000
vt 0.375160 1.000000
vt 0.080475 0.080136
vt 0.103716 0.059754
vt 0.354327 0.500000
vt 0.374841 0.500000
vt 0.580136 0.080475
vt 0.559754 0.103716
vt 0.569534 0.111523
vt 0.374841 1.000000
vt 0.354327 1.000000
vt 0.059754 0.103716
vt 0.080136 0.080475
vt 0.333493 0.500000
vt 0.354007 0.500000
vt 0.559462 0.104097
vt 0.542288 0.129800
vt 0.553003 0.136263
vt 0.354007 1.000000
vt 0.333493 1.000000
vt 0.042288 0.129800
vt 0.059461 0.104097
vt 0.312660 0.500000
vt 0.333174 0.500000
vt 0.542047 0.130216
vt 0.528375 0.157940
vt 0.539842 0.162950
vt 0.333174 1.000000
vt 0.312660 1.000000
vt 0.028375 0.157940
vt 0.042047 0.130216
vt 0.291827 0.500000
vt 0.312341 0.500000
vt 0.528192 0.158384
vt 0.518255 0.187655
vt 0.530278 0.191126
vt 0.312341 1.000000
vt 0.291827 1.000000
vt 0.018255 0.187656
vt 0.028192 0.158384
vt 0.270993 0.500000
vt 0.291507 0.500000
vt 0.518131 0.188119
vt 0.512100 0.218438
vt 0.524473 0.220309
vt 0.291507 1.000000
vt 0.270993 1.000000
vt 0.012100 0.218438
vt 0.018131 0.188119
vt 0.250160 0.500000
vt 0.270674 0.500000
vt 0.512038 0.218914
vt 0.510016 0.249760
vt 0.522527 0.250000
vt 0.270674 1.000000
vt 0.250160 1.000000
vt 0.010016 0.249760
vt 0.012037 0.218914
vt 0.229327 0.500000
vt 0.249841 0.500000
vt 0.510016 0.250240
vt 0.512038 0.281086
vt 0.524473 0.279691
vt 0.249841 1.000000
vt 0.229327 1.000000
vt 0.012037 0.281086
vt 0.010016 0.250240
vt 0.208493 0.500000
vt 0.229007 0.500000
vt 0.512100 0.281562
vt 0.518131 0.311881
vt 0.530278 0.308874
vt 0.229007 1.000000
vt 0.208493 1.000000
vt 0.018131 0.311880
vt 0.012100 0.281562
vt 0.187660 0.500000
vt 0.208174 0.500000
vt 0.518255 0.312345
vt 0.528192 0.341616
vt 0.539842 0.337050
vt 0.208174 1.000000
vt 0.187660 1.000000
vt 0.028192 0.341616
vt 0.018255 0.312344
vt 0.166827 0.500000
vt 0.187341 0.500000
vt 0.528375 0.342060
vt 0.542047 0.369784
vt 0.553002 0.363737
vt 0.187341 1.000000
vt 0.166827 1.000000
vt 0.042047 0.369784
vt 0.028375 0.342060
vt 0.145993 0.500000
vt 0.166507 0.500000
vt 0.542288 0.370200
vt 0.559461 0.395903
vt 0.569533 0.388477
vt 0.166507 1.000000
vt 0.145993 1.000000
vt 0.059461 0.395903
vt 0.042288 0.370200
vt 0.125160 0.500000
vt 0.145674 0.500000
vt 0.559754 0.396284
vt 0.580136 0.419525
vt 0.589152 0.410848
vt 0.145674 1.000000
vt 0.125160 1.000000
vt 0.080136 0.419525
vt 0.059754 0.396284
vt 0.104327 0.500000
vt 0.124841 0.500000
vt 0.580475 0.419864
vt 0.603716 0.440246
vt 0.611523 0.430467
vt 0.124841 1.000000
vt 0.104327 1.000000
vt 0.103716 0.440246
vt 0.080475 0.419864
vt 0.083493 0.500000
vt 0.104007 0.500000
vt 0.604097 0.440539
vt 0.629800 0.457712
vt 0.636263 0.446998
vt 0.104007 1.000000
vt 0.083493 1.000000
vt 0.129800 0.457712
vt 0.104097 0.440538
vt 0.062660 0.500000
vt 0.083174 0.500000
vt 0.630216 0.457953
vt 0.657940 0.471625
vt 0.662950 0.460158
vt 0.083174 1.000000
vt 0.062660 1.000000
vt 0.157940 0.471625
vt 0.130216 0.457953
vt 0.041827 0.500000
vt 0.062341 0.500000
vt 0.658384 0.471808
vt 0.687656 0.481745
vt 0.691126 0.469722
vt 0.062341 1.000000
vt 0.041827 1.000000
vt 0.187656 0.481745
vt 0.158384 0.471808
vt 0.020993 0.500000
vt 0.041507 0.500000
vt 0.688119 0.481869
vt 0.718438 0.487900
vt 0.720309 0.475527
vt 0.041507 1.000000
vt 0.020993 1.000000
vt 0.218438 0.487900
vt 0.188119 0.481869
vt 0.000160 0.500000
vt 0.020674 0.500000
vt 0.718914 0.487963
vt 0.749760 0.489984
vt 0.020674 1.000000
vt 0.000160 1.000000
vt 0.249760 0.489984
vt 0.218914 0.487963
s 1
usemtl Anodized_graphite
f 284/1/1 287/2/2 5/3/3 2/4/4
f 14/5/5 17/6/6 23/7/7 20/8/8
f 20/8/8 23/7/7 29/9/9 26/10/10
f 26/10/10 29/9/9 35/11/11 32/12/12
f 32/12/12 35/11/11 41/13/13 38/14/14
f 38/14/14 41/13/13 47/15/15 44/16/16
f 44/16/16 47/15/15 53/17/17 50/18/18
f 50/18/18 53/17/17 59/19/19 56/20/20
f 56/20/20 59/19/19 65/21/21 62/22/22
f 62/22/22 65/21/21 71/23/23 68/24/24
f 68/24/24 71/23/23 77/25/25 74/26/26
f 74/26/26 77/25/25 83/27/27 80/28/28
f 80/28/28 83/27/27 89/29/29 86/30/30
f 86/30/30 89/29/29 95/31/31 92/32/32
f 92/32/32 95/31/31 101/33/33 98/34/34
f 98/34/34 101/33/33 107/35/35 104/36/36
f 104/36/36 107/35/35 113/37/37 110/38/38
f 110/38/38 113/37/37 119/39/39 116/40/40
f 116/40/40 119/39/39 125/41/41 122/42/42
f 122/42/42 125/41/41 131/43/43 128/44/44
f 128/44/44 131/43/43 137/45/45 134/46/46
f 134/46/46 137/45/45 143/47/47 140/48/48
f 140/48/48 143/47/47 149/49/49 146/50/50
f 146/50/50 149/49/49 155/51/51 152/52/52
f 152/52/52 155/51/51 161/53/53 158/54/54
f 158/54/54 161/53/53 167/55/55 164/56/56
f 164/56/56 167/55/55 173/57/57 170/58/58
f 170/58/58 173/57/57 179/59/59 176/60/60
f 176/60/60 179/59/59 185/61/61 182/62/62
f 182/62/62 185/61/61 191/63/63 188/64/64
f 188/64/64 191/63/63 197/65/65 194/66/66
f 194/66/66 197/65/65 203/67/67 200/68/68
f 200/68/68 203/67/67 209/69/69 206/70/70
f 206/70/70 209/69/69 215/71/71 212/72/72
f 212/72/72 215/71/71 221/73/73 218/74/74
f 218/74/74 221/73/73 227/75/75 224/76/76
f 224/76/76 227/75/75 233/77/77 230/78/78
f 230/78/78 233/77/77 239/79/79 236/80/80
f 236/80/80 239/79/79 245/81/81 242/82/82
f 242/82/82 245/81/81 251/83/83 248/84/84
f 248/84/84 251/83/83 257/85/85 254/86/86
f 254/86/86 257/85/85 263/87/87 260/88/88
f 260/88/88 263/87/87 269/89/89 266/90/90
f 266/90/90 269/89/89 275/91/91 272/92/92
f 272/92/92 275/91/91 281/93/93 278/94/94
f 278/94/94 281/93/93 287/2/2 284/1/1
f 8/95/95 11/96/96 17/6/6 14/5/5
f 10/97/97 4/98/98 286/99/99 280/100/100 274/101/101 268/102/102 262/103/103 256/104/104 250/105/105 244/106/106 238/107/107 232/108/108 226/109/109 220/110/110 214/111/111 208/112/112 202/113/113 196/114/114 190/115/115 184/116/116 178/117/117 172/118/118 166/119/119 160/120/120 154/121/121 148/122/122 142/123/123 136/124/124 130/125/125 124/126/126 118/127/127 112/128/128 106/129/129 100/130/130 94/131/131 88/132/132 82/133/133 76/134/134 70/135/135 64/136/136 58/137/137 52/138/138 46/139/139 40/140/140 34/141/141 28/142/142 22/143/143 16/144/144
f 2/145/4 5/146/3 11/96/96 8/95/95
f 2/145/4 8/95/95 9/147/145 3/148/146
f 3/149/146 9/150/145 7/151/147 1/152/148
f 11/96/96 5/146/3 6/153/149 12/154/150
f 12/155/150 6/156/149 4/98/98 10/97/97
f 8/95/95 14/5/5 15/157/151 9/158/145
f 9/159/145 15/160/151 13/161/152 7/151/147
f 17/6/6 11/96/96 12/162/150 18/163/153
f 18/164/153 12/165/150 10/97/97 16/144/144
f 14/5/5 20/8/8 21/166/154 15/167/151
f 15/168/151 21/169/154 19/170/155 13/161/152
f 23/7/7 17/6/6 18/171/153 24/172/156
f 24/173/156 18/174/153 16/144/144 22/143/143
f 20/8/8 26/10/10 27/175/157 21/176/154
f 21/177/154 27/178/157 25/179/158 19/170/155
f 29/9/9 23/7/7 24/180/156 30/181/159
f 30/182/159 24/183/156 22/143/143 28/142/142
f 26/10/10 32/12/12 33/184/160 27/185/157
f 27/186/157 33/187/160 31/188/161 25/179/158
f 35/11/11 29/9/9 30/189/159 36/190/162
f 36/191/162 30/192/159 28/142/142 34/141/141
f 32/12/12 38/14/14 39/193/163 33/194/160
f 33/195/160 39/196/163 37/197/164 31/188/161
f 41/13/13 35/11/11 36/198/162 42/199/165
f 42/200/165 36/201/162 34/141/141 40/140/140
f 38/14/14 44/16/16 45/202/166 39/203/163
f 39/204/163 45/205/166 43/206/167 37/197/164
f 47/15/15 41/13/13 42/207/165 48/208/168
f 48/209/168 42/210/165 40/140/140 46/139/139
f 44/16/16 50/18/18 51/211/169 45/212/166
f 45/213/166 51/214/169 49/215/170 43/206/167
f 53/17/17 47/15/15 48/216/168 54/217/171
f 54/218/171 48/219/168 46/139/139 52/138/138
f 50/18/18 56/20/20 57/220/172 51/221/169
f 51/222/169 57/223/172 55/224/173 49/215/170
f 59/19/19 53/17/17 54/225/171 60/226/174
f 60/227/174 54/228/171 52/138/138 58/137/137
f 56/20/20 62/22/22 63/229/175 57/230/172
f 57/231/172 63/232/175 61/233/176 55/224/173
f 65/21/21 59/19/19 60/234/174 66/235/177
f 66/236/177 60/237/174 58/137/137 64/136/136
f 62/22/22 68/24/24 69/238/178 63/239/175
f 63/240/175 69/241/178 67/242/179 61/233/176
f 71/23/23 65/21/21 66/243/177 72/244/180
f 72/245/180 66/246/177 64/136/136 70/135/135
f 68/24/24 74/26/26 75/247/181 69/248/178
f 69/249/178 75/250/181 73/251/182 67/242/179
f 77/25/25 71/23/23 72/252/180 78/253/183
f 78/254/183 72/255/180 70/135/135 76/134/134
f 74/26/26 80/28/28 81/256/184 75/257/181
f 75/258/181 81/259/184 79/260/185 73/251/182
f 83/27/27 77/25/25 78/261/183 84/262/186
f 84/263/186 78/264/183 76/134/134 82/133/133
f 80/28/28 86/30/30 87/265/187 81/266/184
f 81/267/184 87/268/187 85/269/188 79/260/185
f 89/29/29 83/27/27 84/270/186 90/271/189
f 90/272/189 84/273/186 82/133/133 88/132/132
f 86/30/30 92/32/32 93/274/190 87/275/187
f 87/276/187 93/277/190 91/278/191 85/269/188
f 95/31/31 89/29/29 90/279/189 96/280/192
f 96/281/192 90/282/189 88/132/132 94/131/131
f 92/32/32 98/34/34 99/283/193 93/284/190
f 93/285/190 99/286/193 97/287/194 91/278/191
f 101/33/33 95/31/31 96/288/192 102/289/195
f 102/290/195 96/291/192 94/131/131 100/130/130
f 98/34/34 104/36/36 105/292/196 99/293/193
f 99/294/193 105/295/196 103/296/197 97/287/194
f 107/35/35 101/33/33 102/297/195 108/298/198
f 108/299/198 102/300/195 100/130/130 106/129/129
f 104/36/36 110/38/38 111/301/199 105/302/196
f 105/303/196 111/304/199 109/305/200 103/296/197
f 113/37/37 107/35/35 108/306/198 114/307/201
f 114/308/201 108/309/198 106/129/129 112/128/128
f 110/38/38 116/40/40 117/310/202 111/311/199
f 111/312/199 117/313/202 115/314/203 109/305/200
f 119/39/39 113/37/37 114/315/201 120/316/204
f 120/317/204 114/318/201 112/128/128 118/127/127
f 116/40/40 122/42/42 123/319/205 117/320/202
f 117/321/202 123/322/205 121/323/206 115/314/203
f 125/41/41 119/39/39 120/324/204 126/325/207
f 126/326/207 120/327/204 118/127/127 124/126/126
f 122/42/42 128/44/44 129/328/208 123/329/205
f 123/330/205 129/331/208 127/332/209 121/323/206
f 131/43/43 125/41/41 126/333/207 132/334/210
f 132/335/210 126/336/207 124/126/126 130/125/125
f 128/44/44 134/46/46 135/337/211 129/338/208
f 129/339/208 135/340/211 133/341/212 127/332/209
f 137/45/45 131/43/43 132/342/210 138/343/213
f 138/344/213 132/345/210 130/125/125 136/124/124
f 134/46/46 140/48/48 141/346/214 135/347/211
f 135/348/211 141/349/214 139/350/215 133/341/212
f 143/47/47 137/45/45 138/351/213 144/352/216
f 144/353/216 138/354/213 136/124/124 142/123/123
f 140/48/48 146/50/50 147/355/217 141/356/214
f 141/357/214 147/358/217 145/359/218 139/350/215
f 149/49/49 143/47/47 144/360/216 150/361/219
f 150/362/219 144/363/216 142/123/123 148/122/122
f 146/50/50 152/52/52 153/364/220 147/365/217
f 147/366/217 153/367/220 151/368/221 145/359/218
f 155/51/51 149/49/49 150/369/219 156/370/222
f 156/371/222 150/372/219 148/122/122 154/121/121
f 152/52/52 158/54/54 159/373/223 153/374/220
f 153/375/220 159/376/223 157/377/224 151/368/221
f 161/53/53 155/51/51 156/378/222 162/379/225
f 162/380/225 156/381/222 154/121/121 160/120/120
f 158/54/54 164/56/56 165/382/226 159/383/223
f 159/384/223 165/385/226 163/386/227 157/377/224
f 167/55/55 161/53/53 162/387/225 168/388/228
f 168/389/228 162/390/225 160/120/120 166/119/119
f 164/56/56 170/58/58 171/391/229 165/392/226
f 165/393/226 171/394/229 169/395/230 163/386/227
f 173/57/57 167/55/55 168/396/228 174/397/231
f 174/398/231 168/399/228 166/119/119 172/118/118
f 170/58/58 176/60/60 177/400/232 171/401/229
f 171/402/229 177/403/232 175/404/233 169/395/230
f 179/59/59 173/57/57 174/405/231 180/406/234
f 180/407/234 174/408/231 172/118/118 178/117/117
f 176/60/60 182/62/62 183/409/235 177/410/232
f 177/411/232 183/412/235 181/413/236 175/404/233
f 185/61/61 179/59/59 180/414/234 186/415/237
f 186/416/237 180/417/234 178/117/117 184/116/116
f 182/62/62 188/64/64 189/418/238 183/419/235
f 183/420/235 189/421/238 187/422/239 181/413/236
f 191/63/63 185/61/61 186/423/237 192/424/240
f 192/425/240 186/426/237 184/116/116 190/115/115
f 188/64/64 194/66/66 195/427/241 189/428/238
f 189/429/238 195/430/241 193/431/242 187/422/239
f 197/65/65 191/63/63 192/432/240 198/433/243
f 198/434/243 192/435/240 190/115/115 196/114/114
f 194/66/66 200/68/68 201/436/244 195/437/241
f 195/438/241 201/439/244 199/440/245 193/431/242
f 203/67/67 197/65/65 198/441/243 204/442/246
f 204/443/246 198/444/243 196/114/114 202/113/113
f 200/68/68 206/70/70 207/445/247 201/446/244
f 201/447/244 207/448/247 205/449/248 199/440/245
f 209/69/69 203/67/67 204/450/246 210/451/249
f 210/452/249 204/453/246 202/113/113 208/112/112
f 206/70/70 212/72/72 213/454/250 207/455/247
f 207/456/247 213/457/250 211/458/251 205/449/248
f 215/71/71 209/69/69 210/459/249 216/460/252
f 216/461/252 210/462/249 208/112/112 214/111/111
f 212/72/72 218/74/74 219/463/253 213/464/250
f 213/465/250 219/466/253 217/467/254 211/458/251
f 221/73/73 215/71/71 216/468/252 222/469/255
f 222/470/255 216/471/252 214/111/111 220/110/110
f 218/74/74 224/76/76 225/472/256 219/473/253
f 219/474/253 225/475/256 223/476/257 217/467/254
f 227/75/75 221/73/73 222/477/255 228/478/258
f 228/479/258 222/480/255 220/110/110 226/109/109
f 224/76/76 230/78/78 231/481/259 225/482/256
f 225/483/256 231/484/259 229/485/260 223/476/257
f 233/77/77 227/75/75 228/486/258 234/487/261
f 234/488/261 228/489/258 226/109/109 232/108/108
f 230/78/78 236/80/80 237/490/262 231/491/259
f 231/492/259 237/493/262 235/494/263 229/485/260
f 239/79/79 233/77/77 234/495/261 240/496/264
f 240/497/264 234/498/261 232/108/108 238/107/107
f 236/80/80 242/82/82 243/499/265 237/500/262
f 237/501/262 243/502/265 241/503/266 235/494/263
f 245/81/81 239/79/79 240/504/264 246/505/267
f 246/506/267 240/507/264 238/107/107 244/106/106
f 242/82/82 248/84/84 249/508/268 243/509/265
f 243/510/265 249/511/268 247/512/269 241/503/266
f 251/83/83 245/81/81 246/513/267 252/514/270
f 252/515/270 246/516/267 244/106/106 250/105/105
f 248/84/84 254/86/86 255/517/271 249/518/268
f 249/519/268 255/520/271 253/521/272 247/512/269
f 257/85/85 251/83/83 252/522/270 258/523/273
f 258/524/273 252/525/270 250/105/105 256/104/104
f 254/86/86 260/88/88 261/526/274 255/527/271
f 255/528/271 261/529/274 259/530/275 253/521/272
f 263/87/87 257/85/85 258/531/273 264/532/276
f 264/533/276 258/534/273 256/104/104 262/103/103
f 260/88/88 266/90/90 267/535/277 261/536/274
f 261/537/274 267/538/277 265/539/278 259/530/275
f 269/89/89 263/87/87 264/540/276 270/541/279
f 270/542/279 264/543/276 262/103/103 268/102/102
f 266/90/90 272/92/92 273/544/280 267/545/277
f 267/546/277 273/547/280 271/548/281 265/539/278
f 275/91/91 269/89/89 270/549/279 276/550/282
f 276/551/282 270/552/279 268/102/102 274/101/101
f 272/92/92 278/94/94 279/553/283 273/554/280
f 273/555/280 279/556/283 277/557/284 271/548/281
f 281/93/93 275/91/91 276/558/282 282/559/285
f 282/560/285 276/561/282 274/101/101 280/100/100
f 278/94/94 284/1/1 285/562/286 279/563/283
f 279/564/283 285/565/286 283/566/287 277/557/284
f 287/2/2 281/93/93 282/567/285 288/568/288
f 288/569/288 282/570/285 280/100/100 286/99/99
f 284/1/1 2/4/4 3/571/146 285/572/286
f 285/573/286 3/574/146 1/152/148 283/566/287
f 5/3/3 287/2/2 288/575/288 6/576/149
f 6/577/149 288/578/288 286/99/99 4/98/98
f 1/152/148 7/151/147 13/161/152 19/170/155 25/179/158 31/188/161 37/197/164 43/206/167 49/215/170 55/224/173 61/233/176 67/242/179 73/251/182 79/260/185 85/269/188 91/278/191 97/287/194 103/296/197 109/305/200 115/314/203 121/323/206 127/332/209 133/341/212 139/350/215 145/359/218 151/368/221 157/377/224 163/386/227 169/395/230 175/404/233 181/413/236 187/422/239 193/431/242 199/440/245 205/449/248 211/458/251 217/467/254 223/476/257 229/485/260 235/494/263 241/503/266 247/512/269 253/521/272 259/530/275 265/539/278 271/548/281 277/557/284 283/566/287
o Carbon_propeller_blade.007
v 0.281093 0.374080 -0.298819
v 0.286126 0.376320 -0.283631
v 0.256733 0.373240 -0.292853
v 0.265540 0.377160 -0.266275
v 0.201677 0.372540 -0.274609
v 0.213630 0.377860 -0.238538
v 0.143122 0.373380 -0.244669
v 0.151301 0.377020 -0.219989
v 0.101665 0.374500 -0.226717
v 0.104811 0.375900 -0.217225
v 0.091098 0.375102 -0.223953
v 0.091539 0.375298 -0.222624
v 0.281093 0.375680 -0.298819
v 0.286126 0.377920 -0.283631
v 0.256733 0.374840 -0.292853
v 0.265540 0.378760 -0.266275
v 0.201677 0.374140 -0.274609
v 0.213630 0.379460 -0.238538
v 0.143122 0.374980 -0.244669
v 0.151301 0.378620 -0.219989
v 0.101665 0.376100 -0.226717
v 0.104811 0.377500 -0.217225
v 0.091098 0.376702 -0.223953
v 0.091539 0.376898 -0.222624
vn 0.0038 -0.9976 0.0695
vn -0.0292 -0.9963 0.0803
vn 0.0283 -0.9963 0.0810
vn 0.0418 -0.9962 0.0765
vn 0.0351 -0.9959 0.0836
vn 0.0343 -0.9959 0.0838
vn 0.0344 -0.9959 0.0838
vn 0.0347 -0.9968 0.0716
vn 0.0200 -0.9969 0.0764
vn 0.0335 -0.9990 0.0283
vn -0.0093 -0.9991 0.0425
vn 0.0862 -0.9810 -0.1739
vn -0.1207 -0.9870 -0.1062
vn 0.0038 -0.9976 0.0693
vn 0.0418 -0.9962 0.0764
vn 0.0162 -0.9977 0.0663
vn 0.0417 -0.9962 0.0765
vn 0.0344 -0.9959 0.0837
vn 0.0411 -0.9959 0.0803
vn 0.0199 -0.9969 0.0764
vn -0.0094 -0.9991 0.0424
vn 0.0310 -0.9970 0.0716
vn -0.0093 -0.9991 0.0424
vn -0.1207 -0.9870 -0.1063
vn 0.0282 -0.9963 0.0810
vn 0.0351 -0.9959 0.0835
vn 0.0350 -0.9959 0.0835
vn 0.0399 -0.9964 0.0747
vn 0.0346 -0.9968 0.0715
vn 0.0347 -0.9968 0.0715
vn 0.0257 -0.9959 0.0863
vn 0.0336 -0.9990 0.0283
vn 0.0862 -0.9810 -0.1740
vn -0.0292 -0.9963 0.0802
vn -0.0292 -0.9963 0.0804
vn 0.0038 -0.9976 0.0694
vn 0.0861 -0.9810 -0.1740
s 0
usemtl Carbon_composite_•_woven_graphite
f 289//289 290//290 292//291 291//292
f 291//292 292//291 294//293 293//294
f 293//295 294//293 296//296 295//297
f 295//297 296//296 298//298 297//299
f 297//299 298//298 300//300 299//301
f 301//289 302//290 304//291 303//292
f 303//292 304//291 306//293 305//294
f 305//295 306//293 308//296 307//297
f 307//297 308//296 310//298 309//299
f 309//299 310//298 312//300 311//301
f 289//302 291//303 303//303 301//304
f 291//305 293//294 305//295 303//292
f 293//306 295//297 307//297 305//307
f 295//308 297//309 309//309 307//310
f 297//311 299//312 311//312 309//311
f 290//290 292//291 304//291 302//290
f 292//313 294//314 306//315 304//316
f 294//314 296//317 308//318 306//319
f 296//318 298//298 310//298 308//318
f 298//320 300//321 312//321 310//320
f 289//289 290//322 302//323 301//324
f 299//312 300//300 312//325 311//301
o Carbon_propeller_blade.006
v 0.308907 0.374080 -0.291181
v 0.303874 0.376320 -0.306369
v 0.333267 0.373240 -0.297147
v 0.324460 0.377160 -0.323725
v 0.388323 0.372540 -0.315391
v 0.376370 0.377860 -0.351462
v 0.446878 0.373380 -0.345331
v 0.438699 0.377020 -0.370011
v 0.488335 0.374500 -0.363283
v 0.485189 0.375900 -0.372775
v 0.498902 0.375102 -0.366047
v 0.498461 0.375298 -0.367376
v 0.308907 0.375680 -0.291181
v 0.303874 0.377920 -0.306369
v 0.333267 0.374840 -0.297147
v 0.324460 0.378760 -0.323725
v 0.388323 0.374140 -0.315391
v 0.376370 0.379460 -0.351462
v 0.446878 0.374980 -0.345331
v 0.438699 0.378620 -0.370011
v 0.488335 0.376100 -0.363283
v 0.485189 0.377500 -0.372775
v 0.498902 0.376702 -0.366047
v 0.498461 0.376898 -0.367376
vn -0.0038 -0.9976 -0.0695
vn 0.0292 -0.9963 -0.0803
vn -0.0283 -0.9963 -0.0810
vn -0.0418 -0.9962 -0.0765
vn -0.0351 -0.9959 -0.0836
vn -0.0343 -0.9959 -0.0838
vn -0.0344 -0.9959 -0.0838
vn -0.0347 -0.9968 -0.0716
vn -0.0200 -0.9969 -0.0764
vn -0.0335 -0.9990 -0.0283
vn 0.0093 -0.9991 -0.0425
vn -0.0862 -0.9810 0.1739
vn 0.1207 -0.9870 0.1062
vn -0.0038 -0.9976 -0.0693
vn -0.0418 -0.9962 -0.0764
vn -0.0162 -0.9977 -0.0663
vn -0.0417 -0.9962 -0.0765
vn -0.0344 -0.9959 -0.0837
vn -0.0411 -0.9959 -0.0803
vn -0.0199 -0.9969 -0.0764
vn 0.0094 -0.9991 -0.0424
vn -0.0310 -0.9970 -0.0716
vn 0.0093 -0.9991 -0.0424
vn 0.1207 -0.9870 0.1063
vn -0.0282 -0.9963 -0.0810
vn -0.0351 -0.9959 -0.0835
vn -0.0350 -0.9959 -0.0835
vn -0.0399 -0.9964 -0.0747
vn -0.0346 -0.9968 -0.0715
vn -0.0347 -0.9968 -0.0715
vn -0.0257 -0.9959 -0.0863
vn -0.0336 -0.9990 -0.0283
vn -0.0862 -0.9810 0.1740
vn 0.0292 -0.9963 -0.0802
vn 0.0292 -0.9963 -0.0804
vn -0.0038 -0.9976 -0.0694
vn -0.0861 -0.9810 0.1740
s 0
usemtl Carbon_composite_•_woven_graphite
f 313//326 314//327 316//328 315//329
f 315//329 316//328 318//330 317//331
f 317//332 318//330 320//333 319//334
f 319//334 320//333 322//335 321//336
f 321//336 322//335 324//337 323//338
f 325//326 326//327 328//328 327//329
f 327//329 328//328 330//330 329//331
f 329//332 330//330 332//333 331//334
f 331//334 332//333 334//335 333//336
f 333//336 334//335 336//337 335//338
f 313//339 315//340 327//340 325//341
f 315//342 317//331 329//332 327//329
f 317//343 319//334 331//334 329//344
f 319//345 321//346 333//346 331//347
f 321//348 323//349 335//349 333//348
f 314//327 316//328 328//328 326//327
f 316//350 318//351 330//352 328//353
f 318//351 320//354 332//355 330//356
f 320//355 322//335 334//335 332//355
f 322//357 324//358 336//358 334//357
f 313//326 314//359 326//360 325//361
f 323//349 324//337 336//362 335//338
