# Blender 4.3.2
# www.blender.org
mtllib propeller_2.mtl
o Carbon_propeller_blade.006
v 0.013807 -0.000305 0.003868
v 0.008774 0.001935 -0.011320
v 0.038167 -0.001145 -0.002098
v 0.029360 0.002775 -0.028676
v 0.093223 -0.001845 -0.020342
v 0.081270 0.003475 -0.056413
v 0.151778 -0.001005 -0.050282
v 0.143599 0.002635 -0.074962
v 0.193235 0.000115 -0.068234
v 0.190089 0.001515 -0.077726
v 0.203802 0.000717 -0.070998
v 0.203361 0.000913 -0.072327
v 0.013807 0.001295 0.003868
v 0.008774 0.003535 -0.011320
v 0.038167 0.000455 -0.002098
v 0.029360 0.004375 -0.028676
v 0.093223 -0.000245 -0.020342
v 0.081270 0.005075 -0.056413
v 0.151778 0.000595 -0.050282
v 0.143599 0.004235 -0.074962
v 0.193235 0.001715 -0.068234
v 0.190089 0.003115 -0.077726
v 0.203802 0.002317 -0.070998
v 0.203361 0.002513 -0.072327
vn -0.0039 -0.9976 -0.0694
vn 0.0292 -0.9963 -0.0803
vn -0.0283 -0.9963 -0.0810
vn -0.0418 -0.9962 -0.0765
vn -0.0351 -0.9959 -0.0836
vn -0.0344 -0.9959 -0.0838
vn -0.0347 -0.9968 -0.0716
vn -0.0200 -0.9969 -0.0764
vn -0.0335 -0.9990 -0.0283
vn 0.0093 -0.9991 -0.0425
vn -0.0862 -0.9810 0.1739
vn 0.1207 -0.9870 0.1062
vn 0.0292 -0.9963 -0.0804
vn -0.0312 -0.9963 -0.0795
vn -0.0327 -0.9959 -0.0843
vn -0.0335 -0.9990 -0.0284
vn -0.0862 -0.9810 0.1740
vn 0.1207 -0.9870 0.1061
vn -0.0418 -0.9962 -0.0764
vn -0.0162 -0.9977 -0.0663
vn -0.0378 -0.9959 -0.0821
vn -0.0254 -0.9969 -0.0739
vn 0.0094 -0.9991 -0.0424
vn 0.0292 -0.9963 -0.0802
vn -0.0282 -0.9963 -0.0810
vn -0.0351 -0.9959 -0.0835
vn -0.0347 -0.9968 -0.0715
vn -0.0039 -0.9976 -0.0696
vn -0.0861 -0.9810 0.1740
s 1
usemtl Carbon_composite_•_woven_graphite.001
f 1//1 2//2 4//3 3//4
f 3//4 4//3 6//5 5//6
f 5//6 6//5 8//7 7//8
f 7//8 8//7 10//9 9//10
f 9//10 10//9 12//11 11//12
f 13//1 14//13 16//14 15//4
f 15//4 16//14 18//15 17//6
f 17//6 18//15 20//7 19//8
f 19//8 20//7 22//16 21//10
f 21//10 22//16 24//17 23//18
f 1//1 3//4 15//19 13//20
f 3//4 5//6 17//21 15//19
f 5//6 7//8 19//22 17//21
f 7//8 9//10 21//23 19//22
f 9//10 11//12 23//12 21//23
f 2//24 4//25 16//14 14//13
f 4//25 6//26 18//15 16//14
f 6//26 8//27 20//7 18//15
f 8//27 10//9 22//16 20//7
f 10//9 12//17 24//17 22//16
f 1//28 2//24 14//13 13//1
f 11//12 12//11 24//29 23//12
o Carbon_propeller_blade.007
v -0.014007 -0.000305 -0.003770
v -0.008974 0.001935 0.011418
v -0.038367 -0.001145 0.002196
v -0.029560 0.002775 0.028774
v -0.093423 -0.001845 0.020440
v -0.081470 0.003475 0.056511
v -0.151978 -0.001005 0.050380
v -0.143799 0.002635 0.075060
v -0.193435 0.000115 0.068332
v -0.190289 0.001515 0.077824
v -0.204002 0.000717 0.071096
v -0.203561 0.000913 0.072425
v -0.014007 0.001295 -0.003770
v -0.008974 0.003535 0.011418
v -0.038367 0.000455 0.002196
v -0.029560 0.004375 0.028774
v -0.093423 -0.000245 0.020440
v -0.081470 0.005075 0.056511
v -0.151978 0.000595 0.050380
v -0.143799 0.004235 0.075060
v -0.193435 0.001715 0.068332
v -0.190289 0.003115 0.077824
v -0.204002 0.002317 0.071096
v -0.203561 0.002513 0.072425
vn 0.0039 -0.9976 0.0694
vn -0.0292 -0.9963 0.0803
vn 0.0283 -0.9963 0.0810
vn 0.0418 -0.9962 0.0765
vn 0.0351 -0.9959 0.0836
vn 0.0344 -0.9959 0.0838
vn 0.0347 -0.9968 0.0716
vn 0.0200 -0.9969 0.0764
vn 0.0335 -0.9990 0.0283
vn -0.0093 -0.9991 0.0425
vn 0.0862 -0.9810 -0.1739
vn -0.1207 -0.9870 -0.1062
vn -0.0292 -0.9963 0.0804
vn 0.0312 -0.9963 0.0795
vn 0.0327 -0.9959 0.0843
vn 0.0862 -0.9810 -0.1740
vn 0.0418 -0.9962 0.0764
vn 0.0162 -0.9977 0.0663
vn 0.0378 -0.9959 0.0821
vn 0.0254 -0.9969 0.0739
vn -0.0094 -0.9991 0.0424
vn -0.0292 -0.9963 0.0802
vn 0.0282 -0.9963 0.0810
vn 0.0351 -0.9959 0.0835
vn 0.0346 -0.9968 0.0715
vn 0.0039 -0.9976 0.0696
vn 0.0861 -0.9810 -0.1740
s 1
usemtl Carbon_composite_•_woven_graphite.001
f 25//30 26//31 28//32 27//33
f 27//33 28//32 30//34 29//35
f 29//35 30//34 32//36 31//37
f 31//37 32//36 34//38 33//39
f 33//39 34//38 36//40 35//41
f 37//30 38//42 40//43 39//33
f 39//33 40//43 42//44 41//35
f 41//35 42//44 44//36 43//37
f 43//37 44//36 46//38 45//39
f 45//39 46//38 48//45 47//41
f 25//30 27//33 39//46 37//47
f 27//33 29//35 41//48 39//46
f 29//35 31//37 43//49 41//48
f 31//37 33//39 45//50 43//49
f 33//39 35//41 47//41 45//50
f 26//51 28//52 40//43 38//42
f 28//52 30//53 42//44 40//43
f 30//53 32//54 44//36 42//44
f 32//54 34//38 46//38 44//36
f 34//38 36//45 48//45 46//38
f 25//55 26//51 38//42 37//30
f 35//41 36//40 48//56 47//41
o Propeller_hub.003
v -0.000050 0.000115 -0.011325
v -0.000050 0.000740 -0.011951
v -0.000050 0.000298 -0.011767
v -0.000050 0.005115 -0.011325
v -0.000050 0.004490 -0.011951
v -0.000050 0.004932 -0.011767
v 0.001435 0.000115 -0.011227
v 0.001516 0.000740 -0.011848
v 0.001492 0.000298 -0.011666
v 0.001435 0.005115 -0.011227
v 0.001516 0.004490 -0.011848
v 0.001492 0.004932 -0.011666
v 0.002894 0.000115 -0.010937
v 0.003056 0.000740 -0.011542
v 0.003008 0.000298 -0.011364
v 0.002894 0.005115 -0.010937
v 0.003056 0.004490 -0.011542
v 0.003008 0.004932 -0.011364
v 0.004302 0.000115 -0.010459
v 0.004542 0.000740 -0.011038
v 0.004472 0.000298 -0.010868
v 0.004302 0.005115 -0.010459
v 0.004542 0.004490 -0.011038
v 0.004472 0.004932 -0.010868
v 0.005637 0.000115 -0.009801
v 0.005950 0.000740 -0.010343
v 0.005858 0.000298 -0.010184
v 0.005637 0.005115 -0.009801
v 0.005950 0.004490 -0.010343
v 0.005858 0.004932 -0.010184
v 0.006874 0.000115 -0.008974
v 0.007255 0.000740 -0.009471
v 0.007143 0.000298 -0.009325
v 0.006874 0.005115 -0.008974
v 0.007255 0.004490 -0.009471
v 0.007143 0.004932 -0.009325
v 0.007992 0.000115 -0.007993
v 0.008435 0.000740 -0.008436
v 0.008305 0.000298 -0.008306
v 0.007992 0.005115 -0.007993
v 0.008435 0.004490 -0.008436
v 0.008305 0.004932 -0.008306
v 0.008973 0.000115 -0.006875
v 0.009470 0.000740 -0.007256
v 0.009324 0.000298 -0.007144
v 0.008973 0.005115 -0.006875
v 0.009470 0.004490 -0.007256
v 0.009324 0.004932 -0.007144
v 0.009800 0.000115 -0.005638
v 0.010342 0.000740 -0.005951
v 0.010183 0.000298 -0.005859
v 0.009800 0.005115 -0.005638
v 0.010342 0.004490 -0.005951
v 0.010183 0.004932 -0.005859
v 0.010458 0.000115 -0.004303
v 0.011037 0.000740 -0.004543
v 0.010867 0.000298 -0.004473
v 0.010458 0.005115 -0.004303
v 0.011037 0.004490 -0.004543
v 0.010867 0.004932 -0.004473
v 0.010936 0.000115 -0.002895
v 0.011541 0.000740 -0.003057
v 0.011363 0.000298 -0.003009
v 0.010936 0.005115 -0.002895
v 0.011541 0.004490 -0.003057
v 0.011363 0.004932 -0.003009
v 0.011226 0.000115 -0.001436
v 0.011847 0.000740 -0.001517
v 0.011665 0.000298 -0.001493
v 0.011226 0.005115 -0.001436
v 0.011847 0.004490 -0.001517
v 0.011665 0.004932 -0.001493
v 0.011324 0.000115 0.000049
v 0.011950 0.000740 0.000049
v 0.011766 0.000298 0.000049
v 0.011324 0.005115 0.000049
v 0.011950 0.004490 0.000049
v 0.011766 0.004932 0.000049
v 0.011226 0.000115 0.001534
v 0.011847 0.000740 0.001615
v 0.011665 0.000298 0.001591
v 0.011226 0.005115 0.001534
v 0.011847 0.004490 0.001615
v 0.011665 0.004932 0.001591
v 0.010936 0.000115 0.002993
v 0.011541 0.000740 0.003155
v 0.011363 0.000298 0.003107
v 0.010936 0.005115 0.002993
v 0.011541 0.004490 0.003155
v 0.011363 0.004932 0.003107
v 0.010458 0.000115 0.004402
v 0.011037 0.000740 0.004641
v 0.010867 0.000298 0.004571
v 0.010458 0.005115 0.004402
v 0.011037 0.004490 0.004641
v 0.010867 0.004932 0.004571
v 0.009800 0.000115 0.005736
v 0.010342 0.000740 0.006049
v 0.010183 0.000298 0.005957
v 0.009800 0.005115 0.005736
v 0.010342 0.004490 0.006049
v 0.010183 0.004932 0.005957
v 0.008973 0.000115 0.006973
v 0.009470 0.000740 0.007354
v 0.009324 0.000298 0.007242
v 0.008973 0.005115 0.006973
v 0.009470 0.004490 0.007354
v 0.009324 0.004932 0.007242
v 0.007992 0.000115 0.008091
v 0.008435 0.000740 0.008534
v 0.008305 0.000298 0.008404
v 0.007992 0.005115 0.008091
v 0.008435 0.004490 0.008534
v 0.008305 0.004932 0.008404
v 0.006874 0.000115 0.009072
v 0.007255 0.000740 0.009569
v 0.007143 0.000298 0.009423
v 0.006874 0.005115 0.009072
v 0.007255 0.004490 0.009569
v 0.007143 0.004932 0.009423
v 0.005637 0.000115 0.009899
v 0.005950 0.000740 0.010441
v 0.005858 0.000298 0.010282
v 0.005637 0.005115 0.009899
v 0.005950 0.004490 0.010441
v 0.005858 0.004932 0.010282
v 0.004302 0.000115 0.010557
v 0.004542 0.000740 0.011136
v 0.004472 0.000298 0.010966
v 0.004302 0.005115 0.010557
v 0.004542 0.004490 0.011136
v 0.004472 0.004932 0.010966
v 0.002894 0.000115 0.011035
v 0.003056 0.000740 0.011640
v 0.003008 0.000298 0.011462
v 0.002894 0.005115 0.011035
v 0.003056 0.004490 0.011640
v 0.003008 0.004932 0.011462
v 0.001435 0.000115 0.011325
v 0.001516 0.000740 0.011946
v 0.001492 0.000298 0.011764
v 0.001435 0.005115 0.011325
v 0.001516 0.004490 0.011946
v 0.001492 0.004932 0.011764
v -0.000050 0.000115 0.011423
v -0.000050 0.000740 0.012049
v -0.000050 0.000298 0.011865
v -0.000050 0.005115 0.011423
v -0.000050 0.004490 0.012049
v -0.000050 0.004932 0.011865
v -0.001535 0.000115 0.011325
v -0.001616 0.000740 0.011946
v -0.001592 0.000298 0.011764
v -0.001535 0.005115 0.011325
v -0.001616 0.004490 0.011946
v -0.001592 0.004932 0.011764
v -0.002994 0.000115 0.011035
v -0.003156 0.000740 0.011640
v -0.003108 0.000298 0.011462
v -0.002994 0.005115 0.011035
v -0.003156 0.004490 0.011640
v -0.003108 0.004932 0.011462
v -0.004403 0.000115 0.010557
v -0.004642 0.000740 0.011136
v -0.004572 0.000298 0.010966
v -0.004403 0.005115 0.010557
v -0.004642 0.004490 0.011136
v -0.004572 0.004932 0.010966
v -0.005737 0.000115 0.009899
v -0.006050 0.000740 0.010441
v -0.005958 0.000298 0.010282
v -0.005737 0.005115 0.009899
v -0.006050 0.004490 0.010441
v -0.005958 0.004932 0.010282
v -0.006974 0.000115 0.009072
v -0.007355 0.000740 0.009569
v -0.007243 0.000298 0.009423
v -0.006974 0.005115 0.009072
v -0.007355 0.004490 0.009569
v -0.007243 0.004932 0.009423
v -0.008092 0.000115 0.008091
v -0.008535 0.000740 0.008534
v -0.008405 0.000298 0.008404
v -0.008092 0.005115 0.008091
v -0.008535 0.004490 0.008534
v -0.008405 0.004932 0.008404
v -0.009073 0.000115 0.006973
v -0.009570 0.000740 0.007354
v -0.009424 0.000298 0.007242
v -0.009073 0.005115 0.006973
v -0.009570 0.004490 0.007354
v -0.009424 0.004932 0.007242
v -0.009900 0.000115 0.005736
v -0.010442 0.000740 0.006049
v -0.010283 0.000298 0.005957
v -0.009900 0.005115 0.005736
v -0.010442 0.004490 0.006049
v -0.010283 0.004932 0.005957
v -0.010558 0.000115 0.004402
v -0.011137 0.000740 0.004641
v -0.010967 0.000298 0.004571
v -0.010558 0.005115 0.004402
v -0.011137 0.004490 0.004641
v -0.010967 0.004932 0.004571
v -0.011036 0.000115 0.002993
v -0.011641 0.000740 0.003155
v -0.011463 0.000298 0.003107
v -0.011036 0.005115 0.002993
v -0.011641 0.004490 0.003155
v -0.011463 0.004932 0.003107
v -0.011326 0.000115 0.001534
v -0.011947 0.000740 0.001615
v -0.011765 0.000298 0.001591
v -0.011326 0.005115 0.001534
v -0.011947 0.004490 0.001615
v -0.011765 0.004932 0.001591
v -0.011424 0.000115 0.000049
v -0.012050 0.000740 0.000049
v -0.011866 0.000298 0.000049
v -0.011424 0.005115 0.000049
v -0.012050 0.004490 0.000049
v -0.011866 0.004932 0.000049
v -0.011326 0.000115 -0.001436
v -0.011947 0.000740 -0.001517
v -0.011765 0.000298 -0.001493
v -0.011326 0.005115 -0.001436
v -0.011947 0.004490 -0.001517
v -0.011765 0.004932 -0.001493
v -0.011036 0.000115 -0.002895
v -0.011641 0.000740 -0.003057
v -0.011463 0.000298 -0.003009
v -0.011036 0.005115 -0.002895
v -0.011641 0.004490 -0.003057
v -0.011463 0.004932 -0.003009
v -0.010558 0.000115 -0.004303
v -0.011137 0.000740 -0.004543
v -0.010967 0.000298 -0.004473
v -0.010558 0.005115 -0.004303
v -0.011137 0.004490 -0.004543
v -0.010967 0.004932 -0.004473
v -0.009900 0.000115 -0.005638
v -0.010442 0.000740 -0.005951
v -0.010283 0.000298 -0.005859
v -0.009900 0.005115 -0.005638
v -0.010442 0.004490 -0.005951
v -0.010283 0.004932 -0.005859
v -0.009073 0.000115 -0.006875
v -0.009570 0.000740 -0.007256
v -0.009424 0.000298 -0.007144
v -0.009073 0.005115 -0.006875
v -0.009570 0.004490 -0.007256
v -0.009424 0.004932 -0.007144
v -0.008092 0.000115 -0.007993
v -0.008535 0.000740 -0.008436
v -0.008405 0.000298 -0.008306
v -0.008092 0.005115 -0.007993
v -0.008535 0.004490 -0.008436
v -0.008405 0.004932 -0.008306
v -0.006974 0.000115 -0.008974
v -0.007355 0.000740 -0.009471
v -0.007243 0.000298 -0.009325
v -0.006974 0.005115 -0.008974
v -0.007355 0.004490 -0.009471
v -0.007243 0.004932 -0.009325
v -0.005737 0.000115 -0.009801
v -0.006050 0.000740 -0.010343
v -0.005958 0.000298 -0.010184
v -0.005737 0.005115 -0.009801
v -0.006050 0.004490 -0.010343
v -0.005958 0.004932 -0.010184
v -0.004403 0.000115 -0.010459
v -0.004642 0.000740 -0.011038
v -0.004572 0.000298 -0.010868
v -0.004403 0.005115 -0.010459
v -0.004642 0.004490 -0.011038
v -0.004572 0.004932 -0.010868
v -0.002994 0.000115 -0.010937
v -0.003156 0.000740 -0.011542
v -0.003108 0.000298 -0.011364
v -0.002994 0.005115 -0.010937
v -0.003156 0.004490 -0.011542
v -0.003108 0.004932 -0.011364
v -0.001535 0.000115 -0.011227
v -0.001616 0.000740 -0.011848
v -0.001592 0.000298 -0.011666
v -0.001535 0.005115 -0.011227
v -0.001616 0.004490 -0.011848
v -0.001592 0.004932 -0.011666
vn -0.1304 -0.0436 -0.9905
vn -0.1304 0.0436 -0.9905
vn -0.0000 0.0436 -0.9990
vn -0.0000 -0.0436 -0.9990
vn 0.2584 -0.0436 -0.9651
vn 0.2586 0.0436 -0.9650
vn 0.3823 0.0436 -0.9230
vn 0.3823 -0.0436 -0.9230
vn 0.4997 0.0436 -0.8651
vn 0.4995 -0.0437 -0.8652
vn 0.6082 0.0436 -0.7926
vn 0.6082 -0.0437 -0.7926
vn 0.7064 0.0437 -0.7064
vn 0.7064 -0.0437 -0.7064
vn 0.7926 0.0436 -0.6082
vn 0.7926 -0.0436 -0.6082
vn 0.8651 0.0436 -0.4997
vn 0.8652 -0.0437 -0.4995
vn 0.9230 0.0436 -0.3823
vn 0.9230 -0.0436 -0.3823
vn 0.9651 0.0436 -0.2584
vn 0.9650 -0.0436 -0.2586
vn 0.9905 0.0436 -0.1304
vn 0.9905 -0.0436 -0.1304
vn 0.9990 0.0437 -0.0000
vn 0.9990 -0.0437 -0.0000
vn 0.9905 0.0436 0.1304
vn 0.9905 -0.0436 0.1304
vn 0.9651 0.0436 0.2584
vn 0.9650 -0.0436 0.2586
vn 0.9230 0.0436 0.3823
vn 0.9230 -0.0436 0.3823
vn 0.8651 0.0437 0.4997
vn 0.8652 -0.0437 0.4995
vn 0.7926 0.0436 0.6082
vn 0.7926 -0.0436 0.6082
vn 0.7064 0.0437 0.7064
vn 0.7064 -0.0437 0.7064
vn 0.6082 0.0437 0.7926
vn 0.6082 -0.0437 0.7926
vn 0.4997 0.0437 0.8651
vn 0.4995 -0.0437 0.8652
vn 0.3823 0.0436 0.9230
vn 0.3823 -0.0437 0.9230
vn 0.2584 0.0436 0.9651
vn 0.2586 -0.0436 0.9650
vn 0.1304 0.0436 0.9905
vn 0.1304 -0.0436 0.9905
vn -0.0000 0.0436 0.9990
vn -0.0000 -0.0436 0.9990
vn -0.1304 0.0436 0.9905
vn -0.1304 -0.0436 0.9905
vn -0.2584 0.0436 0.9651
vn -0.2586 -0.0436 0.9650
vn -0.3823 0.0436 0.9230
vn -0.3823 -0.0436 0.9230
vn -0.4997 0.0436 0.8651
vn -0.4995 -0.0437 0.8652
vn -0.6082 0.0437 0.7926
vn -0.6082 -0.0437 0.7926
vn -0.7064 0.0436 0.7064
vn -0.7064 -0.0436 0.7064
vn -0.7926 0.0436 0.6082
vn -0.7926 -0.0436 0.6082
vn -0.8651 0.0436 0.4997
vn -0.8652 -0.0436 0.4995
vn -0.9230 0.0436 0.3823
vn -0.9230 -0.0436 0.3823
vn -0.9651 0.0436 0.2584
vn -0.9650 -0.0436 0.2586
vn -0.9905 0.0437 0.1304
vn -0.9905 -0.0437 0.1304
vn -0.9990 0.0436 -0.0000
vn -0.9990 -0.0436 -0.0000
vn -0.9905 0.0437 -0.1304
vn -0.9905 -0.0437 -0.1304
vn -0.9651 0.0436 -0.2584
vn -0.9650 -0.0436 -0.2586
vn -0.9230 0.0436 -0.3823
vn -0.9230 -0.0436 -0.3823
vn -0.8651 0.0436 -0.4997
vn -0.8652 -0.0436 -0.4995
vn -0.7926 0.0436 -0.6082
vn -0.7926 -0.0436 -0.6082
vn -0.7064 0.0437 -0.7064
vn -0.7064 -0.0437 -0.7064
vn -0.6082 0.0437 -0.7926
vn -0.6082 -0.0437 -0.7926
vn -0.4997 0.0437 -0.8651
vn -0.4995 -0.0437 -0.8652
vn -0.3823 0.0436 -0.9230
vn -0.3823 -0.0436 -0.9230
vn -0.2584 0.0436 -0.9651
vn -0.2586 -0.0436 -0.9650
vn 0.1304 -0.0436 -0.9905
vn 0.1304 0.0436 -0.9905
vn 0.0002 1.0000 -0.0014
vn -0.0000 1.0000 -0.0014
vn -0.0002 1.0000 -0.0015
vn -0.0003 1.0000 -0.0014
vn -0.0005 1.0000 -0.0013
vn -0.0007 1.0000 -0.0013
vn -0.0008 1.0000 -0.0011
vn -0.0010 1.0000 -0.0010
vn -0.0011 1.0000 -0.0009
vn -0.0012 1.0000 -0.0007
vn -0.0013 1.0000 -0.0005
vn -0.0013 1.0000 -0.0004
vn -0.0015 1.0000 -0.0002
vn -0.0015 1.0000 -0.0000
vn -0.0015 1.0000 0.0002
vn -0.0013 1.0000 0.0003
vn -0.0014 1.0000 0.0005
vn -0.0012 1.0000 0.0007
vn -0.0011 1.0000 0.0008
vn -0.0010 1.0000 0.0010
vn -0.0009 1.0000 0.0011
vn -0.0007 1.0000 0.0012
vn -0.0005 1.0000 0.0013
vn -0.0004 1.0000 0.0013
vn -0.0002 1.0000 0.0015
vn -0.0000 1.0000 0.0014
vn 0.0002 1.0000 0.0014
vn 0.0003 1.0000 0.0013
vn 0.0005 1.0000 0.0013
vn 0.0007 1.0000 0.0013
vn 0.0008 1.0000 0.0012
vn 0.0010 1.0000 0.0010
vn 0.0011 1.0000 0.0009
vn 0.0012 1.0000 0.0007
vn 0.0013 1.0000 0.0005
vn 0.0013 1.0000 0.0004
vn 0.0014 1.0000 0.0002
vn 0.0014 1.0000 -0.0000
vn 0.0015 1.0000 -0.0002
vn 0.0013 1.0000 -0.0003
vn 0.0013 1.0000 -0.0005
vn 0.0013 1.0000 -0.0007
vn 0.0011 1.0000 -0.0008
vn 0.0010 1.0000 -0.0010
vn 0.0009 1.0000 -0.0011
vn 0.0007 1.0000 -0.0012
vn 0.0005 1.0000 -0.0013
vn 0.0004 1.0000 -0.0013
vn 0.0927 -0.7039 -0.7042
vn -0.0000 -0.7040 -0.7102
vn 0.0002 -1.0000 -0.0015
vn 0.0001 -1.0000 -0.0014
vn -0.0000 0.7040 -0.7102
vn 0.0927 0.7039 -0.7042
vn 0.1838 -0.7039 -0.6861
vn 0.0004 -1.0000 -0.0014
vn 0.1838 0.7040 -0.6860
vn 0.2718 -0.7040 -0.6562
vn 0.0005 -1.0000 -0.0013
vn 0.2718 0.7039 -0.6562
vn 0.3551 -0.7039 -0.6151
vn 0.0007 -1.0000 -0.0012
vn 0.3551 0.7040 -0.6151
vn 0.4324 -0.7039 -0.5635
vn 0.0010 -1.0000 -0.0011
vn 0.4324 0.7040 -0.5635
vn 0.5022 -0.7039 -0.5022
vn 0.0011 -1.0000 -0.0010
vn 0.5022 0.7040 -0.5022
vn 0.5635 -0.7039 -0.4324
vn 0.0011 -1.0000 -0.0008
vn 0.5635 0.7039 -0.4324
vn 0.6151 -0.7040 -0.3551
vn 0.0012 -1.0000 -0.0007
vn 0.6151 0.7040 -0.3551
vn 0.6562 -0.7039 -0.2718
vn 0.0014 -1.0000 -0.0005
vn 0.6562 0.7040 -0.2718
vn 0.6861 -0.7039 -0.1838
vn 0.0013 -1.0000 -0.0003
vn 0.6861 0.7039 -0.1838
vn 0.7042 -0.7039 -0.0927
vn 0.0014 -1.0000 -0.0002
vn 0.7042 0.7040 -0.0927
vn 0.7102 -0.7040 -0.0000
vn 0.0015 -1.0000 -0.0000
vn 0.7102 0.7040 -0.0000
vn 0.7042 -0.7040 0.0927
vn 0.0014 -1.0000 0.0002
vn 0.7042 0.7040 0.0927
vn 0.6861 -0.7039 0.1838
vn 0.0013 -1.0000 0.0004
vn 0.6861 0.7039 0.1838
vn 0.6562 -0.7040 0.2718
vn 0.0014 -1.0000 0.0005
vn 0.6562 0.7040 0.2718
vn 0.6151 -0.7040 0.3551
vn 0.0012 -1.0000 0.0007
vn 0.6151 0.7040 0.3551
vn 0.5635 -0.7040 0.4324
vn 0.0011 -1.0000 0.0009
vn 0.5635 0.7039 0.4324
vn 0.5022 -0.7040 0.5022
vn 0.0010 -1.0000 0.0010
vn 0.5022 0.7040 0.5022
vn 0.4324 -0.7039 0.5635
vn 0.0008 -1.0000 0.0011
vn 0.4324 0.7039 0.5635
vn 0.3551 -0.7040 0.6151
vn 0.0007 -1.0000 0.0012
vn 0.3551 0.7039 0.6151
vn 0.2718 -0.7040 0.6562
vn 0.0005 -1.0000 0.0014
vn 0.2718 0.7040 0.6562
vn 0.1838 -0.7039 0.6861
vn 0.0003 -1.0000 0.0013
vn 0.1838 0.7039 0.6861
vn 0.0927 -0.7039 0.7042
vn 0.0002 -1.0000 0.0015
vn 0.0927 0.7039 0.7042
vn -0.0000 -0.7040 0.7102
vn -0.0000 -1.0000 0.0014
vn -0.0000 0.7040 0.7102
vn -0.0927 -0.7040 0.7042
vn -0.0002 -1.0000 0.0014
vn -0.0927 0.7039 0.7042
vn -0.1838 -0.7039 0.6861
vn -0.0004 -1.0000 0.0013
vn -0.1838 0.7040 0.6860
vn -0.2718 -0.7040 0.6562
vn -0.0005 -1.0000 0.0013
vn -0.2718 0.7040 0.6562
vn -0.3551 -0.7039 0.6151
vn -0.0007 -1.0000 0.0012
vn -0.3551 0.7040 0.6151
vn -0.4324 -0.7039 0.5635
vn -0.0009 -1.0000 0.0011
vn -0.4324 0.7040 0.5635
vn -0.5022 -0.7039 0.5022
vn -0.0010 -1.0000 0.0010
vn -0.5022 0.7040 0.5022
vn -0.5635 -0.7039 0.4324
vn -0.0011 -1.0000 0.0008
vn -0.5635 0.7039 0.4324
vn -0.6151 -0.7040 0.3551
vn -0.0013 -1.0000 0.0007
vn -0.6151 0.7040 0.3551
vn -0.6562 -0.7040 0.2718
vn -0.0013 -1.0000 0.0005
vn -0.6562 0.7040 0.2718
vn -0.6861 -0.7039 0.1838
vn -0.0013 -1.0000 0.0003
vn -0.6861 0.7039 0.1838
vn -0.7042 -0.7040 0.0927
vn -0.0014 -1.0000 0.0002
vn -0.7042 0.7039 0.0927
vn -0.7102 -0.7040 -0.0000
vn -0.0014 -1.0000 -0.0000
vn -0.7102 0.7040 -0.0000
vn -0.7042 -0.7040 -0.0927
vn -0.0014 -1.0000 -0.0002
vn -0.7042 0.7039 -0.0927
vn -0.6861 -0.7039 -0.1838
vn -0.0013 -1.0000 -0.0004
vn -0.6861 0.7039 -0.1838
vn -0.6562 -0.7039 -0.2718
vn -0.0013 -1.0000 -0.0005
vn -0.6562 0.7040 -0.2718
vn -0.6151 -0.7040 -0.3551
vn -0.0012 -1.0000 -0.0007
vn -0.6151 0.7040 -0.3551
vn -0.5635 -0.7039 -0.4324
vn -0.0011 -1.0000 -0.0009
vn -0.5635 0.7039 -0.4324
vn -0.5022 -0.7040 -0.5022
vn -0.0010 -1.0000 -0.0010
vn -0.5022 0.7040 -0.5022
vn -0.4324 -0.7039 -0.5635
vn -0.0008 -1.0000 -0.0011
vn -0.4324 0.7040 -0.5635
vn -0.3551 -0.7040 -0.6151
vn -0.0007 -1.0000 -0.0013
vn -0.3551 0.7039 -0.6151
vn -0.2718 -0.7040 -0.6562
vn -0.0005 -1.0000 -0.0013
vn -0.2718 0.7040 -0.6562
vn -0.1838 -0.7039 -0.6861
vn -0.0003 -1.0000 -0.0014
vn -0.1838 0.7039 -0.6861
vn -0.0927 -0.7039 -0.7042
vn -0.0002 -1.0000 -0.0014
vn -0.0927 0.7039 -0.7042
vt 0.020834 0.562500
vt 0.020834 0.937500
vt 0.000000 0.937500
vt 0.000000 0.562500
vt 0.958333 0.562500
vt 0.958333 0.937500
vt 0.937500 0.937500
vt 0.937500 0.562500
vt 0.916667 0.937500
vt 0.916667 0.562500
vt 0.895833 0.937500
vt 0.895833 0.562500
vt 0.875000 0.937500
vt 0.875000 0.562500
vt 0.854167 0.937500
vt 0.854167 0.562500
vt 0.833333 0.937500
vt 0.833333 0.562500
vt 0.812500 0.937500
vt 0.812500 0.562500
vt 0.791667 0.937500
vt 0.791667 0.562500
vt 0.770834 0.937500
vt 0.770834 0.562500
vt 0.750000 0.937500
vt 0.750000 0.562500
vt 0.729167 0.937500
vt 0.729167 0.562500
vt 0.708334 0.937500
vt 0.708334 0.562500
vt 0.687500 0.937500
vt 0.687500 0.562500
vt 0.666667 0.937500
vt 0.666667 0.562500
vt 0.645834 0.937500
vt 0.645834 0.562500
vt 0.625000 0.937500
vt 0.625000 0.562500
vt 0.604167 0.937500
vt 0.604167 0.562500
vt 0.583334 0.937500
vt 0.583334 0.562500
vt 0.562500 0.937500
vt 0.562500 0.562500
vt 0.541667 0.937500
vt 0.541667 0.562500
vt 0.520834 0.937500
vt 0.520834 0.562500
vt 0.500000 0.937500
vt 0.500000 0.562500
vt 0.479167 0.937500
vt 0.479167 0.562500
vt 0.458334 0.937500
vt 0.458334 0.562500
vt 0.437500 0.937500
vt 0.437500 0.562500
vt 0.416667 0.937500
vt 0.416667 0.562500
vt 0.395834 0.937500
vt 0.395834 0.562500
vt 0.375000 0.937500
vt 0.375000 0.562500
vt 0.354167 0.937500
vt 0.354167 0.562500
vt 0.333334 0.937500
vt 0.333334 0.562500
vt 0.312500 0.937500
vt 0.312500 0.562500
vt 0.291667 0.937500
vt 0.291667 0.562500
vt 0.270834 0.937500
vt 0.270834 0.562500
vt 0.250000 0.937500
vt 0.250000 0.562500
vt 0.229167 0.937500
vt 0.229167 0.562500
vt 0.208334 0.937500
vt 0.208334 0.562500
vt 0.187500 0.937500
vt 0.187500 0.562500
vt 0.166667 0.937500
vt 0.166667 0.562500
vt 0.145834 0.937500
vt 0.145834 0.562500
vt 0.125000 0.937500
vt 0.125000 0.562500
vt 0.104167 0.937500
vt 0.104167 0.562500
vt 0.083334 0.937500
vt 0.083334 0.562500
vt 0.062500 0.937500
vt 0.062500 0.562500
vt 0.041667 0.937500
vt 0.041667 0.562500
vt 0.979167 0.562500
vt 0.979167 0.937500
vt 0.279691 0.475527
vt 0.250000 0.477473
vt 0.220309 0.475527
vt 0.191126 0.469722
vt 0.162950 0.460158
vt 0.136263 0.446998
vt 0.111523 0.430467
vt 0.089152 0.410848
vt 0.069533 0.388477
vt 0.053002 0.363737
vt 0.039842 0.337050
vt 0.030278 0.308874
vt 0.024473 0.279691
vt 0.022527 0.250000
vt 0.024473 0.220309
vt 0.030278 0.191126
vt 0.039842 0.162950
vt 0.053002 0.136263
vt 0.069533 0.111523
vt 0.089152 0.089152
vt 0.111523 0.069533
vt 0.136263 0.053002
vt 0.162950 0.039842
vt 0.191126 0.030278
vt 0.220309 0.024473
vt 0.250000 0.022527
vt 0.279691 0.024473
vt 0.308874 0.030278
vt 0.337050 0.039842
vt 0.363737 0.053002
vt 0.388477 0.069533
vt 0.410848 0.089152
vt 0.430467 0.111523
vt 0.446998 0.136263
vt 0.460158 0.162950
vt 0.469722 0.191126
vt 0.475527 0.220309
vt 0.477473 0.250000
vt 0.475527 0.279691
vt 0.469722 0.308874
vt 0.460158 0.337050
vt 0.446998 0.363737
vt 0.430467 0.388477
vt 0.410848 0.410848
vt 0.388477 0.430467
vt 0.363737 0.446998
vt 0.337050 0.460158
vt 0.308874 0.469722
vt 1.000000 0.562500
vt 1.000000 0.937500
vt 0.979326 0.500000
vt 0.999840 0.500000
vt 0.750240 0.489984
vt 0.781086 0.487963
vt 0.779691 0.475527
vt 0.750000 0.477473
vt 0.999840 1.000000
vt 0.979326 1.000000
vt 0.281086 0.487963
vt 0.250240 0.489984
vt 0.958493 0.500000
vt 0.979007 0.500000
vt 0.781562 0.487900
vt 0.811880 0.481869
vt 0.808874 0.469722
vt 0.979007 1.000000
vt 0.958493 1.000000
vt 0.311880 0.481869
vt 0.281562 0.487900
vt 0.937660 0.500000
vt 0.958174 0.500000
vt 0.812344 0.481745
vt 0.841616 0.471808
vt 0.837050 0.460158
vt 0.958174 1.000000
vt 0.937660 1.000000
vt 0.341616 0.471808
vt 0.312344 0.481745
vt 0.916826 0.500000
vt 0.937340 0.500000
vt 0.842060 0.471625
vt 0.869784 0.457953
vt 0.863737 0.446997
vt 0.937340 1.000000
vt 0.916826 1.000000
vt 0.369784 0.457953
vt 0.342060 0.471625
vt 0.895993 0.500000
vt 0.916507 0.500000
vt 0.870200 0.457712
vt 0.895903 0.440538
vt 0.888477 0.430467
vt 0.916507 1.000000
vt 0.895993 1.000000
vt 0.395903 0.440539
vt 0.370200 0.457712
vt 0.875160 0.500000
vt 0.895674 0.500000
vt 0.896284 0.440246
vt 0.919525 0.419864
vt 0.910848 0.410848
vt 0.895674 1.000000
vt 0.875160 1.000000
vt 0.419525 0.419864
vt 0.396284 0.440246
vt 0.854327 0.500000
vt 0.874840 0.500000
vt 0.919864 0.419525
vt 0.940246 0.396284
vt 0.930466 0.388477
vt 0.874840 1.000000
vt 0.854327 1.000000
vt 0.440246 0.396284
vt 0.419864 0.419525
vt 0.833493 0.500000
vt 0.854007 0.500000
vt 0.940539 0.395903
vt 0.957712 0.370200
vt 0.946998 0.363737
vt 0.854007 1.000000
vt 0.833493 1.000000
vt 0.457712 0.370200
vt 0.440538 0.395903
vt 0.812660 0.500000
vt 0.833174 0.500000
vt 0.957953 0.369784
vt 0.971625 0.342060
vt 0.960158 0.337050
vt 0.833174 1.000000
vt 0.812660 1.000000
vt 0.471625 0.342060
vt 0.457953 0.369784
vt 0.791827 0.500000
vt 0.812340 0.500000
vt 0.971808 0.341616
vt 0.981745 0.312344
vt 0.969722 0.308874
vt 0.812340 1.000000
vt 0.791827 1.000000
vt 0.481745 0.312345
vt 0.471808 0.341616
vt 0.770993 0.500000
vt 0.791507 0.500000
vt 0.981869 0.311880
vt 0.987900 0.281562
vt 0.975527 0.279691
vt 0.791507 1.000000
vt 0.770993 1.000000
vt 0.487900 0.281562
vt 0.481869 0.311881
vt 0.750160 0.500000
vt 0.770674 0.500000
vt 0.987962 0.281086
vt 0.989984 0.250240
vt 0.977473 0.250000
vt 0.770674 1.000000
vt 0.750160 1.000000
vt 0.489984 0.250240
vt 0.487963 0.281086
vt 0.729327 0.500000
vt 0.749841 0.500000
vt 0.989984 0.249760
vt 0.987962 0.218914
vt 0.975527 0.220309
vt 0.749840 1.000000
vt 0.729327 1.000000
vt 0.487963 0.218914
vt 0.489984 0.249760
vt 0.708493 0.500000
vt 0.729007 0.500000
vt 0.987900 0.218438
vt 0.981869 0.188119
vt 0.969722 0.191126
vt 0.729007 1.000000
vt 0.708493 1.000000
vt 0.481869 0.188119
vt 0.487900 0.218438
vt 0.687660 0.500000
vt 0.708174 0.500000
vt 0.981745 0.187656
vt 0.971808 0.158384
vt 0.960158 0.162950
vt 0.708174 1.000000
vt 0.687660 1.000000
vt 0.471808 0.158384
vt 0.481745 0.187655
vt 0.666827 0.500000
vt 0.687341 0.500000
vt 0.971625 0.157940
vt 0.957953 0.130216
vt 0.946997 0.136263
vt 0.687341 1.000000
vt 0.666827 1.000000
vt 0.457953 0.130216
vt 0.471625 0.157940
vt 0.645993 0.500000
vt 0.666507 0.500000
vt 0.957712 0.129800
vt 0.940539 0.104097
vt 0.930467 0.111523
vt 0.666507 1.000000
vt 0.645993 1.000000
vt 0.440539 0.104097
vt 0.457712 0.129800
vt 0.625160 0.500000
vt 0.645674 0.500000
vt 0.940246 0.103716
vt 0.919864 0.080475
vt 0.910848 0.089152
vt 0.645674 1.000000
vt 0.625160 1.000000
vt 0.419864 0.080475
vt 0.440246 0.103716
vt 0.604327 0.500000
vt 0.624841 0.500000
vt 0.919525 0.080136
vt 0.896284 0.059754
vt 0.888477 0.069533
vt 0.624841 1.000000
vt 0.604327 1.000000
vt 0.396284 0.059754
vt 0.419525 0.080136
vt 0.583493 0.500000
vt 0.604007 0.500000
vt 0.895903 0.059461
vt 0.870200 0.042288
vt 0.863737 0.053002
vt 0.604007 1.000000
vt 0.583493 1.000000
vt 0.370200 0.042288
vt 0.395903 0.059461
vt 0.562660 0.500000
vt 0.583174 0.500000
vt 0.869784 0.042047
vt 0.842060 0.028375
vt 0.837050 0.039842
vt 0.583174 1.000000
vt 0.562660 1.000000
vt 0.342060 0.028375
vt 0.369784 0.042047
vt 0.541827 0.500000
vt 0.562341 0.500000
vt 0.841616 0.028192
vt 0.812344 0.018255
vt 0.808874 0.030278
vt 0.562341 1.000000
vt 0.541827 1.000000
vt 0.312345 0.018255
vt 0.341616 0.028192
vt 0.520994 0.500000
vt 0.541507 0.500000
vt 0.811880 0.018131
vt 0.781562 0.012100
vt 0.779691 0.024473
vt 0.541507 1.000000
vt 0.520994 1.000000
vt 0.281562 0.012100
vt 0.311881 0.018131
vt 0.500160 0.500000
vt 0.520674 0.500000
vt 0.781086 0.012037
vt 0.750240 0.010016
vt 0.750000 0.022527
vt 0.520674 1.000000
vt 0.500160 1.000000
vt 0.250240 0.010016
vt 0.281086 0.012037
vt 0.479327 0.500000
vt 0.499841 0.500000
vt 0.749760 0.010016
vt 0.718914 0.012037
vt 0.720309 0.024473
vt 0.499841 1.000000
vt 0.479327 1.000000
vt 0.218914 0.012037
vt 0.249760 0.010016
vt 0.458494 0.500000
vt 0.479007 0.500000
vt 0.718438 0.012100
vt 0.688119 0.018131
vt 0.691126 0.030278
vt 0.479007 1.000000
vt 0.458494 1.000000
vt 0.188119 0.018131
vt 0.218438 0.012100
vt 0.437660 0.500000
vt 0.458174 0.500000
vt 0.687656 0.018255
vt 0.658384 0.028192
vt 0.662950 0.039842
vt 0.458174 1.000000
vt 0.437660 1.000000
vt 0.158384 0.028192
vt 0.187655 0.018255
vt 0.416827 0.500000
vt 0.437341 0.500000
vt 0.657940 0.028375
vt 0.630216 0.042047
vt 0.636263 0.053002
vt 0.437341 1.000000
vt 0.416827 1.000000
vt 0.130216 0.042047
vt 0.157940 0.028375
vt 0.395994 0.500000
vt 0.416507 0.500000
vt 0.629800 0.042288
vt 0.604097 0.059461
vt 0.611523 0.069533
vt 0.416507 1.000000
vt 0.395994 1.000000
vt 0.104097 0.059461
vt 0.129800 0.042288
vt 0.375160 0.500000
vt 0.395674 0.500000
vt 0.603716 0.059754
vt 0.580475 0.080136
vt 0.589152 0.089152
vt 0.395674 1.000000
vt 0.375160 1.000000
vt 0.080475 0.080136
vt 0.103716 0.059754
vt 0.354327 0.500000
vt 0.374841 0.500000
vt 0.580136 0.080475
vt 0.559754 0.103716
vt 0.569534 0.111523
vt 0.374841 1.000000
vt 0.354327 1.000000
vt 0.059754 0.103716
vt 0.080136 0.080475
vt 0.333493 0.500000
vt 0.354007 0.500000
vt 0.559462 0.104097
vt 0.542288 0.129800
vt 0.553003 0.136263
vt 0.354007 1.000000
vt 0.333493 1.000000
vt 0.042288 0.129800
vt 0.059461 0.104097
vt 0.312660 0.500000
vt 0.333174 0.500000
vt 0.542047 0.130216
vt 0.528375 0.157940
vt 0.539842 0.162950
vt 0.333174 1.000000
vt 0.312660 1.000000
vt 0.028375 0.157940
vt 0.042047 0.130216
vt 0.291827 0.500000
vt 0.312341 0.500000
vt 0.528192 0.158384
vt 0.518255 0.187655
vt 0.530278 0.191126
vt 0.312341 1.000000
vt 0.291827 1.000000
vt 0.018255 0.187656
vt 0.028192 0.158384
vt 0.270993 0.500000
vt 0.291507 0.500000
vt 0.518131 0.188119
vt 0.512100 0.218438
vt 0.524473 0.220309
vt 0.291507 1.000000
vt 0.270993 1.000000
vt 0.012100 0.218438
vt 0.018131 0.188119
vt 0.250160 0.500000
vt 0.270674 0.500000
vt 0.512038 0.218914
vt 0.510016 0.249760
vt 0.522527 0.250000
vt 0.270674 1.000000
vt 0.250160 1.000000
vt 0.010016 0.249760
vt 0.012037 0.218914
vt 0.229327 0.500000
vt 0.249841 0.500000
vt 0.510016 0.250240
vt 0.512038 0.281086
vt 0.524473 0.279691
vt 0.249841 1.000000
vt 0.229327 1.000000
vt 0.012037 0.281086
vt 0.010016 0.250240
vt 0.208493 0.500000
vt 0.229007 0.500000
vt 0.512100 0.281562
vt 0.518131 0.311881
vt 0.530278 0.308874
vt 0.229007 1.000000
vt 0.208493 1.000000
vt 0.018131 0.311880
vt 0.012100 0.281562
vt 0.187660 0.500000
vt 0.208174 0.500000
vt 0.518255 0.312345
vt 0.528192 0.341616
vt 0.539842 0.337050
vt 0.208174 1.000000
vt 0.187660 1.000000
vt 0.028192 0.341616
vt 0.018255 0.312344
vt 0.166827 0.500000
vt 0.187341 0.500000
vt 0.528375 0.342060
vt 0.542047 0.369784
vt 0.553002 0.363737
vt 0.187341 1.000000
vt 0.166827 1.000000
vt 0.042047 0.369784
vt 0.028375 0.342060
vt 0.145993 0.500000
vt 0.166507 0.500000
vt 0.542288 0.370200
vt 0.559461 0.395903
vt 0.569533 0.388477
vt 0.166507 1.000000
vt 0.145993 1.000000
vt 0.059461 0.395903
vt 0.042288 0.370200
vt 0.125160 0.500000
vt 0.145674 0.500000
vt 0.559754 0.396284
vt 0.580136 0.419525
vt 0.589152 0.410848
vt 0.145674 1.000000
vt 0.125160 1.000000
vt 0.080136 0.419525
vt 0.059754 0.396284
vt 0.104327 0.500000
vt 0.124841 0.500000
vt 0.580475 0.419864
vt 0.603716 0.440246
vt 0.611523 0.430467
vt 0.124841 1.000000
vt 0.104327 1.000000
vt 0.103716 0.440246
vt 0.080475 0.419864
vt 0.083493 0.500000
vt 0.104007 0.500000
vt 0.604097 0.440539
vt 0.629800 0.457712
vt 0.636263 0.446998
vt 0.104007 1.000000
vt 0.083493 1.000000
vt 0.129800 0.457712
vt 0.104097 0.440538
vt 0.062660 0.500000
vt 0.083174 0.500000
vt 0.630216 0.457953
vt 0.657940 0.471625
vt 0.662950 0.460158
vt 0.083174 1.000000
vt 0.062660 1.000000
vt 0.157940 0.471625
vt 0.130216 0.457953
vt 0.041827 0.500000
vt 0.062341 0.500000
vt 0.658384 0.471808
vt 0.687656 0.481745
vt 0.691126 0.469722
vt 0.062341 1.000000
vt 0.041827 1.000000
vt 0.187656 0.481745
vt 0.158384 0.471808
vt 0.020993 0.500000
vt 0.041507 0.500000
vt 0.688119 0.481869
vt 0.718438 0.487900
vt 0.720309 0.475527
vt 0.041507 1.000000
vt 0.020993 1.000000
vt 0.218438 0.487900
vt 0.188119 0.481869
vt 0.000160 0.500000
vt 0.020674 0.500000
vt 0.718914 0.487963
vt 0.749760 0.489984
vt 0.020674 1.000000
vt 0.000160 1.000000
vt 0.249760 0.489984
vt 0.218914 0.487963
s 1
usemtl Anodized_graphite.002
f 332/1/57 335/2/58 53/3/59 50/4/60
f 62/5/61 65/6/62 71/7/63 68/8/64
f 68/8/64 71/7/63 77/9/65 74/10/66
f 74/10/66 77/9/65 83/11/67 80/12/68
f 80/12/68 83/11/67 89/13/69 86/14/70
f 86/14/70 89/13/69 95/15/71 92/16/72
f 92/16/72 95/15/71 101/17/73 98/18/74
f 98/18/74 101/17/73 107/19/75 104/20/76
f 104/20/76 107/19/75 113/21/77 110/22/78
f 110/22/78 113/21/77 119/23/79 116/24/80
f 116/24/80 119/23/79 125/25/81 122/26/82
f 122/26/82 125/25/81 131/27/83 128/28/84
f 128/28/84 131/27/83 137/29/85 134/30/86
f 134/30/86 137/29/85 143/31/87 140/32/88
f 140/32/88 143/31/87 149/33/89 146/34/90
f 146/34/90 149/33/89 155/35/91 152/36/92
f 152/36/92 155/35/91 161/37/93 158/38/94
f 158/38/94 161/37/93 167/39/95 164/40/96
f 164/40/96 167/39/95 173/41/97 170/42/98
f 170/42/98 173/41/97 179/43/99 176/44/100
f 176/44/100 179/43/99 185/45/101 182/46/102
f 182/46/102 185/45/101 191/47/103 188/48/104
f 188/48/104 191/47/103 197/49/105 194/50/106
f 194/50/106 197/49/105 203/51/107 200/52/108
f 200/52/108 203/51/107 209/53/109 206/54/110
f 206/54/110 209/53/109 215/55/111 212/56/112
f 212/56/112 215/55/111 221/57/113 218/58/114
f 218/58/114 221/57/113 227/59/115 224/60/116
f 224/60/116 227/59/115 233/61/117 230/62/118
f 230/62/118 233/61/117 239/63/119 236/64/120
f 236/64/120 239/63/119 245/65/121 242/66/122
f 242/66/122 245/65/121 251/67/123 248/68/124
f 248/68/124 251/67/123 257/69/125 254/70/126
f 254/70/126 257/69/125 263/71/127 260/72/128
f 260/72/128 263/71/127 269/73/129 266/74/130
f 266/74/130 269/73/129 275/75/131 272/76/132
f 272/76/132 275/75/131 281/77/133 278/78/134
f 278/78/134 281/77/133 287/79/135 284/80/136
f 284/80/136 287/79/135 293/81/137 290/82/138
f 290/82/138 293/81/137 299/83/139 296/84/140
f 296/84/140 299/83/139 305/85/141 302/86/142
f 302/86/142 305/85/141 311/87/143 308/88/144
f 308/88/144 311/87/143 317/89/145 314/90/146
f 314/90/146 317/89/145 323/91/147 320/92/148
f 320/92/148 323/91/147 329/93/149 326/94/150
f 326/94/150 329/93/149 335/2/58 332/1/57
f 56/95/151 59/96/152 65/6/62 62/5/61
f 58/97/153 52/98/154 334/99/155 328/100/156 322/101/157 316/102/158 310/103/159 304/104/160 298/105/161 292/106/162 286/107/163 280/108/164 274/109/165 268/110/166 262/111/167 256/112/168 250/113/169 244/114/170 238/115/171 232/116/172 226/117/173 220/118/174 214/119/175 208/120/176 202/121/177 196/122/178 190/123/179 184/124/180 178/125/181 172/126/182 166/127/183 160/128/184 154/129/185 148/130/186 142/131/187 136/132/188 130/133/189 124/134/190 118/135/191 112/136/192 106/137/193 100/138/194 94/139/195 88/140/196 82/141/197 76/142/198 70/143/199 64/144/200
f 50/145/60 53/146/59 59/96/152 56/95/151
f 50/145/60 56/95/151 57/147/201 51/148/202
f 51/149/202 57/150/201 55/151/203 49/152/204
f 59/96/152 53/146/59 54/153/205 60/154/206
f 60/155/206 54/156/205 52/98/154 58/97/153
f 56/95/151 62/5/61 63/157/207 57/158/201
f 57/159/201 63/160/207 61/161/208 55/151/203
f 65/6/62 59/96/152 60/162/206 66/163/209
f 66/164/209 60/165/206 58/97/153 64/144/200
f 62/5/61 68/8/64 69/166/210 63/167/207
f 63/168/207 69/169/210 67/170/211 61/161/208
f 71/7/63 65/6/62 66/171/209 72/172/212
f 72/173/212 66/174/209 64/144/200 70/143/199
f 68/8/64 74/10/66 75/175/213 69/176/210
f 69/177/210 75/178/213 73/179/214 67/170/211
f 77/9/65 71/7/63 72/180/212 78/181/215
f 78/182/215 72/183/212 70/143/199 76/142/198
f 74/10/66 80/12/68 81/184/216 75/185/213
f 75/186/213 81/187/216 79/188/217 73/179/214
f 83/11/67 77/9/65 78/189/215 84/190/218
f 84/191/218 78/192/215 76/142/198 82/141/197
f 80/12/68 86/14/70 87/193/219 81/194/216
f 81/195/216 87/196/219 85/197/220 79/188/217
f 89/13/69 83/11/67 84/198/218 90/199/221
f 90/200/221 84/201/218 82/141/197 88/140/196
f 86/14/70 92/16/72 93/202/222 87/203/219
f 87/204/219 93/205/222 91/206/223 85/197/220
f 95/15/71 89/13/69 90/207/221 96/208/224
f 96/209/224 90/210/221 88/140/196 94/139/195
f 92/16/72 98/18/74 99/211/225 93/212/222
f 93/213/222 99/214/225 97/215/226 91/206/223
f 101/17/73 95/15/71 96/216/224 102/217/227
f 102/218/227 96/219/224 94/139/195 100/138/194
f 98/18/74 104/20/76 105/220/228 99/221/225
f 99/222/225 105/223/228 103/224/229 97/215/226
f 107/19/75 101/17/73 102/225/227 108/226/230
f 108/227/230 102/228/227 100/138/194 106/137/193
f 104/20/76 110/22/78 111/229/231 105/230/228
f 105/231/228 111/232/231 109/233/232 103/224/229
f 113/21/77 107/19/75 108/234/230 114/235/233
f 114/236/233 108/237/230 106/137/193 112/136/192
f 110/22/78 116/24/80 117/238/234 111/239/231
f 111/240/231 117/241/234 115/242/235 109/233/232
f 119/23/79 113/21/77 114/243/233 120/244/236
f 120/245/236 114/246/233 112/136/192 118/135/191
f 116/24/80 122/26/82 123/247/237 117/248/234
f 117/249/234 123/250/237 121/251/238 115/242/235
f 125/25/81 119/23/79 120/252/236 126/253/239
f 126/254/239 120/255/236 118/135/191 124/134/190
f 122/26/82 128/28/84 129/256/240 123/257/237
f 123/258/237 129/259/240 127/260/241 121/251/238
f 131/27/83 125/25/81 126/261/239 132/262/242
f 132/263/242 126/264/239 124/134/190 130/133/189
f 128/28/84 134/30/86 135/265/243 129/266/240
f 129/267/240 135/268/243 133/269/244 127/260/241
f 137/29/85 131/27/83 132/270/242 138/271/245
f 138/272/245 132/273/242 130/133/189 136/132/188
f 134/30/86 140/32/88 141/274/246 135/275/243
f 135/276/243 141/277/246 139/278/247 133/269/244
f 143/31/87 137/29/85 138/279/245 144/280/248
f 144/281/248 138/282/245 136/132/188 142/131/187
f 140/32/88 146/34/90 147/283/249 141/284/246
f 141/285/246 147/286/249 145/287/250 139/278/247
f 149/33/89 143/31/87 144/288/248 150/289/251
f 150/290/251 144/291/248 142/131/187 148/130/186
f 146/34/90 152/36/92 153/292/252 147/293/249
f 147/294/249 153/295/252 151/296/253 145/287/250
f 155/35/91 149/33/89 150/297/251 156/298/254
f 156/299/254 150/300/251 148/130/186 154/129/185
f 152/36/92 158/38/94 159/301/255 153/302/252
f 153/303/252 159/304/255 157/305/256 151/296/253
f 161/37/93 155/35/91 156/306/254 162/307/257
f 162/308/257 156/309/254 154/129/185 160/128/184
f 158/38/94 164/40/96 165/310/258 159/311/255
f 159/312/255 165/313/258 163/314/259 157/305/256
f 167/39/95 161/37/93 162/315/257 168/316/260
f 168/317/260 162/318/257 160/128/184 166/127/183
f 164/40/96 170/42/98 171/319/261 165/320/258
f 165/321/258 171/322/261 169/323/262 163/314/259
f 173/41/97 167/39/95 168/324/260 174/325/263
f 174/326/263 168/327/260 166/127/183 172/126/182
f 170/42/98 176/44/100 177/328/264 171/329/261
f 171/330/261 177/331/264 175/332/265 169/323/262
f 179/43/99 173/41/97 174/333/263 180/334/266
f 180/335/266 174/336/263 172/126/182 178/125/181
f 176/44/100 182/46/102 183/337/267 177/338/264
f 177/339/264 183/340/267 181/341/268 175/332/265
f 185/45/101 179/43/99 180/342/266 186/343/269
f 186/344/269 180/345/266 178/125/181 184/124/180
f 182/46/102 188/48/104 189/346/270 183/347/267
f 183/348/267 189/349/270 187/350/271 181/341/268
f 191/47/103 185/45/101 186/351/269 192/352/272
f 192/353/272 186/354/269 184/124/180 190/123/179
f 188/48/104 194/50/106 195/355/273 189/356/270
f 189/357/270 195/358/273 193/359/274 187/350/271
f 197/49/105 191/47/103 192/360/272 198/361/275
f 198/362/275 192/363/272 190/123/179 196/122/178
f 194/50/106 200/52/108 201/364/276 195/365/273
f 195/366/273 201/367/276 199/368/277 193/359/274
f 203/51/107 197/49/105 198/369/275 204/370/278
f 204/371/278 198/372/275 196/122/178 202/121/177
f 200/52/108 206/54/110 207/373/279 201/374/276
f 201/375/276 207/376/279 205/377/280 199/368/277
f 209/53/109 203/51/107 204/378/278 210/379/281
f 210/380/281 204/381/278 202/121/177 208/120/176
f 206/54/110 212/56/112 213/382/282 207/383/279
f 207/384/279 213/385/282 211/386/283 205/377/280
f 215/55/111 209/53/109 210/387/281 216/388/284
f 216/389/284 210/390/281 208/120/176 214/119/175
f 212/56/112 218/58/114 219/391/285 213/392/282
f 213/393/282 219/394/285 217/395/286 211/386/283
f 221/57/113 215/55/111 216/396/284 222/397/287
f 222/398/287 216/399/284 214/119/175 220/118/174
f 218/58/114 224/60/116 225/400/288 219/401/285
f 219/402/285 225/403/288 223/404/289 217/395/286
f 227/59/115 221/57/113 222/405/287 228/406/290
f 228/407/290 222/408/287 220/118/174 226/117/173
f 224/60/116 230/62/118 231/409/291 225/410/288
f 225/411/288 231/412/291 229/413/292 223/404/289
f 233/61/117 227/59/115 228/414/290 234/415/293
f 234/416/293 228/417/290 226/117/173 232/116/172
f 230/62/118 236/64/120 237/418/294 231/419/291
f 231/420/291 237/421/294 235/422/295 229/413/292
f 239/63/119 233/61/117 234/423/293 240/424/296
f 240/425/296 234/426/293 232/116/172 238/115/171
f 236/64/120 242/66/122 243/427/297 237/428/294
f 237/429/294 243/430/297 241/431/298 235/422/295
f 245/65/121 239/63/119 240/432/296 246/433/299
f 246/434/299 240/435/296 238/115/171 244/114/170
f 242/66/122 248/68/124 249/436/300 243/437/297
f 243/438/297 249/439/300 247/440/301 241/431/298
f 251/67/123 245/65/121 246/441/299 252/442/302
f 252/443/302 246/444/299 244/114/170 250/113/169
f 248/68/124 254/70/126 255/445/303 249/446/300
f 249/447/300 255/448/303 253/449/304 247/440/301
f 257/69/125 251/67/123 252/450/302 258/451/305
f 258/452/305 252/453/302 250/113/169 256/112/168
f 254/70/126 260/72/128 261/454/306 255/455/303
f 255/456/303 261/457/306 259/458/307 253/449/304
f 263/71/127 257/69/125 258/459/305 264/460/308
f 264/461/308 258/462/305 256/112/168 262/111/167
f 260/72/128 266/74/130 267/463/309 261/464/306
f 261/465/306 267/466/309 265/467/310 259/458/307
f 269/73/129 263/71/127 264/468/308 270/469/311
f 270/470/311 264/471/308 262/111/167 268/110/166
f 266/74/130 272/76/132 273/472/312 267/473/309
f 267/474/309 273/475/312 271/476/313 265/467/310
f 275/75/131 269/73/129 270/477/311 276/478/314
f 276/479/314 270/480/311 268/110/166 274/109/165
f 272/76/132 278/78/134 279/481/315 273/482/312
f 273/483/312 279/484/315 277/485/316 271/476/313
f 281/77/133 275/75/131 276/486/314 282/487/317
f 282/488/317 276/489/314 274/109/165 280/108/164
f 278/78/134 284/80/136 285/490/318 279/491/315
f 279/492/315 285/493/318 283/494/319 277/485/316
f 287/79/135 281/77/133 282/495/317 288/496/320
f 288/497/320 282/498/317 280/108/164 286/107/163
f 284/80/136 290/82/138 291/499/321 285/500/318
f 285/501/318 291/502/321 289/503/322 283/494/319
f 293/81/137 287/79/135 288/504/320 294/505/323
f 294/506/323 288/507/320 286/107/163 292/106/162
f 290/82/138 296/84/140 297/508/324 291/509/321
f 291/510/321 297/511/324 295/512/325 289/503/322
f 299/83/139 293/81/137 294/513/323 300/514/326
f 300/515/326 294/516/323 292/106/162 298/105/161
f 296/84/140 302/86/142 303/517/327 297/518/324
f 297/519/324 303/520/327 301/521/328 295/512/325
f 305/85/141 299/83/139 300/522/326 306/523/329
f 306/524/329 300/525/326 298/105/161 304/104/160
f 302/86/142 308/88/144 309/526/330 303/527/327
f 303/528/327 309/529/330 307/530/331 301/521/328
f 311/87/143 305/85/141 306/531/329 312/532/332
f 312/533/332 306/534/329 304/104/160 310/103/159
f 308/88/144 314/90/146 315/535/333 309/536/330
f 309/537/330 315/538/333 313/539/334 307/530/331
f 317/89/145 311/87/143 312/540/332 318/541/335
f 318/542/335 312/543/332 310/103/159 316/102/158
f 314/90/146 320/92/148 321/544/336 315/545/333
f 315/546/333 321/547/336 319/548/337 313/539/334
f 323/91/147 317/89/145 318/549/335 324/550/338
f 324/551/338 318/552/335 316/102/158 322/101/157
f 320/92/148 326/94/150 327/553/339 321/554/336
f 321/555/336 327/556/339 325/557/340 319/548/337
f 329/93/149 323/91/147 324/558/338 330/559/341
f 330/560/341 324/561/338 322/101/157 328/100/156
f 326/94/150 332/1/57 333/562/342 327/563/339
f 327/564/339 333/565/342 331/566/343 325/557/340
f 335/2/58 329/93/149 330/567/341 336/568/344
f 336/569/344 330/570/341 328/100/156 334/99/155
f 332/1/57 50/4/60 51/571/202 333/572/342
f 333/573/342 51/574/202 49/152/204 331/566/343
f 53/3/59 335/2/58 336/575/344 54/576/205
f 54/577/205 336/578/344 334/99/155 52/98/154
f 49/152/204 55/151/203 61/161/208 67/170/211 73/179/214 79/188/217 85/197/220 91/206/223 97/215/226 103/224/229 109/233/232 115/242/235 121/251/238 127/260/241 133/269/244 139/278/247 145/287/250 151/296/253 157/305/256 163/314/259 169/323/262 175/332/265 181/341/268 187/350/271 193/359/274 199/368/277 205/377/280 211/386/283 217/395/286 223/404/289 229/413/292 235/422/295 241/431/298 247/440/301 253/449/304 259/458/307 265/467/310 271/476/313 277/485/316 283/494/319 289/503/322 295/512/325 301/521/328 307/530/331 313/539/334 319/548/337 325/557/340 331/566/343
